<svg width="270" height="37" viewBox="0 0 270 37" fill="none" xmlns="http://www.w3.org/2000/svg">
<g clip-path="url(#clip0_138_2109)">
<path d="M33.4023 2.17145C36.0714 2.91656 38.1135 4.33227 39.5178 6.4239C40.9274 8.51553 41.6296 11.5811 41.6296 15.6207C41.6296 19.3409 41.115 22.3426 40.0859 24.6152C39.0568 26.8878 37.5561 28.5377 35.5837 29.5595C33.6113 30.5814 31.1404 31.0817 28.1818 31.0551L14.6966 31.0178C14.7716 29.7032 14.8305 27.7766 14.8788 25.2326C14.927 22.6886 14.9538 19.5112 14.9538 15.6899C14.9538 13.8643 14.793 12.5338 14.4768 11.6929C14.1606 10.852 13.5335 10.4315 12.6009 10.4315C11.7433 10.4315 11.1376 10.7402 10.7839 11.3629C10.4302 11.9856 10.3873 12.6296 10.6553 13.2949C10.9233 13.9655 11.4003 14.3221 12.0863 14.37C11.8398 15.3173 11.1537 16.0997 10.0282 16.7064C8.90261 17.3131 7.68593 17.6165 6.38886 17.6165C5.2633 17.6165 4.20742 17.3504 3.22658 16.8129C2.24573 16.2806 1.4632 15.5036 0.873625 14.4977C0.284047 13.4918 -0.0107422 12.3049 -0.0107422 10.9425C-0.0107422 7.44044 1.9831 4.91771 5.97616 3.36895C9.97993 1.83083 15.5541 1.05911 22.7095 1.05911C27.1688 1.05911 30.7331 1.43167 33.4023 2.17145ZM25.8878 20.9269C26.1451 21.209 26.5042 21.3474 26.9705 21.3474C28.2461 21.3474 29.1573 20.8524 29.7094 19.8678C30.2614 18.8832 30.5348 17.4036 30.5348 15.4344C30.5348 13.2204 30.24 11.6876 29.6504 10.836C29.0608 9.98446 28.1657 9.55868 26.9705 9.55868C25.92 9.55868 25.3894 10.0803 25.3894 11.1287L25.5019 19.7773C25.5019 20.267 25.6305 20.6448 25.8878 20.9269Z" fill="white"/>
<path d="M48.0238 28.7506C46.6785 28.2184 45.703 27.4466 45.1027 26.4514C44.5024 25.4561 44.2023 24.2107 44.2023 22.7312C44.2023 20.8365 44.7811 19.3675 45.9496 18.335C47.1126 17.3025 49.0047 16.6266 51.6256 16.3126C52.4832 16.1902 53.2282 16.1157 53.866 16.0944C54.9701 15.972 55.7312 15.8762 56.1653 15.8016C56.5941 15.7271 56.9211 15.6047 57.1408 15.4344C57.3606 15.2641 57.4731 14.998 57.4731 14.6308C57.4731 13.9229 56.7442 13.5503 55.2863 13.5024C53.8285 13.4546 52.1937 13.5876 50.3821 13.9016C48.5705 14.2156 47.2949 14.5083 46.5606 14.7798L46.046 7.8822C47.3431 7.56819 48.8653 7.29675 50.6019 7.07854C52.3438 6.86033 54.1286 6.74857 55.967 6.74857C62.6293 6.74857 65.9631 9.50015 65.9631 14.9927C65.9631 22.2681 66.0488 26.9996 66.2203 29.187C64.5802 28.8198 63.0849 28.6388 61.7395 28.6388C61.0052 28.6388 60.3782 28.6707 59.8636 28.7293C59.3491 28.7932 58.7863 28.8943 58.1753 29.038C57.4624 29.2083 56.7656 29.336 56.0796 29.4212C55.3935 29.5063 54.4877 29.5489 53.3622 29.5489C51.1593 29.5489 49.3798 29.2828 48.0345 28.7453L48.0238 28.7506ZM56.3261 18.5692C55.4686 18.5692 54.7879 18.7874 54.2894 19.2238C53.7856 19.6602 53.5337 20.2723 53.5337 21.0493C53.5337 21.6082 53.6677 22.034 53.9357 22.3267C54.2037 22.6194 54.5842 22.7631 55.0719 22.7631C55.833 22.7631 56.3958 22.4704 56.7603 21.8903C57.1301 21.3048 57.3123 20.6023 57.3123 19.772C57.3123 18.9417 56.98 18.5692 56.3208 18.5692H56.3261Z" fill="white"/>
<path d="M80.5095 2.69836C80.5095 3.67232 80.07 4.35889 79.1856 4.75805C78.3066 5.15722 76.822 5.35946 74.7424 5.35946C72.6628 5.35946 71.2692 5.15722 70.4224 4.75805C69.5755 4.35889 69.1521 3.67232 69.1521 2.69836C69.1521 1.72439 69.5755 1.03251 70.4224 0.617373C71.2692 0.202241 72.7056 -0.00532532 74.7424 -0.00532532C76.7791 -0.00532532 78.3066 0.202241 79.1856 0.617373C80.07 1.03251 80.5095 1.72439 80.5095 2.69836ZM79.8503 29.187H69.9668C70.0418 28.1651 70.1008 26.7015 70.149 24.7908C70.1973 22.8802 70.2241 20.7247 70.2241 18.3137C70.2241 13.5929 70.1383 9.98446 69.9668 7.4777H79.593V18.3137C79.593 20.7194 79.6144 22.8802 79.668 24.7908C79.7163 26.7015 79.7806 28.1651 79.8503 29.187Z" fill="white"/>
<path d="M93.7001 29.1923H83.4468C83.5218 27.9043 83.5808 26.0469 83.629 23.6253C83.6772 21.2037 83.704 18.4734 83.704 15.4344C83.704 9.79286 83.6183 5.37543 83.4468 2.18742H93.4053L93.4428 15.4344C93.4428 18.4734 93.4642 21.2037 93.5178 23.6253C93.5661 26.0469 93.6304 27.899 93.7001 29.1923Z" fill="white"/>
<path d="M107.845 18.3882C108.113 18.8513 108.59 19.0801 109.276 19.0801C109.913 19.0801 110.38 18.9098 110.669 18.5692C110.964 18.2286 111.109 17.6804 111.109 16.93C111.109 12.7201 111.023 9.56934 110.851 7.47771H120.885V27.3615C120.885 29.1125 120.36 30.7198 119.304 32.1781C118.248 33.6364 116.656 34.8073 114.528 35.6801C112.395 36.5583 109.79 36.9947 106.703 36.9947C103.616 36.9947 101.054 36.5955 98.5828 35.7919V26.4886C99.3439 27.2657 100.218 27.8564 101.209 28.2609C102.201 28.6601 103.417 28.8623 104.864 28.8623C106.408 28.8623 107.759 28.6761 108.927 28.2982C110.09 27.9203 110.985 27.4466 111.607 26.8772C112.234 26.3077 112.545 25.7169 112.545 25.1049C112.545 24.6205 112.325 24.3757 111.886 24.3757C111.714 24.3757 111.505 24.4183 111.259 24.5035C111.012 24.5886 110.744 24.6791 110.449 24.7749C109.565 25.0889 108.702 25.355 107.861 25.5573C107.014 25.7648 105.99 25.8659 104.795 25.8659C102.42 25.8659 100.641 25.3124 99.4672 24.2054C98.2934 23.0984 97.7038 21.209 97.7038 18.5319C97.7038 13.6195 97.618 9.93125 97.4465 7.47771H107.443V15.9081C107.443 17.1003 107.577 17.9252 107.845 18.3882Z" fill="white"/>
<path d="M157.048 2.18742V12.2251C156.115 11.7621 154.989 11.4161 153.666 11.182C152.878 11.0436 151.934 10.9478 150.836 10.8946V15.0725C150.836 19.0588 150.895 22.2202 151.002 24.5567C151.114 26.8931 151.302 29.0433 151.57 31.0178H138.894C139.162 28.8517 139.355 26.5206 139.462 24.0298C139.575 21.5337 139.628 18.1487 139.628 13.8643C139.607 12.5551 139.376 11.6556 138.948 11.166C138.519 10.6817 137.892 10.4368 137.056 10.4368C136.005 10.4368 135.249 10.7455 134.799 11.3682C134.343 11.9856 134.242 12.6296 134.488 13.3002C134.729 13.9708 135.206 14.3274 135.919 14.3753C135.673 15.328 134.987 16.105 133.861 16.7117C132.736 17.3185 131.519 17.6218 130.222 17.6218C129.096 17.6218 128.04 17.3504 127.065 16.8022C126.084 16.254 125.301 15.4557 124.712 14.3966C124.122 13.3375 123.828 12.0654 123.828 10.5805C123.828 7.37125 125.43 5.04013 128.625 3.59248C131.819 2.15017 136.337 1.42635 142.163 1.42635C145.963 1.42635 150.921 1.68181 157.048 2.18742Z" fill="white"/>
<path d="M161.528 28.7506C160.183 28.2184 159.208 27.4466 158.607 26.4514C158.007 25.4561 157.707 24.2107 157.707 22.7312C157.707 20.8365 158.286 19.3675 159.454 18.335C160.617 17.3025 162.509 16.6266 165.13 16.3126C165.988 16.1902 166.733 16.1157 167.371 16.0944C168.475 15.972 169.236 15.8762 169.67 15.8016C170.099 15.7271 170.426 15.6047 170.645 15.4344C170.865 15.2641 170.978 14.998 170.978 14.6308C170.978 13.9229 170.249 13.5503 168.791 13.5024C167.333 13.4546 165.698 13.5876 163.887 13.9016C162.075 14.2156 160.799 14.5083 160.065 14.7798L159.551 7.8822C160.848 7.56819 162.37 7.29675 164.106 7.07854C165.848 6.86033 167.633 6.74857 169.472 6.74857C176.134 6.74857 179.468 9.50015 179.468 14.9927C179.468 22.2681 179.553 26.9996 179.725 29.187C178.085 28.8198 176.589 28.6388 175.244 28.6388C174.51 28.6388 173.883 28.6707 173.368 28.7293C172.854 28.7932 172.291 28.8943 171.68 29.038C170.967 29.2083 170.27 29.336 169.584 29.4212C168.898 29.5063 167.992 29.5489 166.867 29.5489C164.664 29.5489 162.884 29.2828 161.539 28.7453L161.528 28.7506ZM169.831 18.5692C168.973 18.5692 168.292 18.7874 167.794 19.2238C167.29 19.6602 167.038 20.2723 167.038 21.0493C167.038 21.6082 167.172 22.034 167.44 22.3267C167.708 22.6194 168.089 22.7631 168.576 22.7631C169.338 22.7631 169.9 22.4704 170.265 21.8903C170.635 21.3048 170.817 20.6023 170.817 19.772C170.817 18.9417 170.485 18.5692 169.825 18.5692H169.831Z" fill="white"/>
<path d="M206.229 11.8047C205.581 10.2133 204.605 9.03178 203.308 8.26538C202.011 7.49899 200.344 7.11579 198.313 7.11579C196.131 7.11579 194.416 7.61608 193.167 8.61133H192.958C192.99 5.6575 193.071 3.35831 193.205 1.71375H183.321C183.487 4.90175 183.573 9.47353 183.573 15.4344C183.573 18.4787 183.552 21.209 183.504 23.6253C183.455 26.0469 183.391 27.9043 183.321 29.1923C184.763 28.8251 186.392 28.6441 188.204 28.6441C188.869 28.6441 189.442 28.6761 189.935 28.7346C190.423 28.7985 190.986 28.8996 191.624 29.0433C192.626 29.2136 193.473 29.3413 194.159 29.4265C194.845 29.5116 195.777 29.5542 196.951 29.5542C199.202 29.5542 201.084 29.1657 202.59 28.3887C204.096 27.6116 205.243 26.3609 206.025 24.6471C206.813 22.9334 207.205 20.6874 207.205 17.9146C207.205 15.4344 206.878 13.396 206.229 11.8047ZM196.512 21.6561C196.169 22.4704 195.579 22.8802 194.748 22.8802C194.33 22.8802 193.987 22.811 193.719 22.6779C193.446 22.5449 193.312 22.3692 193.312 22.151V15.5834C193.312 14.8277 193.473 14.2635 193.789 13.8856C194.111 13.5078 194.561 13.3215 195.15 13.3215C195.836 13.3215 196.319 13.6355 196.603 14.2688C196.882 14.9022 197.026 16.0411 197.026 17.6963C197.026 19.5219 196.855 20.8418 196.512 21.6561Z" fill="white"/>
<path d="M220.727 29.1923H210.474C210.549 27.9043 210.608 26.0469 210.656 23.6253C210.705 21.2037 210.731 18.4734 210.731 15.4344C210.731 9.79286 210.646 5.37543 210.474 2.18742H220.433L220.47 15.4344C220.47 18.4734 220.492 21.2037 220.545 23.6253C220.593 26.0469 220.658 27.899 220.727 29.1923Z" fill="white"/>
<path d="M229.362 28.6069C227.502 27.8511 226.146 26.659 225.299 25.0304C224.452 23.4018 224.029 21.2143 224.029 18.4628C224.029 15.7112 224.42 13.4812 225.203 11.8419C225.985 10.2027 227.234 8.99986 228.949 8.24943C230.664 7.49368 232.969 7.12112 235.858 7.12112C239.653 7.12112 242.381 7.72786 244.032 8.94664C245.683 10.1654 246.513 11.7834 246.513 13.8005C246.513 16.3552 245.64 18.0157 243.887 18.7821C242.134 19.5485 240.307 19.9317 238.393 19.9317C237.563 19.9317 236.705 19.8838 235.821 19.788C235.108 19.7135 234.647 19.7081 234.422 19.772C234.197 19.8359 234.089 20.0328 234.089 20.3734C234.089 20.911 234.486 21.3421 235.285 21.6667C236.078 21.9967 237.091 22.1617 238.318 22.1617C239.835 22.1617 241.223 21.9967 242.472 21.6667C243.721 21.3367 244.922 20.8577 246.074 20.2244L246.219 28.1439C245.506 28.5803 244.348 28.9581 242.745 29.2722C241.143 29.5862 239.165 29.7458 236.812 29.7458C233.703 29.7458 231.217 29.368 229.351 28.6175L229.362 28.6069ZM236.544 16.5095C237.241 16.2274 237.589 15.7271 237.589 14.9927C237.589 14.5296 237.418 14.1464 237.075 13.8431C236.732 13.5397 236.292 13.3854 235.751 13.3854C235.14 13.3854 234.636 13.6674 234.245 14.2263C233.854 14.7851 233.703 15.6154 233.805 16.7064C234.931 16.8501 235.842 16.7863 236.544 16.5042V16.5095Z" fill="white"/>
<path d="M265.042 14.2476C263.767 13.9442 262.641 13.7898 261.66 13.7898C261.097 13.7898 260.674 13.891 260.39 14.0985C260.106 14.3061 259.966 14.5775 259.966 14.9182C259.966 15.3812 260.192 15.6899 260.647 15.8495C261.097 16.0092 261.88 16.1742 262.979 16.3445C264.351 16.5148 265.514 16.7543 266.468 17.0577C267.422 17.361 268.247 17.9625 268.949 18.8619C269.646 19.7614 269.995 21.0493 269.995 22.7312C269.995 24.6312 269.539 26.0948 268.633 27.1273C267.727 28.1598 266.527 28.8623 265.031 29.2243C263.536 29.5915 261.751 29.7724 259.666 29.7724C257.019 29.7724 254.8 29.6287 252.999 29.336C251.198 29.0433 249.906 28.692 249.124 28.2769L249.306 20.0647C249.622 20.5278 250.49 20.9589 251.895 21.358C253.304 21.7572 254.816 21.9594 256.434 21.9594C257.34 21.9594 258.096 21.8423 258.696 21.6135C259.296 21.3846 259.597 21.0972 259.597 20.7566C259.597 20.2936 259.345 19.9796 258.841 19.8093C258.337 19.639 257.522 19.4793 256.397 19.3356C254.95 19.1387 253.76 18.9045 252.816 18.6224C251.873 18.3457 251.048 17.7975 250.335 16.9832C249.622 16.1689 249.268 14.9927 249.268 13.4599C249.268 11.1234 250.163 9.42031 251.948 8.35055C253.738 7.28078 256.654 6.74324 260.695 6.74324C262.191 6.74324 263.649 6.83372 265.069 7.01467C266.489 7.19563 267.738 7.45642 268.815 7.79704L268.74 15.3493C267.54 14.9128 266.302 14.5403 265.031 14.2369L265.042 14.2476Z" fill="white"/>
</g>
<defs>
<clipPath id="clip0_138_2109">
<rect width="270" height="37" fill="white"/>
</clipPath>
</defs>
</svg>
