<svg width="21" height="20" viewBox="0 0 21 20" fill="none" xmlns="http://www.w3.org/2000/svg">
<path d="M18.2819 0.735291H16.429V2.58823C16.429 2.95882 16.1201 3.20588 15.8113 3.20588C15.5025 3.20588 15.1937 2.95882 15.1937 2.58823V0.735291H5.31131V2.58823C5.31131 2.95882 5.00248 3.20588 4.69366 3.20588C4.38483 3.20588 4.07601 2.95882 4.07601 2.58823V0.735291H2.22307C1.2966 0.735291 0.617188 1.53823 0.617188 2.58823V4.81176H20.3819V2.58823C20.3819 1.53823 19.2701 0.735291 18.2819 0.735291ZM0.617188 6.10882V17.4118C0.617188 18.5235 1.2966 19.2647 2.28483 19.2647H18.3437C19.3319 19.2647 20.4437 18.4618 20.4437 17.4118V6.10882H0.617188ZM6.11425 16.4853H4.63189C4.38483 16.4853 4.13778 16.3 4.13778 15.9912V14.4471C4.13778 14.2 4.32307 13.9529 4.63189 13.9529H6.17601C6.42307 13.9529 6.67013 14.1382 6.67013 14.4471V15.9912C6.60836 16.3 6.42307 16.4853 6.11425 16.4853ZM6.11425 10.9265H4.63189C4.38483 10.9265 4.13778 10.7412 4.13778 10.4324V8.88823C4.13778 8.64117 4.32307 8.39411 4.63189 8.39411H6.17601C6.42307 8.39411 6.67013 8.57941 6.67013 8.88823V10.4324C6.60836 10.7412 6.42307 10.9265 6.11425 10.9265ZM11.0554 16.4853H9.5113C9.26425 16.4853 9.01719 16.3 9.01719 15.9912V14.4471C9.01719 14.2 9.20248 13.9529 9.5113 13.9529H11.0554C11.3025 13.9529 11.5495 14.1382 11.5495 14.4471V15.9912C11.5495 16.3 11.3642 16.4853 11.0554 16.4853ZM11.0554 10.9265H9.5113C9.26425 10.9265 9.01719 10.7412 9.01719 10.4324V8.88823C9.01719 8.64117 9.20248 8.39411 9.5113 8.39411H11.0554C11.3025 8.39411 11.5495 8.57941 11.5495 8.88823V10.4324C11.5495 10.7412 11.3642 10.9265 11.0554 10.9265ZM15.9966 16.4853H14.4525C14.2054 16.4853 13.9584 16.3 13.9584 15.9912V14.4471C13.9584 14.2 14.1437 13.9529 14.4525 13.9529H15.9966C16.2437 13.9529 16.4907 14.1382 16.4907 14.4471V15.9912C16.4907 16.3 16.3054 16.4853 15.9966 16.4853ZM15.9966 10.9265H14.4525C14.2054 10.9265 13.9584 10.7412 13.9584 10.4324V8.88823C13.9584 8.64117 14.1437 8.39411 14.4525 8.39411H15.9966C16.2437 8.39411 16.4907 8.57941 16.4907 8.88823V10.4324C16.4907 10.7412 16.3054 10.9265 15.9966 10.9265Z" fill="#CACACA"/>
</svg>
