<svg width="40" height="40" viewBox="0 0 40 40" fill="none" xmlns="http://www.w3.org/2000/svg">
<path d="M20 16.25C16.5538 16.25 13.75 19.0538 13.75 22.5C13.75 25.9462 16.5538 28.75 20 28.75C23.4462 28.75 26.25 25.9462 26.25 22.5C26.25 19.0538 23.4462 16.25 20 16.25ZM23.75 23.75C23.0588 23.75 22.5 23.19 22.5 22.5C22.5 21.1213 21.3787 20 20 20C19.3088 20 18.75 19.44 18.75 18.75C18.75 18.06 19.3088 17.5 20 17.5C22.7575 17.5 25 19.7425 25 22.5C25 23.19 24.4412 23.75 23.75 23.75Z" fill="#F15F7B"/>
<path d="M26.9129 8.75L26.2129 5.94625C26.0729 5.39125 25.5741 5 25.0004 5H15.0004C14.4266 5 13.9279 5.39125 13.7879 5.94625L13.0879 8.75H26.9129Z" fill="#F15F7B"/>
<path d="M35 10H27.225H12.775H5C2.9325 10 1.25 11.6825 1.25 13.75V31.25C1.25 33.3175 2.9325 35 5 35H35C37.0675 35 38.75 33.3175 38.75 31.25V13.75C38.75 11.6825 37.0675 10 35 10ZM7.5 17.5C6.80875 17.5 6.25 16.94 6.25 16.25C6.25 15.56 6.80875 15 7.5 15C8.19125 15 8.75 15.56 8.75 16.25C8.75 16.94 8.19125 17.5 7.5 17.5ZM20 31.25C15.1763 31.25 11.25 27.325 11.25 22.5C11.25 17.675 15.1763 13.75 20 13.75C24.8237 13.75 28.75 17.675 28.75 22.5C28.75 27.325 24.8237 31.25 20 31.25Z" fill="#F15F7B"/>
</svg>
