<svg width="16" height="16" viewBox="0 0 16 16" fill="none" xmlns="http://www.w3.org/2000/svg">
<path d="M15.6642 13.0478C15.6642 13.4579 15.3286 13.7934 14.9185 13.7934H14.1729V14.5391C14.1729 14.9492 13.8373 15.2847 13.4272 15.2847C13.0171 15.2847 12.6815 14.9492 12.6815 14.5391V13.7934H11.9359C11.5258 13.7934 11.1902 13.4579 11.1902 13.0478C11.1902 12.6376 11.5258 12.3021 11.9359 12.3021H12.6815V11.5564C12.6815 11.1463 13.0171 10.8108 13.4272 10.8108C13.8373 10.8108 14.1729 11.1463 14.1729 11.5564V12.3021H14.9185C15.3286 12.3021 15.6642 12.6376 15.6642 13.0478ZM11.1679 8.70802L7.84221 10.7064C7.73036 10.7735 7.59614 10.8108 7.46192 10.8108C7.32024 10.8108 7.17111 10.766 7.05181 10.684L5.09072 9.37911L0.750977 10.5647V11.5564C0.750977 12.7868 1.75762 13.7934 2.98796 13.7934H8.95324C9.36335 13.7934 9.6989 13.4579 9.6989 13.0478C9.6989 11.37 10.8025 9.95327 12.3236 9.4835L11.1679 8.70802ZM5.03107 7.85796L0.750977 9.02119V2.60851C0.750977 1.37817 1.75762 0.371532 2.98796 0.371532H11.9359C13.1662 0.371532 14.1729 1.37817 14.1729 2.60851V8.5738C14.1729 8.67819 14.1505 8.78258 14.1058 8.87206L11.6003 7.20924C11.3617 7.04519 11.056 7.03774 10.8099 7.18687L7.48429 9.18524L5.63505 7.9549C5.45609 7.83559 5.23985 7.79831 5.03107 7.85796ZM4.85211 5.59116C5.47101 5.59116 5.9706 5.09156 5.9706 4.47266C5.9706 3.85377 5.47101 3.35417 4.85211 3.35417C4.23321 3.35417 3.73362 3.85377 3.73362 4.47266C3.73362 5.09156 4.23321 5.59116 4.85211 5.59116Z" fill="white"/>
</svg>
