<svg width="40" height="32" viewBox="0 0 40 32" fill="none" xmlns="http://www.w3.org/2000/svg">
<path d="M10.9127 0.808051C9.7796 0.808051 10.2613 0.786879 8.66694 0.911332C6.9821 1.04282 5.43639 1.82594 4.33804 3.06219C3.74163 3.73344 2.81507 4.005 1.95975 3.73164L1.17186 3.47985C1.17186 3.47985 0.769364 11.9084 3.20147 12.9686H18.7526V8.64602C18.7526 4.31672 15.2421 0.808207 10.9127 0.808051Z" fill="#D77F4A"/>
<path d="M6.90825 22.3827V22.3803H4.52888C2.71864 22.3803 1.25122 23.8478 1.25122 25.658V31.1077H18.7527V25.658C18.7527 23.8477 17.2852 22.3803 15.475 22.3803H13.0957V22.3827H6.90825Z" fill="#3C87D0"/>
<path d="M6.89673 19.9109V22.3827C6.89673 24.0913 8.28181 25.4764 9.9904 25.4764C11.699 25.4764 13.0841 24.0913 13.0841 22.3827C13.0841 21.5163 13.0841 20.748 13.0841 19.9109H6.89673Z" fill="#FFB09E"/>
<path d="M6.89673 22.3827C6.89673 22.5258 6.90728 22.6662 6.92603 22.8042C7.86454 23.2261 8.90712 23.4612 10.0053 23.4612C11.0912 23.4612 12.1226 23.2313 13.0528 22.8184C13.0729 22.6759 13.0839 22.5306 13.0839 22.3827C13.0839 21.5163 13.0839 20.7479 13.0839 19.9109H6.89673V22.3827Z" fill="#FFA78F"/>
<path d="M6.35734 16.0596H2.53273C1.13398 16.0596 0 14.9257 0 13.5269C0 12.128 1.13398 10.9941 2.53273 10.9941H6.35734V16.0596Z" fill="#FFB09E"/>
<path d="M13.6465 10.9941H17.4711C18.8699 10.9941 20.0038 12.1281 20.0038 13.5269C20.0038 14.9257 18.8698 16.0596 17.4711 16.0596H13.6465V10.9941Z" fill="#FFA78F"/>
<path d="M2.55762 12.1314V14.9223C2.55762 18.9889 5.89207 22.2856 10.0054 22.2856C14.1187 22.2856 17.4532 18.9889 17.4532 14.9223V12.1314C17.4532 8.06477 14.1188 4.76805 10.0054 4.76805C5.89207 4.76805 2.55762 8.06477 2.55762 12.1314Z" fill="#FFCEBF"/>
<path d="M5.64439 17.3888H4.35049C3.96299 17.3888 3.64893 17.0748 3.64893 16.6873C3.64893 16.2998 3.96299 15.9857 4.35049 15.9857H5.64447C6.03197 15.9857 6.34603 16.2998 6.34603 16.6873C6.34603 17.0748 6.03197 17.3888 5.64439 17.3888Z" fill="#FE8F83"/>
<path d="M10.2569 4.77328C9.97304 4.78133 9.6928 4.80368 9.41772 4.84235C13.0298 5.35032 15.8075 8.41993 15.8075 12.1314V14.9223C15.8075 18.6338 13.0298 21.7034 9.41772 22.2113C9.6928 22.25 9.97304 22.2724 10.2569 22.2804C14.2537 22.1492 17.4533 18.9056 17.4533 14.9223V12.1314C17.4533 8.14805 14.2537 4.90446 10.2569 4.77328Z" fill="#FFB09E"/>
<path d="M11.2239 0.815857H9.90795C9.69389 0.827732 9.3999 0.854138 8.66701 0.911326C7.03787 1.03859 5.53904 1.775 4.44873 2.94109V6.21289C4.44873 8.85351 6.58936 10.9941 9.2299 10.9941H18.7526V8.64593C18.7526 4.42093 15.4091 0.978435 11.2239 0.815857Z" fill="#D77F4A"/>
<path d="M11.224 0.815948H9.90809C9.72777 0.825948 9.48973 0.846339 8.98145 0.88673C12.7894 1.42134 15.7198 4.69071 15.7198 8.6461V10.9942H18.7529V8.6461C18.7528 4.42095 15.4093 0.978448 11.224 0.815948Z" fill="#C86D36"/>
<path d="M15.4749 22.3804H13.0955V22.3828H12.9832C14.7495 22.433 16.1663 23.8796 16.1663 25.6581V31.1079H18.7526V25.6581C18.7526 23.8478 17.2851 22.3804 15.4749 22.3804Z" fill="#0078C8"/>
<path d="M15.6306 17.3888H14.3366C13.9491 17.3888 13.635 17.0748 13.635 16.6873C13.635 16.2998 13.9491 15.9857 14.3366 15.9857H15.6306C16.0181 15.9857 16.3321 16.2998 16.3321 16.6873C16.3321 17.0748 16.0181 17.3888 15.6306 17.3888Z" fill="#FE8F83"/>
<path d="M9.99053 19.3088C8.77311 19.3088 7.78271 18.3184 7.78271 17.1011C7.78271 16.7575 8.06123 16.479 8.40482 16.479C8.74842 16.479 9.02693 16.7575 9.02693 17.1011C9.02693 17.6323 9.4592 18.0647 9.99061 18.0647C10.5219 18.0647 10.9542 17.6324 10.9542 17.1011C10.9542 16.7575 11.2327 16.479 11.5763 16.479C11.9199 16.479 12.1984 16.7575 12.1984 17.1011C12.1983 18.3184 11.2079 19.3088 9.99053 19.3088Z" fill="#FFA799"/>
<path d="M13.635 15.3892C13.2915 15.3892 13.0129 15.1107 13.0129 14.7671V13.3922C13.0129 13.0486 13.2915 12.7701 13.635 12.7701C13.9786 12.7701 14.2572 13.0486 14.2572 13.3922V14.7671C14.2572 15.1107 13.9787 15.3892 13.635 15.3892Z" fill="#5A5A5A"/>
<path d="M6.34599 15.3892C6.00239 15.3892 5.72388 15.1107 5.72388 14.7671V13.3922C5.72388 13.0486 6.00239 12.7701 6.34599 12.7701C6.68958 12.7701 6.9681 13.0486 6.9681 13.3922V14.7671C6.96802 15.1107 6.68958 15.3892 6.34599 15.3892Z" fill="#5A5A5A"/>
<path d="M24.2436 22.8469H23.9219C22.175 22.8469 20.7588 24.263 20.7588 26.01V31.1934H36.8906V26.01C36.8906 24.263 35.4744 22.8469 33.7275 22.8469H24.2436Z" fill="#F07281"/>
<path d="M33.7277 22.8469H31.137C32.8839 22.8469 34.3001 24.263 34.3001 26.01V31.1934H36.8908V26.01C36.8908 24.263 35.4746 22.8469 33.7277 22.8469Z" fill="#EB5569"/>
<path d="M28.8144 26.1783C27.2928 26.1783 26.0593 24.9448 26.0593 23.4232V16.793H31.5695V23.4231C31.5694 24.9448 30.336 26.1783 28.8144 26.1783Z" fill="#FFB09E"/>
<path d="M26.0593 23.0309C26.8982 23.4091 27.8299 23.6214 28.8122 23.6214C29.7963 23.6214 30.7294 23.4083 31.5695 23.0289V16.793H26.0593V23.0309Z" fill="#FFA78F"/>
<path d="M38.6231 23.692H40V19.9008C40 17.6866 38.205 15.8917 35.9909 15.8917H34.614V19.6829C34.614 21.897 36.4089 23.692 38.6231 23.692Z" fill="#5A5A5A"/>
<path d="M35.9909 15.8917H34.614V16.007C36.3671 16.4355 37.6683 18.0158 37.6683 19.9008V23.5766C37.9744 23.6514 38.2939 23.692 38.6231 23.692H40V19.9008C40 17.6866 38.205 15.8917 35.9909 15.8917Z" fill="#444444"/>
<path d="M18.985 23.692H17.6082V19.9008C17.6082 17.6866 19.4031 15.8917 21.6172 15.8917H22.9941V19.6829C22.9941 21.897 21.1992 23.692 18.985 23.692Z" fill="#5A5A5A"/>
<path d="M25.5688 16.793H22.1541C20.9074 16.793 19.8967 15.7823 19.8967 14.5356C19.8967 13.2889 20.9074 12.2783 22.1541 12.2783H25.5688V16.793Z" fill="#FFB09E"/>
<path d="M32.0393 12.2783H35.4541C36.7008 12.2783 37.7114 13.2889 37.7114 14.5356C37.7114 15.7823 36.7008 16.793 35.4541 16.793H32.0393V12.2783Z" fill="#FFA78F"/>
<path d="M28.8121 6.73898C25.1452 6.73898 22.1726 9.67484 22.1726 13.2965V13.7398V15.7789C22.1726 19.4005 25.1452 22.3364 28.8121 22.3364C32.4789 22.3364 35.4515 19.4005 35.4515 15.7789V13.2965C35.4515 9.67484 32.4789 6.73898 28.8121 6.73898Z" fill="#FFCEBF"/>
<path d="M28.8122 6.73898C28.4625 6.73898 28.1193 6.76609 27.7842 6.8175C30.9629 7.30555 33.3956 10.0202 33.3956 13.2965V15.7789C33.3956 19.0552 30.9628 21.7698 27.7842 22.2579C28.1193 22.3093 28.4625 22.3364 28.8122 22.3364C32.4791 22.3364 35.4517 19.4005 35.4517 15.7789V13.2965C35.4517 9.67484 32.4791 6.73898 28.8122 6.73898Z" fill="#FFB09E"/>
<path d="M25.0924 18.2159H23.8285C23.4501 18.2159 23.1433 17.9092 23.1433 17.5307C23.1433 17.1522 23.45 16.8455 23.8285 16.8455H25.0924C25.4708 16.8455 25.7776 17.1522 25.7776 17.5307C25.7776 17.9092 25.4708 18.2159 25.0924 18.2159Z" fill="#FE8F83"/>
<path d="M33.8211 18.2159H32.5573C32.1788 18.2159 31.8721 17.9092 31.8721 17.5307C31.8721 17.1522 32.1788 16.8455 32.5573 16.8455H33.8211C34.1996 16.8455 34.5064 17.1522 34.5064 17.5307C34.5064 17.9092 34.1996 18.2159 33.8211 18.2159Z" fill="#FE8F83"/>
<path d="M29.508 2.91016C29.1192 2.91016 28.8042 3.22523 28.8041 3.61398C28.8041 3.22523 28.4889 2.91016 28.1002 2.91016C23.9051 2.91016 20.5044 6.31094 20.5044 10.5059V12.2782H24.9367C27.0726 12.2782 28.804 10.5468 28.8041 8.41102C28.8042 10.5468 30.5356 12.2782 32.6714 12.2782H37.1038V10.5059C37.1038 6.31094 33.7031 2.91016 29.508 2.91016Z" fill="#5A5A5A"/>
<path d="M29.5079 2.91022C29.3063 2.91022 29.1249 2.99545 28.9966 3.13131C32.3123 3.94701 34.7721 6.93858 34.7721 10.506V12.2783H37.1038V10.506C37.1037 6.31092 33.703 2.91022 29.5079 2.91022Z" fill="#444444"/>
<path d="M28.8247 19.9012C27.7035 19.9012 26.7913 18.9889 26.7913 17.8677C26.7913 17.4921 27.0957 17.1877 27.4713 17.1877C27.8468 17.1877 28.1513 17.4921 28.1513 17.8677C28.1513 18.2391 28.4534 18.5412 28.8247 18.5412C29.196 18.5412 29.4981 18.2391 29.4981 17.8677C29.4981 17.4921 29.8026 17.1877 30.1781 17.1877C30.5537 17.1877 30.8581 17.4921 30.8581 17.8677C30.8581 18.989 29.9459 19.9012 28.8247 19.9012Z" fill="#FFA799"/>
<path d="M31.9356 16.5734C31.5601 16.5734 31.2556 16.269 31.2556 15.8934V14.6845C31.2556 14.3089 31.5601 14.0045 31.9356 14.0045H32.4553C32.8308 14.0045 33.1353 14.3089 33.1353 14.6845C33.1353 15.0048 32.9138 15.2734 32.6156 15.3455V15.8934C32.6156 16.269 32.3112 16.5734 31.9356 16.5734Z" fill="#5A5A5A"/>
<path d="M25.7141 16.5734C25.3385 16.5734 25.0341 16.269 25.0341 15.8934V15.3455C24.7359 15.2734 24.5144 15.0048 24.5144 14.6845C24.5144 14.3089 24.8189 14.0045 25.1944 14.0045H25.7141C26.0896 14.0045 26.3941 14.3089 26.3941 14.6845V15.8934C26.3941 16.269 26.0896 16.5734 25.7141 16.5734Z" fill="#5A5A5A"/>
</svg>
