<svg width="10" height="12" viewBox="0 0 10 12" fill="none" xmlns="http://www.w3.org/2000/svg">
<path fill-rule="evenodd" clip-rule="evenodd" d="M9.39529 7.75569C9.29665 10.1114 7.35646 11.9911 4.97651 11.9911C2.53345 11.9911 0.552982 9.94406 0.552982 7.56759C0.552982 7.24995 0.547287 6.61512 1.02357 5.54406C1.30861 4.90308 1.48738 4.50039 1.58828 4.1323C1.64371 3.92999 1.75152 3.60858 2.05886 4.1323C2.24009 4.4411 2.2471 4.88524 2.2471 4.88524C2.2471 4.88524 2.92136 4.36783 3.37651 3.37936C4.04376 1.93028 3.51138 1.06406 3.32945 0.461711C3.26649 0.253335 3.22696 -0.121159 3.65886 0.038182C4.09896 0.200582 5.26244 1.01503 5.87063 1.87348C6.73863 3.09865 7.0471 4.27348 7.0471 4.27348C7.0471 4.27348 7.32503 3.92853 7.42357 3.56759C7.53486 3.16002 7.53651 2.75635 7.89411 3.19117C8.2342 3.60468 8.73929 4.38176 9.02357 5.12053C9.53976 6.46213 9.39529 7.75569 9.39529 7.75569Z" fill="url(#paint0_linear_78_545)"/>
<path fill-rule="evenodd" clip-rule="evenodd" d="M4.97655 11.9911C3.28718 11.9911 1.91772 10.6217 1.91772 8.93229C1.91772 7.91295 2.3285 7.29408 3.18342 6.45483C3.73081 5.91747 4.24314 5.25747 4.46088 4.80806C4.50375 4.71959 4.6013 4.25855 4.97744 4.79836C5.17476 5.08147 5.48408 5.58495 5.68243 6.01464C6.02436 6.75549 6.10596 7.47347 6.10596 7.47347C6.10596 7.47347 6.44107 7.27601 6.67067 6.76759C6.74469 6.60373 6.89434 5.9834 7.31269 6.60363C7.61965 7.05879 8.04135 7.87714 8.03537 8.93229C8.03537 10.6217 6.66587 11.9911 4.97655 11.9911Z" fill="#FC9502"/>
<path fill-rule="evenodd" clip-rule="evenodd" d="M5.02358 8.6499C5.45887 8.6499 5.45887 9.45597 6.01181 10.5323C6.38 11.2489 5.82927 11.9911 5.02358 11.9911C4.21788 11.9911 3.80005 11.3379 3.80005 10.5323C3.80005 9.72661 4.58828 8.6499 5.02358 8.6499Z" fill="#FCE202"/>
<defs>
<linearGradient id="paint0_linear_78_545" x1="4.98315" y1="12" x2="4.98315" y2="0.00881719" gradientUnits="userSpaceOnUse">
<stop stop-color="#FF4C0D"/>
<stop offset="1" stop-color="#FC9502"/>
</linearGradient>
</defs>
</svg>
