<svg width="40" height="40" viewBox="0 0 40 40" fill="none" xmlns="http://www.w3.org/2000/svg">
<g clip-path="url(#clip0_294_471)">
<path d="M20.723 31.6286C19.5599 31.6107 18.4385 31.1926 17.5477 30.4446L11.6815 25.2781C10.7585 24.4156 9.34689 24.3473 8.34481 25.1167L0.00309731 31.2518V35.2343C-0.056855 36.3026 0.760742 37.2172 1.82907 37.2772C1.88407 37.2803 1.93929 37.281 1.9944 37.2794H31.5404C32.7244 37.2794 33.9084 36.4183 33.9084 35.2343V24.7937L23.3062 30.929C22.5268 31.3975 21.6324 31.6397 20.723 31.6286Z" fill="#F15F7B"/>
<path d="M20.2928 21.188C21.6006 21.188 22.6608 20.1278 22.6608 18.8199C22.6608 17.5121 21.6006 16.4519 20.2928 16.4519C18.985 16.4519 17.9248 17.5121 17.9248 18.8199C17.9248 20.1278 18.985 21.188 20.2928 21.188Z" fill="#F15F7B"/>
<path d="M39.5054 6.92623C39.1619 6.45814 38.6312 6.16333 38.0523 6.11893L8.72157 2.72843C8.14976 2.68053 7.57908 2.83268 7.10708 3.15902C6.68906 3.52203 6.40486 4.01473 6.29979 4.55832L5.81543 8.75611H31.5404C33.993 8.81173 35.9762 10.7712 36.0611 13.223V32.2206C36.0611 32.113 36.5455 32.0053 36.7608 31.79C37.2064 31.4401 37.4648 30.9035 37.4604 30.337L39.9898 8.48694C40.0457 7.92255 39.871 7.35959 39.5054 6.92623Z" fill="#F15F7B"/>
<path d="M31.5402 10.9087H1.99423C0.810225 10.9087 0.00292969 12.0389 0.00292969 13.2229V28.561L7.10686 23.3944C8.91017 22.0568 11.4049 22.1691 13.0807 23.6635L19.0006 28.83C19.8933 29.5879 21.1683 29.6959 22.1758 29.0991L33.9081 22.2642V13.2229C33.8267 11.9594 32.8052 10.9612 31.5402 10.9087ZM20.2922 23.3406C17.7956 23.3406 15.7715 21.3166 15.7715 18.8198C15.7715 16.3232 17.7955 14.2991 20.2922 14.2991C22.7889 14.2991 24.813 16.3231 24.813 18.8198C24.813 21.3166 22.789 23.3406 20.2922 23.3406Z" fill="#F15F7B"/>
</g>
<defs>
<clipPath id="clip0_294_471">
<rect width="40" height="40" fill="white"/>
</clipPath>
</defs>
</svg>
