<svg width="209" height="192" viewBox="0 0 209 192" fill="none" xmlns="http://www.w3.org/2000/svg">
<g clip-path="url(#clip0_4_866)">
<path d="M100.187 63.5629V134.209C100.187 139.817 97.1911 143.859 90.0988 147.812C80.69 153.062 46.1047 164.027 33.6104 167.998C26.2676 170.333 20.6152 163.616 29.1654 153.876C36.2935 145.755 67.7216 111.09 83.8203 93.8731C91.8428 85.296 100.187 78.2037 100.187 63.5629Z" fill="url(#paint0_linear_4_866)"/>
<path d="M100.187 94.8211V134.218C100.187 139.826 97.1911 143.868 90.0988 147.821C80.69 153.071 46.1047 164.036 33.6104 168.007C28.7987 169.537 24.7204 167.185 24.8724 162.641C25.8562 169.322 34.0308 164.814 40.3897 160.065C50.5319 152.49 65.5662 139.888 83.8203 125.122C92.9518 117.735 100.187 109.453 100.187 94.8121V94.8211Z" fill="url(#paint1_linear_4_866)"/>
<path d="M100.187 134.218V63.5717C100.187 56.1663 96.118 47.2405 84.3749 40.6579C67.6949 31.2939 37.1164 14.3456 15.2491 3.45216C-0.232464 -4.26625 -6.00115 1.28779 7.80792 16.8498C17.7623 28.0742 58.2414 76.8531 79.8762 101.726C88.2028 111.295 98.497 120.767 100.187 134.218Z" fill="url(#paint2_linear_4_866)"/>
<path d="M109.757 60.2716V130.918C109.757 138.323 113.826 147.249 125.57 153.841C142.25 163.196 171.039 177.461 192.907 188.354C208.388 196.073 214.148 190.519 200.348 174.957C190.393 163.732 151.703 117.636 130.068 92.764C121.742 83.1943 111.438 73.7229 109.757 60.2716Z" fill="url(#paint3_linear_4_866)"/>
<path d="M109.757 130.927V60.2805C109.757 54.6728 112.753 50.6303 119.846 46.6772C129.254 41.4272 163.84 30.4622 176.334 26.4912C183.677 24.1569 189.329 30.8736 180.779 40.6133C173.651 48.7342 142.223 83.4 126.124 100.617C118.102 109.194 109.757 116.286 109.757 130.927Z" fill="url(#paint4_linear_4_866)"/>
<path d="M109.757 99.6686V60.2716C109.757 54.6639 112.753 50.6213 119.846 46.6682C129.254 41.4183 163.84 30.4533 176.334 26.4823C181.146 24.9529 185.224 27.3051 185.072 31.8485C184.088 25.1676 175.914 29.6752 169.555 34.4243C159.412 41.9996 144.378 54.6013 126.124 69.3673C116.993 76.7548 109.757 85.0367 109.757 99.6775V99.6686Z" fill="url(#paint5_linear_4_866)"/>
<path d="M100.187 101.583V63.5629C100.187 56.1576 96.1178 47.2317 84.3747 40.6492C67.6947 31.2941 37.1162 14.3458 15.2489 3.45235C4.52538 -1.89598 -1.53844 -0.876399 0.339735 5.43785C-0.196887 0.626142 2.99601 -0.259284 8.7647 4.98172C20.15 15.3117 57.794 43.4396 81.629 64.4305C96.2967 77.3452 98.4968 88.1492 100.187 101.592V101.583Z" fill="url(#paint6_linear_4_866)"/>
<path d="M109.757 60.2716V130.918C109.757 138.323 113.826 147.249 125.57 153.841C142.25 163.196 171.039 177.461 192.907 188.354C208.388 196.073 214.148 190.519 200.348 174.957C190.393 163.732 151.703 117.636 130.068 92.764C121.742 83.1943 111.447 73.7229 109.757 60.2716Z" fill="url(#paint7_linear_4_866)"/>
<path d="M109.757 86.9149V130.918C109.757 138.323 113.826 147.249 125.57 153.841C142.25 163.196 171.039 177.461 192.907 188.354C203.63 193.703 209.694 192.674 207.816 186.369C208.343 191.18 204.775 191.073 199.391 186.825C187.317 177.3 146.954 145.836 123.307 124.639C113.862 116.17 109.757 103.684 109.757 86.9149Z" fill="url(#paint8_linear_4_866)"/>
</g>
<defs>
<linearGradient id="paint0_linear_4_866" x1="27.7254" y1="164.564" x2="92.3724" y2="92.1118" gradientUnits="userSpaceOnUse">
<stop stop-color="#FDE151"/>
<stop offset="0.07" stop-color="#FCDA53"/>
<stop offset="0.16" stop-color="#FAC858"/>
<stop offset="0.27" stop-color="#F8AB62"/>
<stop offset="0.39" stop-color="#F4836F"/>
<stop offset="0.52" stop-color="#EF4F80"/>
<stop offset="0.61" stop-color="#EC248F"/>
<stop offset="0.86" stop-color="#B24199"/>
<stop offset="1" stop-color="#96509E"/>
</linearGradient>
<linearGradient id="paint1_linear_4_866" x1="27.7254" y1="170.825" x2="94.5393" y2="104.333" gradientUnits="userSpaceOnUse">
<stop stop-color="#FDDB32"/>
<stop offset="0.07" stop-color="#FBCF35"/>
<stop offset="0.2" stop-color="#F9B140"/>
<stop offset="0.36" stop-color="#F47F50"/>
<stop offset="0.56" stop-color="#EF3C67"/>
<stop offset="0.65" stop-color="#EC1A73"/>
<stop offset="0.83" stop-color="#B53689"/>
<stop offset="1" stop-color="#8052A0"/>
</linearGradient>
<linearGradient id="paint2_linear_4_866" x1="100.169" y1="119.845" x2="31.6983" y2="-28.7381" gradientUnits="userSpaceOnUse">
<stop stop-color="#FDDB32"/>
<stop offset="0.07" stop-color="#FBCF35"/>
<stop offset="0.18" stop-color="#F9B140"/>
<stop offset="0.34" stop-color="#F47F50"/>
<stop offset="0.52" stop-color="#EF3C67"/>
<stop offset="0.61" stop-color="#EC1A73"/>
<stop offset="0.897276" stop-color="#B53689"/>
<stop offset="1" stop-color="#8052A0"/>
</linearGradient>
<linearGradient id="paint3_linear_4_866" x1="-2359.42" y1="-1327.8" x2="-2344.51" y2="-1209.35" gradientUnits="userSpaceOnUse">
<stop stop-color="#8052A0"/>
<stop offset="0.21" stop-color="#B53689"/>
<stop offset="0.43" stop-color="#EC1A73"/>
<stop offset="0.67" stop-color="#F37155"/>
<stop offset="0.9" stop-color="#FABD3B"/>
<stop offset="1" stop-color="#FDDB32"/>
</linearGradient>
<linearGradient id="paint4_linear_4_866" x1="183.346" y1="29.067" x2="134.009" y2="95.8218" gradientUnits="userSpaceOnUse">
<stop stop-color="#8052A0"/>
<stop offset="0.66" stop-color="#55A0D7"/>
<stop offset="1" stop-color="#85D3EB"/>
</linearGradient>
<linearGradient id="paint5_linear_4_866" x1="181.557" y1="28.6198" x2="116.944" y2="78.7083" gradientUnits="userSpaceOnUse">
<stop stop-color="#A4509E"/>
<stop offset="0.55" stop-color="#5EA6DB"/>
<stop offset="1" stop-color="#8FD5E1"/>
</linearGradient>
<linearGradient id="paint6_linear_4_866" x1="109.229" y1="89.8216" x2="-9.94551" y2="-31.2134" gradientUnits="userSpaceOnUse">
<stop stop-color="#FDE151"/>
<stop offset="0.06" stop-color="#FCDA53"/>
<stop offset="0.14" stop-color="#FAC858"/>
<stop offset="0.24" stop-color="#F8AB62"/>
<stop offset="0.34" stop-color="#F4836F"/>
<stop offset="0.45" stop-color="#EF4F80"/>
<stop offset="0.54" stop-color="#EC248F"/>
<stop offset="0.83" stop-color="#B24199"/>
<stop offset="1" stop-color="#96509E"/>
</linearGradient>
<linearGradient id="paint7_linear_4_866" x1="110.008" y1="80.4933" x2="205.258" y2="191.395" gradientUnits="userSpaceOnUse">
<stop stop-color="#A4509E"/>
<stop offset="0.55" stop-color="#5EA6DB"/>
<stop offset="1" stop-color="#8FD5E1"/>
</linearGradient>
<linearGradient id="paint8_linear_4_866" x1="110.008" y1="111.349" x2="206.599" y2="190.054" gradientUnits="userSpaceOnUse">
<stop stop-color="#8052A0"/>
<stop offset="0.66" stop-color="#55A0D7"/>
<stop offset="1" stop-color="#85D3EB"/>
</linearGradient>
<clipPath id="clip0_4_866">
<rect width="208.156" height="191.807" fill="white"/>
</clipPath>
</defs>
</svg>
