<svg width="21" height="18" viewBox="0 0 21 18" fill="none" xmlns="http://www.w3.org/2000/svg">
<g clip-path="url(#clip0_36_113)">
<path d="M20.9598 4.1565L13.594 10.47C12.7727 11.1722 11.66 11.5665 10.5 11.5665C9.33997 11.5665 8.2273 11.1722 7.406 10.47L0.04025 4.1565C0.028 4.275 0 4.38225 0 4.5V13.5C0.00138938 14.4942 0.462772 15.4473 1.28294 16.1503C2.10311 16.8533 3.2151 17.2488 4.375 17.25H16.625C17.7849 17.2488 18.8969 16.8533 19.7171 16.1503C20.5372 15.4473 20.9986 14.4942 21 13.5V4.5C21 4.38225 20.972 4.275 20.9598 4.1565Z" fill="#CACACA"/>
<path d="M12.3566 9.4095L20.3489 2.55825C19.9617 2.00799 19.4156 1.55253 18.7634 1.2358C18.1111 0.919067 17.3746 0.751755 16.6249 0.75H4.37488C3.6252 0.751755 2.88869 0.919067 2.2364 1.2358C1.58411 1.55253 1.03805 2.00799 0.650879 2.55825L8.64313 9.4095C9.13625 9.83048 9.80389 10.0669 10.4999 10.0669C11.1959 10.0669 11.8635 9.83048 12.3566 9.4095Z" fill="#CACACA"/>
</g>
<defs>
<clipPath id="clip0_36_113">
<rect width="21" height="18" fill="white"/>
</clipPath>
</defs>
</svg>
