<svg width="22" height="25" viewBox="0 0 22 25" fill="none" xmlns="http://www.w3.org/2000/svg">
<path d="M12.8251 12.7797C12.5505 13.0543 12.5505 13.4994 12.8251 13.774C13.2119 14.1609 13.4429 14.736 13.4429 15.3125C13.4429 16.5305 12.5029 17.4687 11.3335 17.4687C10.163 17.4687 9.22412 16.5293 9.22412 15.3125C9.22412 14.736 9.45507 14.1609 9.84193 13.774C10.1165 13.4994 10.1165 13.0543 9.84193 12.7797C9.56739 12.5051 9.12217 12.5051 8.84757 12.7797C8.1932 13.4341 7.81787 14.3572 7.81787 15.3125C7.81787 17.3143 9.39203 18.875 11.3335 18.875C13.276 18.875 14.8491 17.3131 14.8491 15.3125C14.8491 14.3572 14.4738 13.4341 13.8194 12.7797C13.5449 12.5051 13.0997 12.5051 12.8251 12.7797Z" fill="#9DB2CE"/>
<path d="M21.8804 8.23438C21.8804 7.31675 21.2914 6.53408 20.4716 6.24463C20.4733 6.20487 20.4741 6.16498 20.4741 6.125C20.4741 4.57419 19.2124 3.3125 17.6616 3.3125C17.5395 3.3125 17.4183 3.32028 17.2985 3.3357C16.8081 2.46945 15.8781 1.90625 14.8491 1.90625C14.6261 1.90625 14.4093 1.93311 14.2012 1.98242C13.5491 1.06588 12.4816 0.5 11.3335 0.5C10.1856 0.5 9.1179 1.06555 8.46578 1.98195C8.254 1.93194 8.03612 1.90625 7.81787 1.90625C6.78887 1.90625 5.85887 2.46945 5.36846 3.3357C5.2487 3.32028 5.12753 3.3125 5.00537 3.3125C3.45456 3.3125 2.19287 4.57419 2.19287 6.125C2.19287 6.16512 2.19371 6.20516 2.1954 6.24509C1.3757 6.53464 0.786621 7.3168 0.786621 8.23438C0.786621 9.05595 1.25907 9.76883 1.94626 10.1169C1.20325 11.6384 0.786621 13.2358 0.786621 14.6094C0.786621 16.7312 1.75993 18.6736 3.3662 20.1628L2.22896 23.5745C2.15753 23.7889 2.19343 24.0246 2.32562 24.208C2.45781 24.3913 2.67001 24.5 2.896 24.5H5.7085C5.89501 24.5 6.07384 24.4259 6.20565 24.294L7.87501 22.6247C8.959 22.9282 10.1226 23.0938 11.3335 23.0938C12.5444 23.0938 13.708 22.9282 14.792 22.6247L16.4613 24.294C16.5932 24.4259 16.772 24.5 16.9585 24.5H19.771C19.997 24.5 20.2093 24.3913 20.3414 24.208C20.4736 24.0247 20.5095 23.789 20.4381 23.5745L19.3008 20.1629C20.9071 18.6736 21.8804 16.7312 21.8804 14.6094C21.8804 13.2358 21.4637 11.6384 20.7207 10.1169C21.4079 9.76883 21.8804 9.05595 21.8804 8.23438ZM5.00537 4.71875C5.18457 4.71875 5.35886 4.7518 5.52325 4.817C5.70925 4.89073 5.91789 4.88173 6.0969 4.7922C6.27587 4.70267 6.40829 4.54114 6.46084 4.34802C6.62678 3.73831 7.18482 3.3125 7.81787 3.3125C8.04348 3.3125 8.25864 3.36406 8.45734 3.46583C8.62796 3.55316 8.82657 3.56708 9.00756 3.5045C9.18854 3.44192 9.3362 3.30819 9.41636 3.13423C9.76009 2.38827 10.5126 1.90625 11.3335 1.90625C11.9605 1.90625 12.5475 2.18773 12.943 2.65302C12.3862 3.16723 12.0366 3.90284 12.0366 4.71875C12.0366 5.10706 12.3514 5.42188 12.7397 5.42188C13.1281 5.42188 13.4429 5.10706 13.4429 4.71875C13.4429 3.94334 14.0737 3.3125 14.8491 3.3125C15.4822 3.3125 16.0402 3.73831 16.2062 4.34802C16.2587 4.54109 16.3911 4.70267 16.5701 4.7922C16.7491 4.88178 16.9577 4.89073 17.1437 4.817C17.3081 4.7518 17.4824 4.71875 17.6616 4.71875C18.437 4.71875 19.0679 5.34959 19.0679 6.125H3.59912C3.59912 5.34959 4.22996 4.71875 5.00537 4.71875ZM3.01103 7.53125C3.01271 7.53125 3.01436 7.53144 3.01604 7.53144C3.01759 7.53144 3.01914 7.53125 3.02068 7.53125H19.651C20.201 7.53125 20.4742 7.84888 20.4742 8.23438C20.4742 8.62208 20.1587 8.9375 19.771 8.9375H2.896C2.50829 8.9375 2.19287 8.62208 2.19287 8.23438C2.19287 7.48513 3.00634 7.53308 3.01103 7.53125ZM5.41726 23.0938H3.87156L4.53859 21.0927C5.11136 21.4818 5.73611 21.8227 6.40332 22.1077L5.41726 23.0938ZM18.7954 23.0938H17.2497L16.2637 22.1077C16.9308 21.8227 17.5556 21.4818 18.1284 21.0927L18.7954 23.0938ZM11.3335 21.6875C6.82586 21.6875 2.19287 18.8725 2.19287 14.6094C2.19287 13.3278 2.63345 11.7921 3.40965 10.3438H19.2574C20.0335 11.7921 20.4741 13.3278 20.4741 14.6094C20.4741 18.8103 15.9304 21.6875 11.3335 21.6875Z" fill="#9DB2CE"/>
</svg>
