<svg width="40" height="40" viewBox="0 0 40 40" fill="none" xmlns="http://www.w3.org/2000/svg">
<path d="M36.0823 11.388H22.5625C22.5625 11.388 20.6897 14.5867 20.6897 18.6809C20.6897 21.7282 22.7538 22.8076 23.8094 23.1604C24.1359 23.2695 24.4966 23.162 24.7046 22.8877C25.2834 22.1242 26.7545 20.6064 29.3223 20.5714C31.8901 20.6064 33.3613 22.1242 33.94 22.8877C34.148 23.162 34.5088 23.2695 34.8352 23.1604C35.8909 22.8077 37.9549 21.7283 37.9549 18.6809C37.955 14.5868 36.0823 11.388 36.0823 11.388Z" fill="#873F30"/>
<path d="M37.9548 18.6807C37.9548 21.7286 35.8905 22.8079 34.8353 23.1604C34.5085 23.2698 34.148 23.162 33.9403 22.8876C33.8019 22.7048 33.6119 22.4795 33.3689 22.2421C34.4675 21.8155 36.2583 20.6848 36.2583 17.8462C36.2583 15.0067 35.3576 12.5979 34.8055 11.3882H36.082C36.082 11.3882 37.9548 14.5866 37.9548 18.6807Z" fill="#6C3328"/>
<path d="M11.7969 3.07664C5.80885 3.07664 3.39111 6.00711 3.39111 9.83469C3.39111 12.8158 5.15705 14.1412 5.15705 14.1412H18.4367C18.4367 14.1412 20.2027 12.8158 20.2027 9.83469C20.2027 6.00711 17.7849 3.07664 11.7969 3.07664Z" fill="#873F30"/>
<path d="M23.5935 33.1218V39.084H0.78125C0.349766 39.084 0 38.7342 0 38.3027V33.1218C0 28.1737 3.57266 24.061 8.27844 23.2208C9.2 23.0558 9.88969 22.2831 9.96617 21.3512L10.1746 18.8135H13.4189L13.6273 21.3512C13.7038 22.2832 14.3944 23.0558 15.3151 23.2208C20.0209 24.061 23.5935 28.1737 23.5935 33.1218Z" fill="#7A6E79"/>
<path d="M23.5839 32.6775C22.2672 33.018 20.8958 32.3845 20.2922 31.1805C19.394 31.7005 18.3525 31.9991 17.2402 31.9991C16.1279 31.9991 15.0857 31.7005 14.1883 31.1805C13.5509 32.4514 12.0587 33.0864 10.6776 32.6123C10.4136 32.5214 10.1706 32.3959 9.95325 32.2421C9.83169 32.156 9.75685 32.0159 9.76333 31.867C9.77458 31.5966 9.8245 31.3238 9.91708 31.0549C10.2632 30.048 11.1107 29.3567 12.0845 29.1636C11.4833 28.2179 11.1332 27.096 11.1332 25.892C11.1332 23.8847 12.1022 22.1028 13.5975 20.9905L13.6273 21.3511C13.7038 22.2831 14.3943 23.0557 15.315 23.2207C19.8793 24.0361 23.377 27.9291 23.5839 32.6775Z" fill="#685E67"/>
<path d="M23.5935 33.1216V39.0837H21.1338V33.1216C21.1338 28.174 17.561 24.0612 12.8548 23.2206C11.9344 23.0562 11.2441 22.2833 11.1671 21.3507L10.9595 18.8139H13.4192L13.6278 21.3507C13.7038 22.2834 14.3942 23.0562 15.3155 23.2206C20.0208 24.0612 23.5935 28.174 23.5935 33.1216Z" fill="#685E67"/>
<path d="M16.5979 23.5381C15.6484 25.2062 13.8537 26.3313 11.7968 26.3313C9.73998 26.3313 7.94514 25.2062 6.99561 23.5381C7.41264 23.4057 7.84092 23.2986 8.27857 23.2207C9.1999 23.0563 9.88928 22.2834 9.96631 21.3508L10.1748 18.814H13.4188L13.6273 21.3508C13.7044 22.2834 14.3937 23.0563 15.3151 23.2207C15.7527 23.2986 16.181 23.4057 16.5979 23.5381Z" fill="#F89F8E"/>
<path d="M13.8478 22.1272C13.1857 22.2651 12.4992 22.3375 11.7967 22.3375C11.0942 22.3375 10.4077 22.2651 9.74561 22.1272C9.86678 21.8902 9.94373 21.6273 9.96654 21.3508L10.1745 18.8136H13.4187L13.6267 21.3508C13.6497 21.6273 13.7267 21.8902 13.8478 22.1272Z" fill="#EA806F"/>
<path d="M16.5983 23.5381C16.2912 24.0772 15.8968 24.5591 15.4328 24.9638C15.0561 24.8624 14.6729 24.776 14.2841 24.7065C13.0237 24.482 12.0798 23.4235 11.9747 22.1472L11.7004 18.814H13.4192L13.6277 21.3508C13.7047 22.2834 14.3941 23.0563 15.3154 23.2207C15.7531 23.2986 16.1813 23.4057 16.5983 23.5381Z" fill="#EA806F"/>
<path d="M4.16658 15.1605C5.33807 15.1605 6.28775 14.2109 6.28775 13.0394C6.28775 11.8679 5.33807 10.9182 4.16658 10.9182C2.99509 10.9182 2.04541 11.8679 2.04541 13.0394C2.04541 14.2109 2.99509 15.1605 4.16658 15.1605Z" fill="#EA806F"/>
<path d="M11.7966 20.8875C8.28584 20.8875 5.37014 18.1781 5.1128 14.6768L4.96678 12.6895C4.67514 8.72031 7.8167 5.33937 11.7965 5.33937C15.7764 5.33937 18.918 8.72031 18.6264 12.6895L18.4804 14.6768C18.2232 18.1781 15.3074 20.8875 11.7966 20.8875Z" fill="#FDB0A0"/>
<path d="M8.4139 13.973C8.08046 13.973 7.8103 13.7028 7.8103 13.3695V13.3582C7.8103 13.0248 8.08054 12.7546 8.4139 12.7546C8.74733 12.7546 9.01749 13.0248 9.01749 13.3582V13.3695C9.01757 13.7028 8.74733 13.973 8.4139 13.973Z" fill="#873F30"/>
<path d="M15.1798 13.973C14.8463 13.973 14.5762 13.7028 14.5762 13.3695V13.3582C14.5762 13.0248 14.8464 12.7546 15.1798 12.7546C15.5132 12.7546 15.7834 13.0248 15.7834 13.3582V13.3695C15.7834 13.7028 15.5131 13.973 15.1798 13.973Z" fill="#873F30"/>
<path d="M11.7965 17.6512C11.0036 17.6512 10.2566 17.3438 9.69301 16.7856C9.45614 16.551 9.45434 16.1688 9.68887 15.932C9.92356 15.6951 10.3057 15.6934 10.5425 15.9279C10.8786 16.2607 11.324 16.444 11.7965 16.444C12.2691 16.444 12.7146 16.2607 13.0506 15.9279C13.2874 15.6934 13.6697 15.6952 13.9043 15.932C14.1389 16.1689 14.137 16.5511 13.9001 16.7857C13.3365 17.3438 12.5894 17.6512 11.7965 17.6512Z" fill="#FC9AA1"/>
<path d="M4.58478 5.23758C4.58478 5.23758 4.06728 9.80883 11.6952 9.80883C19.1244 9.80883 20.4839 6.78313 20.1588 3.23461C20.1213 2.82531 19.7617 2.51961 19.3517 2.54828C18.6152 2.59984 17.3721 2.54656 15.9398 1.90656C13.2547 0.706797 6.16736 -0.466952 4.58478 5.23758Z" fill="#A34F41"/>
<path d="M11.6949 9.80914C9.24014 9.80914 7.62975 9.33594 6.57373 8.69281C7.40912 8.88758 8.41436 9.00266 9.62568 9.00266C16.9971 9.00266 18.3927 6.02398 18.0957 2.51172C18.5963 2.57289 19.0244 2.57047 19.352 2.54797C19.7617 2.51977 20.1215 2.82562 20.1584 3.23445C20.4836 6.78297 19.1243 9.80914 11.6949 9.80914Z" fill="#873F30"/>
<path d="M40 33.6876V38.3027C40 38.7342 39.6503 39.084 39.2188 39.084H18.6455V33.6876C18.6455 29.2095 21.8786 25.4864 26.1385 24.7258C26.9723 24.5769 27.596 23.8775 27.6653 23.0341L27.8544 20.7371H30.7912L30.9795 23.0341C31.0487 23.8775 31.6732 24.577 32.5071 24.7258C36.7662 25.4864 40 29.2095 40 33.6876Z" fill="#FB4A59"/>
<path d="M28.2317 31.867C28.2381 32.0159 28.1633 32.1559 28.0418 32.2421C27.8237 32.3959 27.5814 32.5214 27.3167 32.6123C25.9363 33.0864 24.4442 32.4514 23.8068 31.1805C22.9086 31.7005 21.8672 31.9991 20.7549 31.9991C20.0941 31.9991 19.4591 31.8936 18.8635 31.6988C19.6555 28.1423 22.5279 25.3705 26.1384 24.7258C26.3428 24.6895 26.5343 24.6203 26.7082 24.523C26.8088 24.9632 26.862 25.4212 26.862 25.892C26.862 27.0959 26.5119 28.2179 25.9106 29.1636C26.8845 29.3567 27.732 30.0481 28.0781 31.0549C28.1698 31.3238 28.2196 31.5966 28.2317 31.867Z" fill="#F82F40"/>
<path d="M39.9997 33.6873V38.3023C39.9997 38.7338 39.6499 39.0836 39.2184 39.0836H37.7734V33.6873C37.7734 29.2091 34.5397 25.4866 30.2799 24.7259C29.4469 24.5771 28.822 23.8775 28.7523 23.0334L28.5645 20.7373H30.7908L30.9795 23.0334C31.0484 23.8775 31.6732 24.5771 32.5071 24.7259C36.766 25.4867 39.9997 29.2092 39.9997 33.6873Z" fill="#F82F40"/>
<path d="M33.6681 25.0132C32.8087 26.523 31.1842 27.5413 29.3226 27.5413C27.461 27.5413 25.8364 26.523 24.9771 25.0132C25.3545 24.8934 25.7421 24.7964 26.1382 24.7259C26.9721 24.5771 27.5961 23.8775 27.6658 23.0334L27.8546 20.7373H30.7907L30.9795 23.0334C31.0492 23.8775 31.6731 24.5771 32.5071 24.7259C32.9031 24.7965 33.2906 24.8934 33.6681 25.0132Z" fill="#FDB0A0"/>
<path d="M31.179 23.7362C30.5797 23.861 29.9584 23.9265 29.3225 23.9265C28.6867 23.9265 28.0654 23.8609 27.4661 23.7362C27.5757 23.5217 27.6454 23.2837 27.6661 23.0334L27.8543 20.737H30.7908L30.979 23.0334C30.9997 23.2838 31.0693 23.5217 31.179 23.7362Z" fill="#F89F8E"/>
<path d="M33.6684 25.0132C33.3904 25.5012 33.0334 25.9373 32.6135 26.3036C32.2726 26.2118 31.9257 26.1336 31.5739 26.0707C30.4331 25.8675 29.5787 24.9095 29.4836 23.7542L29.2354 20.7373H30.791L30.9797 23.0334C31.0494 23.8775 31.6734 24.5771 32.5073 24.7259C32.9033 24.7965 33.291 24.8934 33.6684 25.0132Z" fill="#F89F8E"/>
<path d="M35.8338 17.0677C37.0053 17.0677 37.955 16.118 37.955 14.9465C37.955 13.775 37.0053 12.8253 35.8338 12.8253C34.6623 12.8253 33.7126 13.775 33.7126 14.9465C33.7126 16.118 34.6623 17.0677 35.8338 17.0677Z" fill="#FDB0A0"/>
<path d="M29.3225 22.6141C26.1448 22.6141 23.5058 20.1619 23.273 16.9928L23.1408 15.1941C22.8768 11.6016 25.7203 8.54148 29.3225 8.54148C32.9247 8.54148 35.7682 11.6016 35.5042 15.1941L35.372 16.9928C35.1392 20.1619 32.5002 22.6141 29.3225 22.6141Z" fill="#FFCEC0"/>
<path d="M26.2606 16.896C25.9271 16.896 25.657 16.6258 25.657 16.2924V16.2823C25.657 15.9489 25.9272 15.6787 26.2606 15.6787C26.5939 15.6787 26.8642 15.9489 26.8642 16.2823V16.2924C26.8642 16.6257 26.5939 16.896 26.2606 16.896Z" fill="#873F30"/>
<path d="M32.3844 16.896C32.0509 16.896 31.7808 16.6258 31.7808 16.2924V16.2823C31.7808 15.9489 32.051 15.6787 32.3844 15.6787C32.7177 15.6787 32.9879 15.9489 32.9879 16.2823V16.2924C32.9879 16.6257 32.7178 16.896 32.3844 16.896Z" fill="#873F30"/>
<path d="M29.3225 20.2251C28.5898 20.2251 27.8993 19.9409 27.3783 19.4251C27.1415 19.1905 27.1396 18.8083 27.3742 18.5714C27.6088 18.3345 27.991 18.3327 28.2279 18.5673C28.5213 18.8578 28.91 19.0178 29.3226 19.0178C29.7351 19.0178 30.124 18.8578 30.4173 18.5673C30.6541 18.3327 31.0364 18.3345 31.271 18.5714C31.5056 18.8083 31.5037 19.1905 31.2669 19.4251C30.7458 19.9409 30.0553 20.2251 29.3225 20.2251Z" fill="#FC9AA1"/>
<path d="M33.9574 7.96437C33.9574 7.96437 37.0713 8.93602 36.7604 13.1162C36.7323 13.4947 36.4478 13.8023 36.0725 13.8587C35.0621 14.0109 33.0571 14.0071 31.8716 11.957L33.9574 7.96437Z" fill="#A34F41"/>
<path d="M33.9575 7.96437C33.912 10.4607 32.1737 12.8736 29.4556 13.8629C26.8719 14.8033 24.1395 14.1893 22.4676 12.5091C22.3032 12.3439 22.2141 12.1158 22.2333 11.8836C22.4284 9.5168 24.1285 7.28273 26.7177 6.34039C29.4356 5.35101 32.3183 6.08203 33.9575 7.96437Z" fill="#A34F41"/>
<path d="M33.9573 7.96445C33.9122 10.461 32.1738 12.8739 29.4551 13.863C27.1919 14.6864 24.8153 14.3178 23.1372 13.0848C24.8 13.6691 26.7742 13.566 28.5658 12.647C30.9884 11.4035 32.392 9.01719 32.3252 6.67031C32.9456 7.00344 33.5002 7.4389 33.9573 7.96445Z" fill="#873F30"/>
<path d="M5.80443 32.4433V39.0839H4.59717V32.4433C4.59717 32.1101 4.86678 31.8397 5.20076 31.8397C5.53396 31.8397 5.80443 32.1101 5.80443 32.4433Z" fill="#554E55"/>
<path d="M35.4028 32.4433V39.0839H34.1956V32.4433C34.1956 32.1101 34.466 31.8397 34.7991 31.8397C35.1332 31.8397 35.4028 32.1101 35.4028 32.4433Z" fill="#F82F40"/>
</svg>
