<svg width="14" height="13" viewBox="0 0 14 13" fill="none" xmlns="http://www.w3.org/2000/svg">
<path d="M12.0347 5.90241H8.00685V1.87455C8.00685 1.31869 7.55673 0.867554 6.99986 0.867554C6.44299 0.867554 5.99287 1.31869 5.99287 1.87455V5.90241H1.965C1.40813 5.90241 0.958008 6.35355 0.958008 6.90941C0.958008 7.46526 1.40813 7.9164 1.965 7.9164H5.99287V11.9443C5.99287 12.5001 6.44299 12.9513 6.99986 12.9513C7.55673 12.9513 8.00685 12.5001 8.00685 11.9443V7.9164H12.0347C12.5916 7.9164 13.0417 7.46526 13.0417 6.90941C13.0417 6.35355 12.5916 5.90241 12.0347 5.90241Z" fill="#B2B2B2"/>
</svg>
