<svg width="54" height="53" viewBox="0 0 54 53" fill="none" xmlns="http://www.w3.org/2000/svg">
<path d="M27.187 0.285076C12.6768 0.285076 0.911133 12.0489 0.911133 26.5609C0.911133 41.073 12.6756 52.8368 27.187 52.8368C41.6995 52.8368 53.4629 41.073 53.4629 26.5609C53.4629 12.0489 41.6995 0.285076 27.187 0.285076ZM27.187 8.14187C31.9883 8.14187 35.8791 12.0339 35.8791 16.8332C35.8791 21.6336 31.9883 25.5245 27.187 25.5245C22.388 25.5245 18.4972 21.6336 18.4972 16.8332C18.4972 12.0339 22.388 8.14187 27.187 8.14187ZM27.1812 45.9669C22.3926 45.9669 18.0067 44.2228 14.6238 41.3361C13.7998 40.6332 13.3242 39.6025 13.3242 38.521C13.3242 33.6536 17.2634 29.7581 22.1317 29.7581H32.2446C37.114 29.7581 41.0382 33.6536 41.0382 38.521C41.0382 39.6036 40.565 40.6321 39.7398 41.335C36.358 44.2228 31.971 45.9669 27.1812 45.9669Z" fill="#0C1927"/>
</svg>
