<svg width="25" height="25" viewBox="0 0 25 25" fill="none" xmlns="http://www.w3.org/2000/svg">
<path d="M8.65075 20.9844C8.65075 22.9229 10.2279 24.5 12.1664 24.5C14.1049 24.5 15.682 22.9229 15.682 20.9844V18.0781C15.682 16.4824 16.3526 14.9236 17.5218 13.8014C18.4135 12.9457 19.0941 11.8797 19.4902 10.7188C19.9121 9.482 20.0105 8.18666 19.7825 6.86881C19.483 5.1373 18.5759 3.54153 17.2283 2.37552C15.8305 1.16609 14.0328 0.500047 12.1664 0.5C10.3067 0.5 8.5127 1.16347 7.1148 2.3682C5.76123 3.53473 4.85045 5.13308 4.55022 6.86881C4.32226 8.1867 4.42061 9.48205 4.84253 10.7188C5.23858 11.8797 5.9192 12.9456 6.81086 13.8014C7.98011 14.9236 8.65075 16.482 8.65075 18.0771V20.9844ZM7.78464 12.7868C6.24165 11.306 5.56783 9.23628 5.93589 7.10848C6.45733 4.09414 9.07759 1.9063 12.1664 1.90625C15.2552 1.90625 17.8754 4.09414 18.3969 7.10848C18.7649 9.23633 18.0911 11.306 16.5481 12.7868C15.276 14.0078 14.4818 15.6498 14.3107 17.3749L10.0222 17.3741C9.85098 15.6496 9.05678 14.0078 7.78464 12.7868ZM14.2757 18.7811V20.9844C14.2757 22.1475 13.3295 23.0938 12.1664 23.0938C11.0033 23.0938 10.057 22.1475 10.057 20.9844V18.7804L14.2757 18.7811Z" fill="#9DB2CE"/>
<path d="M11.4634 6.82812C11.4634 6.44042 11.7788 6.125 12.1665 6.125C12.5542 6.125 12.8696 6.44042 12.8696 6.82812C12.8696 7.05411 12.765 7.26073 12.5825 7.39508C11.8817 7.91103 11.4634 8.73809 11.4634 9.60744V10.3438H12.8696V9.60744C12.8696 9.18327 13.074 8.77953 13.4163 8.52748C13.9546 8.1312 14.2759 7.49591 14.2759 6.82812C14.2759 5.66502 13.3296 4.71875 12.1665 4.71875C11.0034 4.71875 10.0571 5.66502 10.0571 6.82812V7.53125H11.4634V6.82812Z" fill="#9DB2CE"/>
<path d="M0.906738 3.59424L1.90096 2.60002L3.97089 4.66995L2.97667 5.66417L0.906738 3.59424Z" fill="#9DB2CE"/>
<path d="M0.166504 7.53125H3.0286V8.9375H0.166504V7.53125Z" fill="#9DB2CE"/>
<path d="M0.921875 12.8574L2.99031 10.789L3.98453 11.7832L1.91609 13.8516L0.921875 12.8574Z" fill="#9DB2CE"/>
<path d="M20.3589 4.67188L22.4288 2.60198L23.423 3.5962L21.3531 5.66609L20.3589 4.67188Z" fill="#9DB2CE"/>
<path d="M21.3042 7.53125H24.1663V8.9375H21.3042V7.53125Z" fill="#9DB2CE"/>
<path d="M20.3438 11.7856L21.338 10.7914L23.4064 12.8599L22.4122 13.8541L20.3438 11.7856Z" fill="#9DB2CE"/>
<path d="M11.4634 11.75H12.8696V13.1562H11.4634V11.75Z" fill="#9DB2CE"/>
</svg>
