<svg width="349" height="365" viewBox="0 0 349 365" fill="none" xmlns="http://www.w3.org/2000/svg">
<path d="M347.59 263.712C337.005 239.586 318.061 222.869 287.328 226.665L280.247 217.065C280.247 217.065 274.042 232.578 234.549 247.068L241.703 260.719C241.703 260.719 225.935 284.627 254.04 315.652C290.358 355.692 347.663 356.422 347.663 356.422L347.59 263.712Z" fill="#F15F7B"/>
<path d="M280.247 217.066L287.328 226.665C290.139 226.3 292.986 226.118 295.833 226.118C321.638 226.118 338.063 241.849 347.626 263.713L347.699 356.423C347.699 356.423 290.394 355.693 254.077 315.652C225.972 284.627 241.74 260.72 241.74 260.72L234.586 247.069C274.042 232.578 280.247 217.066 280.247 217.066ZM279.992 214.839L279.262 216.664C279.225 216.737 277.583 220.533 271.305 226.008C265.465 231.082 254.259 238.71 234.184 246.083L233.016 246.521L233.6 247.616L240.462 260.72C239.44 262.472 236.63 268.129 236.265 276.561C236.046 282.656 237.068 288.715 239.258 294.409C242.032 301.855 246.74 309.265 253.274 316.419C261.632 325.653 271.816 333.537 283.496 339.888C293.241 345.108 303.534 349.232 314.192 352.116C332.99 357.299 347.517 357.518 347.663 357.518H348.758V356.423L348.685 263.713V263.494L348.575 263.275C343.465 251.485 336.676 242.251 328.464 235.863C319.266 228.673 308.279 225.023 295.796 225.023C293.132 225.023 290.467 225.169 287.803 225.497L281.123 216.409L279.992 214.839Z" fill="#1D1D1B"/>
<path d="M266.815 344.889C248.565 337.844 237.505 322.441 231.483 310.725C227.541 303.169 224.584 295.103 222.65 286.817L223.708 286.598C225.606 294.811 228.563 302.768 232.432 310.25C238.381 321.784 249.222 336.968 267.18 343.867L266.815 344.889Z" fill="#1D1D1B"/>
<path d="M280.247 217.065C280.247 217.065 274.042 232.578 234.549 247.068L241.703 260.719C241.703 260.719 285.029 256.339 287.328 226.665L280.247 217.065Z" fill="#13283E"/>
<path d="M335.07 283.24C338.739 283.24 341.713 280.266 341.713 276.597C341.713 272.928 338.739 269.954 335.07 269.954C331.401 269.954 328.427 272.928 328.427 276.597C328.427 280.266 331.401 283.24 335.07 283.24Z" fill="white"/>
<path d="M326.602 331.383C330.271 331.383 333.245 328.409 333.245 324.74C333.245 321.071 330.271 318.097 326.602 318.097C322.933 318.097 319.959 321.071 319.959 324.74C319.959 328.409 322.933 331.383 326.602 331.383Z" fill="white"/>
<path d="M264.516 292.255C268.185 292.255 271.159 289.281 271.159 285.612C271.159 281.944 268.185 278.969 264.516 278.969C260.847 278.969 257.873 281.944 257.873 285.612C257.873 289.281 260.847 292.255 264.516 292.255Z" fill="white"/>
<path d="M164.579 211.006C164.579 211.006 168.703 256.376 236.228 246.448C236.228 246.448 272.546 239.476 280.284 217.065L278.167 213.05C278.167 213.05 293.533 187.646 281.525 174.47C281.525 174.47 262.508 177.244 253.675 205.385C253.675 205.385 229.33 182.317 199.619 197.83C199.619 197.83 183.778 196.881 182.318 205.86C182.354 205.823 172.937 201.553 164.579 211.006Z" fill="#FFCDB2"/>
<path d="M170.09 206.59C173.886 204.583 178.339 204.291 182.354 205.824C182.792 203.086 184.617 201.261 186.917 200.056C192.063 197.355 199.655 197.794 199.655 197.794C229.403 182.245 253.712 205.349 253.712 205.349C259.187 187.865 268.604 180.164 274.955 176.843C278.824 174.835 281.525 174.434 281.525 174.434C293.533 187.61 278.167 213.014 278.167 213.014L280.284 217.029C276.926 226.775 268.239 233.564 259.406 238.199C247.908 244.222 236.228 246.448 236.228 246.448C168.74 256.413 164.579 211.007 164.579 211.007C166.148 209.218 168.01 207.722 170.09 206.59ZM168.959 204.4C166.586 205.678 164.506 207.356 162.754 209.364C162.316 209.875 162.097 210.532 162.17 211.189C162.243 211.846 163.776 227.213 178.23 238.601C191.625 249.113 211.262 252.58 236.593 248.857H236.703C244.988 247.105 253.018 244.222 260.537 240.389C272.108 234.33 279.517 226.775 282.583 217.869C282.802 217.248 282.729 216.518 282.437 215.934L280.977 213.087C284.007 207.612 294.993 185.566 283.35 172.791C282.802 172.207 281.999 171.915 281.196 172.024C281.087 172.024 278.021 172.499 273.823 174.689C267.144 178.157 258.274 185.566 252.544 201.225C248.31 198.049 243.638 195.458 238.71 193.523C229.403 189.873 215.022 187.282 199.071 195.385C196.954 195.348 190.53 195.421 185.749 197.94C183.413 199.144 181.734 200.823 180.748 202.867C176.733 201.955 172.572 202.539 168.959 204.4Z" fill="black"/>
<path d="M256.96 221.409L256.887 221.446C256.266 221.738 255.536 221.445 255.281 220.825C255.208 220.679 253.821 217.832 249.441 216.554C244.696 215.167 235.753 215.533 220.204 225.278C219.803 225.534 219.328 225.534 218.927 225.278C218.708 225.169 197.939 212.685 181.916 206.991C181.295 206.772 180.93 206.079 181.186 205.422C181.405 204.801 182.098 204.436 182.755 204.692C197.392 209.875 215.897 220.643 219.547 222.796C232.432 214.839 242.761 211.992 250.244 214.255C255.646 215.897 257.434 219.657 257.507 219.839C257.763 220.387 257.544 221.117 256.96 221.409Z" fill="black"/>
<path d="M232.468 211.7C232.03 211.919 231.483 211.882 231.118 211.554C231.008 211.444 219.949 202.173 198.998 198.231C198.341 198.122 197.903 197.465 198.012 196.808C198.122 196.151 198.779 195.713 199.436 195.822C221.08 199.91 232.213 209.291 232.687 209.692C233.198 210.13 233.271 210.897 232.833 211.408C232.724 211.517 232.614 211.627 232.468 211.7Z" fill="black"/>
<path d="M232.286 241.922C232.213 241.959 232.104 241.995 232.031 242.032C206.955 249.916 183.23 234.038 182.208 233.345C181.478 232.797 181.332 231.775 181.88 231.045C182.391 230.352 183.303 230.169 184.033 230.644C184.252 230.79 207.503 246.302 231.045 238.893C231.921 238.637 232.834 239.112 233.089 239.951C233.308 240.754 232.98 241.557 232.286 241.922Z" fill="white"/>
<path d="M97.7471 131.108C96.7981 129.064 94.9366 127.567 92.7101 127.056C90.4836 126.509 88.1476 126.764 86.1036 127.786C82.0521 129.757 80.0081 132.677 80.0081 136.473L82.1251 172.572L76.6866 162.023C74.4236 157.643 72.1606 153.446 70.0436 149.613C67.7441 145.489 65.5906 143.043 63.4736 142.058C61.2836 141.072 58.9476 141.145 56.5386 142.313C51.7936 144.613 49.4576 148.993 49.6766 155.307C49.7861 163.593 49.7496 173.63 49.6036 185.201L46.3551 178.558L41.4641 167.535C38.9091 161.622 36.7556 158.045 34.821 156.585C32.704 154.979 29.9665 154.979 26.718 156.548C24.3455 157.68 22.4475 159.578 21.3525 161.987C20.2575 164.25 19.9655 166.805 20.586 169.25C21.17 171.44 22.3015 174.287 23.9805 177.718C33.0325 196.333 38.8361 207.393 41.7196 211.481C44.6031 215.569 47.4136 218.489 49.9686 220.131C52.7791 221.883 55.1516 222.321 57.0496 221.409C59.8601 220.022 61.7581 217.394 62.6341 213.489C63.4736 209.839 64.0211 201.699 64.2766 188.596C64.3861 183.12 64.4956 178.85 64.6051 175.784C71.5036 190.347 76.5406 198.998 79.9716 202.174C83.9501 205.86 87.7096 206.882 91.1041 205.239C93.9146 203.925 96.1046 201.553 97.1996 198.633C98.2216 195.896 98.9881 192.318 99.4626 188.011C99.9736 183.704 99.9736 174.725 99.4626 160.636C98.9881 146.803 98.7326 138.7 98.7326 136.546C98.6961 134.174 98.4041 132.385 97.7471 131.108Z" fill="#13283E"/>
<path d="M54.9324 222.395C53.3629 222.395 51.6109 221.774 49.6399 220.57C47.0119 218.927 44.1649 215.934 41.2449 211.773C38.3614 207.649 32.5214 196.589 23.4329 177.938C21.7174 174.47 20.5859 171.55 20.0019 169.36C19.3449 166.805 19.6369 164.104 20.8049 161.732C21.9364 159.25 23.9439 157.206 26.4259 156.038C29.9299 154.395 32.8499 154.395 35.1494 156.147C37.1569 157.644 39.3834 161.294 41.9749 167.316L46.9024 178.303L49.1289 182.865C49.2749 172.244 49.2749 162.973 49.1654 155.308C48.9829 148.774 51.3919 144.212 56.3559 141.803C58.9109 140.562 61.3929 140.452 63.7654 141.511C65.9919 142.533 68.2184 145.051 70.5909 149.285C72.7444 153.118 74.9709 157.315 77.2704 161.732L81.5044 169.981L79.5699 136.474C79.5699 132.422 81.7234 129.356 85.9574 127.276C88.1109 126.181 90.5929 125.925 92.9289 126.509C95.3014 127.057 97.3089 128.663 98.3309 130.853C98.9879 132.24 99.3164 134.101 99.3164 136.547C99.3164 138.7 99.5719 146.767 100.046 160.6C100.557 174.726 100.521 183.705 100.046 188.048C99.5719 192.428 98.7689 196.005 97.7469 198.779C96.6154 201.845 94.3524 204.327 91.3959 205.678C87.7459 207.43 83.8039 206.408 79.6429 202.539C76.3214 199.473 71.5764 191.443 65.1159 178.011C65.0064 180.785 64.9334 184.325 64.8604 188.559C64.6049 201.699 64.0574 209.875 63.2179 213.562C62.2689 217.613 60.2979 220.387 57.3414 221.847C56.5384 222.212 55.7354 222.395 54.9324 222.395ZM31.1344 155.928C29.6744 155.965 28.2509 156.366 26.9369 157.06C24.6739 158.118 22.8854 159.943 21.8269 162.206C20.7684 164.323 20.5129 166.769 21.0969 169.068C21.6444 171.222 22.7759 174.032 24.4184 177.463C33.4704 196.078 39.2739 207.101 42.1209 211.153C44.9679 215.204 47.7054 218.088 50.2239 219.657C52.8519 221.3 55.0784 221.738 56.7574 220.935C59.4219 219.657 61.2104 217.102 62.0499 213.379C62.8894 209.766 63.4004 201.663 63.6559 188.632C63.7654 183.194 63.8749 178.85 63.9844 175.821L64.0939 173.594L65.0429 175.602C71.9049 190.129 76.8689 198.67 80.2634 201.809C84.0594 205.313 87.5999 206.335 90.7754 204.765C93.4764 203.524 95.5569 201.261 96.5789 198.451C97.5644 195.75 98.3309 192.209 98.8054 187.939C99.3164 183.668 99.3164 174.689 98.8054 160.637C98.3309 146.803 98.0754 138.7 98.0754 136.547C98.0754 134.247 97.7834 132.532 97.1994 131.327C96.3234 129.429 94.5714 128.042 92.5274 127.568C90.4469 127.02 88.2204 127.276 86.2859 128.261C82.4534 130.123 80.5189 132.86 80.5189 136.437L82.7819 175.091L76.1754 162.206C73.9124 157.826 71.6494 153.665 69.5324 149.796C67.3059 145.781 65.2254 143.409 63.2179 142.496C61.2104 141.584 59.0204 141.657 56.7574 142.752C52.2314 144.942 50.0049 149.176 50.1874 155.235C50.2969 163.52 50.2604 173.558 50.1144 185.165L50.0779 187.464L45.8439 178.741L40.8799 167.718C38.3614 161.878 36.2444 158.374 34.4194 156.987C33.5434 156.293 32.3389 155.892 31.1344 155.928Z" fill="#1D1E1B"/>
<path d="M149.577 110.157C149.066 108.587 148.153 107.529 146.839 106.945C145.525 106.361 144.065 106.47 142.532 107.237C141.109 107.93 139.941 109.062 139.247 110.485C138.481 111.909 138.335 113.588 138.809 115.157L154.212 165.856C154.723 167.571 155.672 168.703 157.096 169.25C158.519 169.798 159.943 169.688 161.439 168.958C164.907 167.279 165.929 163.848 164.396 158.848L149.577 110.157Z" fill="#13283E"/>
<path d="M158.884 170.163C158.191 170.163 157.534 170.053 156.914 169.798C155.344 169.177 154.286 167.936 153.738 166.038L138.299 115.34C137.751 113.661 137.934 111.836 138.773 110.266C139.54 108.733 140.781 107.529 142.314 106.762C144.029 105.923 145.635 105.85 147.095 106.47C148.555 107.091 149.577 108.295 150.124 110.011L164.944 158.702C166.55 163.994 165.491 167.644 161.695 169.469C160.819 169.907 159.87 170.126 158.884 170.163ZM145.088 107.164C144.285 107.164 143.482 107.383 142.752 107.748C141.438 108.405 140.379 109.463 139.722 110.777C139.028 112.091 138.883 113.624 139.321 115.011L154.76 165.71C155.235 167.243 156.074 168.265 157.315 168.776C158.556 169.287 159.87 169.177 161.221 168.484C164.469 166.914 165.345 163.812 163.885 159.03L149.066 110.339C148.628 108.952 147.788 107.967 146.657 107.456C146.146 107.273 145.635 107.164 145.088 107.164Z" fill="#1D1E1B"/>
<path d="M185.53 111.763C181.734 111.873 178.522 112.566 175.93 113.807C170.82 116.289 167.28 121.691 165.418 129.867C163.593 137.97 163.958 144.759 166.55 150.088C168.557 154.249 171.733 156.913 175.967 158.008C180.201 159.103 184.727 158.483 189.545 156.147C191.954 154.979 194.728 152.533 197.976 148.701C201.371 144.722 202.466 141.656 201.371 139.357C200.823 138.189 199.838 137.313 198.633 136.875C197.356 136.4 195.969 136.473 194.764 137.094C194.29 137.313 193.45 138.006 190.822 141.255C189.107 143.481 187.537 144.941 186.077 145.635C183.741 146.766 181.661 147.131 179.872 146.693C178.193 146.292 176.77 145.124 176.076 143.554C174.945 141.218 174.799 137.568 175.638 132.677C176.697 126.728 178.193 124.83 179.288 124.319C181.843 123.078 183.924 122.677 185.457 123.078C187.282 123.589 188.815 123.552 189.983 122.968C191.516 122.238 192.647 120.924 193.158 119.318C193.742 117.639 193.706 116.07 193.012 114.719C192.063 112.639 189.545 111.654 185.53 111.763Z" fill="#13283E"/>
<path d="M180.091 159.067C178.667 159.067 177.207 158.885 175.82 158.52C171.44 157.352 168.155 154.578 166.038 150.307C163.41 144.869 163.009 137.97 164.87 129.721C166.768 121.399 170.382 115.851 175.674 113.296C178.339 111.982 181.66 111.289 185.493 111.179C189.727 111.07 192.428 112.165 193.523 114.428C194.253 115.924 194.326 117.64 193.669 119.465C193.121 121.217 191.844 122.64 190.201 123.443C188.887 124.064 187.245 124.137 185.31 123.589C183.923 123.188 181.952 123.589 179.507 124.794C178.704 125.195 177.207 126.728 176.149 132.787C175.309 137.532 175.419 141.109 176.514 143.336C177.171 144.759 178.412 145.818 179.945 146.183C181.587 146.584 183.558 146.256 185.785 145.161C187.135 144.504 188.668 143.08 190.311 140.927C192.975 137.605 193.851 136.912 194.435 136.62C195.786 135.926 197.319 135.853 198.742 136.401C200.093 136.875 201.188 137.861 201.772 139.138C203.013 141.657 201.881 144.905 198.304 149.066C195.019 152.935 192.172 155.417 189.69 156.622C186.405 158.264 183.157 159.067 180.091 159.067ZM185.566 112.311C181.879 112.42 178.704 113.077 176.185 114.318C171.221 116.727 167.79 122.02 165.965 130.013C164.14 138.007 164.505 144.65 167.06 149.869C168.995 153.884 172.061 156.439 176.112 157.498C180.164 158.556 184.617 157.936 189.325 155.673C191.698 154.541 194.399 152.132 197.574 148.373C200.75 144.613 201.881 141.693 200.896 139.613C200.385 138.591 199.509 137.788 198.45 137.423C197.319 136.985 196.078 137.058 195.019 137.605C194.435 137.897 193.194 139.211 191.26 141.584C189.508 143.883 187.865 145.416 186.332 146.146C183.85 147.351 181.66 147.716 179.762 147.241C177.901 146.803 176.368 145.526 175.601 143.81C174.397 141.365 174.251 137.605 175.127 132.605C176.003 127.604 177.317 124.684 179.069 123.845C181.77 122.531 183.96 122.129 185.639 122.567C187.318 123.005 188.705 123.005 189.763 122.494C191.15 121.837 192.209 120.633 192.683 119.136C193.231 117.603 193.158 116.18 192.574 114.939C191.698 113.114 189.325 112.238 185.566 112.311Z" fill="#1D1E1B"/>
<path d="M225.095 95.995C221.555 94.4255 217.795 94.5715 213.89 96.4695C207.247 99.6815 203.013 104.937 201.224 112.018C199.436 119.099 200.02 125.596 202.83 131.363C204.874 135.561 207.904 138.408 211.882 139.904C215.861 141.401 220.022 141.109 224.219 139.065C230.205 136.145 234.038 131.181 235.607 124.283C237.177 117.421 236.483 110.887 233.527 104.792C231.41 100.521 228.599 97.5645 225.095 95.995ZM227.577 118.406C226.738 122.019 224.73 124.611 221.628 126.144C219.438 127.203 217.284 127.348 215.204 126.582C213.123 125.815 211.554 124.319 210.495 122.129C209.035 119.1 208.743 115.705 209.656 112.018C210.495 108.441 212.904 105.449 216.262 103.879C218.306 102.894 220.277 102.82 222.102 103.623C223.927 104.426 225.387 105.996 226.482 108.223C228.015 111.362 228.417 114.975 227.577 118.406Z" fill="#13283E"/>
<path d="M216.956 141.438C215.168 141.438 213.379 141.109 211.7 140.489C207.612 138.956 204.473 135.999 202.356 131.692C199.473 125.779 198.925 119.136 200.714 111.946C202.539 104.682 206.882 99.3165 213.671 96.0315C217.723 94.0605 221.665 93.878 225.351 95.557C228.965 97.163 231.885 100.229 234.038 104.646C237.068 110.851 237.761 117.53 236.191 124.502C234.585 131.583 230.643 136.693 224.511 139.686C222.139 140.781 219.584 141.401 216.956 141.438ZM220.131 95.484C218.051 95.5205 215.97 96.0315 214.109 96.9805C207.648 100.12 203.488 105.23 201.736 112.165C199.984 119.1 200.531 125.487 203.305 131.145C205.276 135.196 208.233 137.97 212.029 139.394C215.825 140.817 219.876 140.525 223.928 138.554C229.768 135.707 233.491 130.853 235.024 124.137C236.557 117.421 235.863 110.997 232.98 105.011C230.936 100.85 228.235 97.966 224.84 96.4695C223.38 95.849 221.774 95.484 220.131 95.484ZM217.869 127.604C216.883 127.604 215.934 127.422 215.021 127.093C212.831 126.254 211.116 124.684 209.984 122.348C208.451 119.209 208.16 115.669 209.109 111.873C209.985 108.113 212.503 105.011 216.007 103.368C218.197 102.31 220.314 102.237 222.321 103.113C224.256 103.989 225.826 105.631 226.994 107.967C228.6 111.252 229.001 114.975 228.125 118.516C227.249 122.312 225.169 125.013 221.884 126.619C220.643 127.239 219.256 127.568 217.869 127.604ZM219.511 103.624C218.453 103.624 217.43 103.916 216.481 104.39C213.269 105.85 210.97 108.734 210.167 112.165C209.291 115.705 209.547 118.99 210.97 121.91C211.956 123.954 213.452 125.378 215.386 126.108C217.321 126.838 219.328 126.692 221.409 125.706C224.365 124.246 226.263 121.801 227.066 118.333C227.869 115.048 227.505 111.581 226.008 108.515C224.986 106.398 223.599 104.938 221.884 104.171C221.154 103.806 220.351 103.624 219.511 103.624Z" fill="#1D1E1B"/>
<path d="M270.027 68.547C266.267 70.3355 263.201 73.2555 261.267 76.942C258.748 75.1535 255.719 75.0805 252.251 76.7595C249.441 78.11 247.032 81.2125 245.024 85.994C244.951 85.4465 244.805 84.899 244.586 84.388C243.966 83.147 242.871 82.198 241.557 81.76C240.17 81.249 238.637 81.322 237.323 81.979C235.607 82.8185 234.585 84.6435 234.22 87.4175C233.892 90.0455 234.403 93.148 235.717 96.652C236.52 98.8055 237.432 101.616 238.491 105.011L242.652 118.515C243.017 119.903 243.528 121.216 244.112 122.53C246.083 126.582 248.82 126.29 250.791 125.341C252.251 124.684 253.492 123.552 254.332 122.166C255.135 120.888 255.281 119.318 254.77 117.895L250.025 100.959C251.412 96.068 253.091 92.1625 254.952 89.352C255.281 90.1185 255.573 90.9215 255.792 91.7245C256.522 94.0605 258.055 98.112 260.427 103.66C262.106 107.602 263.274 110.486 263.895 112.274L265.282 116.326L265.318 116.398C265.866 117.566 266.924 118.479 268.165 118.844C269.516 119.282 270.976 119.136 272.217 118.479C273.458 117.858 274.48 116.873 275.173 115.668C275.867 114.427 276.159 113.004 276.013 111.581C275.867 110.194 274.297 105.996 271.158 98.769C268.786 93.513 267.253 89.7535 266.632 87.6365C267.508 86.14 268.494 84.7165 269.552 83.3295C271.633 80.5555 272.253 80.008 272.436 79.8985C272.582 79.935 273.567 80.373 275.83 85.0085L283.824 103.441C284.992 105.813 286.087 107.237 287.255 107.784C288.423 108.332 289.883 108.222 291.562 107.419C292.985 106.726 294.117 105.558 294.847 104.134C295.686 102.565 295.723 100.813 294.956 98.915C294.263 97.1995 293.095 94.5715 291.489 91.104C288.496 84.6435 286.89 81.176 286.707 80.7745C285.685 78.2925 284.773 76.285 284.043 74.7885C280.648 67.7805 275.94 65.6635 270.027 68.547Z" fill="#13283E"/>
<path d="M248.492 126.436C246.886 126.436 245.097 125.597 243.674 122.713C243.053 121.399 242.579 120.012 242.177 118.625L238.016 105.12C236.994 101.726 236.045 98.9515 235.242 96.798C233.892 93.221 233.381 90.0455 233.709 87.308C234.074 84.3515 235.206 82.3805 237.104 81.468C238.564 80.738 240.243 80.6285 241.739 81.2125C243.199 81.687 244.404 82.7455 245.097 84.1325C245.134 84.2055 245.17 84.242 245.17 84.315C247.105 80.2635 249.404 77.526 252.032 76.2485C255.463 74.5695 258.493 74.533 261.084 76.139C263.092 72.5985 266.121 69.788 269.808 68.036C272.91 66.5395 275.721 66.357 278.203 67.452C280.685 68.547 282.802 70.956 284.554 74.5695C285.284 76.066 286.196 78.11 287.218 80.592C287.401 80.9935 288.97 84.461 292 90.9215C293.606 94.4255 294.774 97.0535 295.467 98.769C296.307 100.813 296.27 102.748 295.321 104.463C294.555 105.996 293.314 107.2 291.781 107.967C289.956 108.843 288.386 108.952 287.036 108.332C285.758 107.711 284.554 106.215 283.349 103.733L275.319 85.264C273.75 82.052 272.874 80.9935 272.472 80.6285C271.596 81.614 270.757 82.636 269.99 83.6945C269.005 84.972 268.056 86.3225 267.216 87.746C267.873 89.8995 269.37 93.5495 271.633 98.5865C274.808 105.996 276.378 110.084 276.524 111.581C276.706 113.114 276.378 114.646 275.611 115.997C274.881 117.311 273.786 118.37 272.436 119.027C271.049 119.757 269.443 119.903 267.983 119.428C266.596 118.99 265.428 118.005 264.807 116.691L264.771 116.581L263.384 112.529C262.763 110.741 261.595 107.857 259.916 103.952C257.544 98.3675 256.011 94.316 255.281 91.9435C255.135 91.469 254.989 90.9945 254.843 90.593C253.237 93.2575 251.813 96.7615 250.572 100.996L255.317 117.713C255.865 119.282 255.682 120.998 254.806 122.421C253.93 123.918 252.616 125.086 251.047 125.816C250.28 126.217 249.404 126.436 248.492 126.436ZM239.732 81.9425C239.002 81.9425 238.272 82.125 237.578 82.4535C236.045 83.1835 235.133 84.8625 234.804 87.454C234.476 90.0455 234.987 93.002 236.264 96.433C237.067 98.5865 238.016 101.434 239.038 104.828L243.199 118.333C243.564 119.684 244.039 120.998 244.659 122.239C246.083 125.159 248.09 126.035 250.609 124.794C251.996 124.173 253.127 123.114 253.894 121.837C254.587 120.669 254.733 119.282 254.295 118.004L249.441 100.959L249.477 100.813C250.901 95.8855 252.58 91.907 254.478 89.06L255.025 88.2205L255.427 89.133C255.755 89.936 256.047 90.739 256.303 91.5785C257.033 93.9145 258.566 97.9295 260.902 103.478C262.581 107.42 263.785 110.34 264.406 112.128L265.793 116.216C266.304 117.238 267.216 118.041 268.311 118.369C269.516 118.734 270.83 118.625 271.961 118.004C273.093 117.457 274.042 116.545 274.662 115.413C275.319 114.282 275.575 112.931 275.429 111.653C275.283 110.34 273.677 106.069 270.611 98.988C268.238 93.6955 266.705 89.936 266.048 87.7825L265.975 87.5635L266.085 87.381C266.997 85.848 267.983 84.388 269.078 83.001C270.136 81.5775 271.523 79.789 272.107 79.424L272.29 79.278L272.509 79.351C273.348 79.57 274.626 81.4315 276.232 84.753L284.262 103.222C285.32 105.412 286.415 106.799 287.437 107.273C288.459 107.748 289.737 107.639 291.27 106.909C292.584 106.251 293.642 105.193 294.336 103.879C295.102 102.456 295.139 100.886 294.409 99.134C293.679 97.382 292.547 94.827 290.941 91.323C287.912 84.7895 286.342 81.395 286.16 80.9935C285.138 78.548 284.225 76.5405 283.532 75.044C281.889 71.6495 279.918 69.423 277.692 68.4375C275.465 67.452 272.983 67.6345 270.209 68.985C266.559 70.737 263.566 73.584 261.705 77.161L261.413 77.7085L260.902 77.3435C258.566 75.6645 255.719 75.628 252.47 77.1975C249.806 78.5115 247.433 81.5045 245.499 86.14L244.805 87.746L244.44 86.0305C244.367 85.5195 244.221 85.045 244.039 84.534C243.491 83.4025 242.506 82.563 241.301 82.1615C240.827 82.052 240.279 81.979 239.732 81.9425Z" fill="#1D1E1B"/>
<path d="M324.886 73.365C323.645 73.9855 322.222 75.3725 320.616 77.599C318.827 79.9715 316.491 81.8695 313.827 83.1105C310.578 84.68 307.622 85.045 304.957 84.169L314.009 73.9125C318.389 69.058 321.054 65.3715 322.149 62.6705C323.317 60.0425 323.207 57.013 321.93 54.458C320.543 51.611 318.17 50.0415 314.812 49.7495C311.6 49.494 307.768 50.443 303.388 52.56C296.672 55.845 292.547 61.2105 291.087 68.5835C289.664 75.8835 290.321 82.4535 293.095 88.111C295.102 92.272 298.314 94.8635 302.621 95.8125C306.855 96.7615 311.746 95.922 317.112 93.294C321.309 91.323 324.959 88.403 327.843 84.753C330.763 81.0665 331.493 77.7085 330.106 74.7885C329.522 73.6205 328.062 71.832 324.886 73.365ZM299.482 72.9635C301.964 63.656 309.666 53.801 316.966 57.159C324.266 60.517 297.584 79.9715 299.482 72.9635Z" fill="#13283E"/>
<path d="M306.125 96.7615C304.921 96.7615 303.716 96.652 302.512 96.3965C298.022 95.411 294.701 92.71 292.584 88.403C289.773 82.636 289.08 75.9565 290.54 68.547C292.036 61.028 296.27 55.48 303.132 52.1585C307.585 50.005 311.527 49.0195 314.849 49.275C318.389 49.567 320.944 51.246 322.404 54.2755C323.755 56.9765 323.864 60.152 322.623 62.926C321.492 65.7 318.791 69.423 314.374 74.314L305.906 83.9135C308.206 84.4245 310.761 84.023 313.535 82.6725C316.163 81.468 318.426 79.6065 320.141 77.307C321.82 74.971 323.28 73.5475 324.631 72.8905C326.2 72.124 327.551 72.0145 328.682 72.5985C329.522 73.0365 330.179 73.7665 330.58 74.606C332.113 77.7085 331.31 81.2855 328.281 85.1545C325.324 88.841 321.601 91.7975 317.331 93.8415C313.316 95.776 309.556 96.7615 306.125 96.7615ZM313.754 50.297C310.87 50.297 307.476 51.246 303.643 53.1075C297.11 56.283 293.058 61.539 291.635 68.7295C290.211 75.92 290.905 82.344 293.606 87.892C295.54 91.8705 298.643 94.389 302.767 95.3015C306.892 96.214 311.637 95.3745 316.893 92.8195C320.981 90.8485 324.594 88.0015 327.441 84.461C330.215 80.957 330.945 77.7815 329.631 75.0805C329.339 74.4235 328.865 73.9125 328.244 73.584C327.405 73.1825 326.383 73.292 325.142 73.876C323.974 74.46 322.623 75.774 321.054 77.9275C319.229 80.373 316.82 82.344 314.046 83.6215C310.688 85.264 307.549 85.629 304.775 84.7165L303.972 84.461L313.571 73.584C317.915 68.766 320.543 65.1525 321.638 62.488C322.733 60.006 322.66 57.159 321.455 54.7135C320.178 52.049 317.915 50.589 314.776 50.3335C314.447 50.3335 314.082 50.297 313.754 50.297ZM300.322 75.044C300.103 75.044 299.92 75.0075 299.701 74.971C299.336 74.8615 298.497 74.387 298.898 72.854C300.833 65.6635 305.468 59.0935 310.177 56.867C312.586 55.7355 314.922 55.6625 317.148 56.6845C318.024 57.086 319.375 58.1445 318.389 60.59C317.221 63.6195 312.987 67.5615 309.447 70.226C308.352 71.102 303.023 75.044 300.322 75.044ZM313.936 57.0495C312.805 57.0495 311.673 57.3415 310.651 57.816C306.235 59.8965 301.855 66.1745 299.993 73.1095C299.884 73.584 299.884 73.8395 300.066 73.876C302.366 74.6425 315.25 65.6635 317.404 60.152C318.061 58.5095 317.367 57.9255 316.71 57.6335C315.834 57.2685 314.885 57.0495 313.936 57.0495Z" fill="#1D1E1B"/>
<path d="M141.876 163.629C140.635 164.25 139.211 165.637 137.569 167.863C135.78 170.236 133.444 172.134 130.78 173.375C127.531 174.944 124.575 175.309 121.91 174.433L130.962 164.177C135.342 159.322 138.007 155.636 139.102 152.935C140.27 150.307 140.16 147.278 138.883 144.723C137.496 141.876 135.123 140.306 131.765 140.014C128.553 139.759 124.721 140.707 120.341 142.824C113.625 146.073 109.5 151.475 108.04 158.848C106.617 166.112 107.274 172.682 110.048 178.376C112.055 182.537 115.267 185.128 119.574 186.077C123.808 187.026 128.699 186.187 134.028 183.558C138.226 181.587 141.876 178.668 144.759 175.018C147.679 171.331 148.409 167.973 147.022 165.053C146.511 163.885 145.051 162.06 141.876 163.629ZM116.472 163.228C118.954 153.921 126.655 144.065 133.955 147.424C141.255 150.781 114.61 170.2 116.472 163.228Z" fill="#13283E"/>
<path d="M123.115 186.99C121.91 186.99 120.706 186.88 119.501 186.588C115.012 185.603 111.69 182.901 109.61 178.594C106.799 172.827 106.106 166.148 107.566 158.739C109.062 151.22 113.296 145.672 120.158 142.35C124.611 140.16 128.553 139.211 131.875 139.467C135.415 139.759 137.97 141.438 139.43 144.467C140.781 147.168 140.854 150.344 139.649 153.118C138.518 155.892 135.817 159.615 131.4 164.506L122.932 174.105C125.232 174.616 127.787 174.215 130.561 172.864C133.189 171.66 135.452 169.798 137.167 167.499C138.846 165.163 140.306 163.739 141.657 163.082C143.226 162.316 144.577 162.206 145.708 162.79C146.548 163.228 147.205 163.958 147.606 164.798C149.103 167.9 148.336 171.441 145.307 175.346C142.35 179.033 138.627 181.989 134.357 184.033C130.305 186.004 126.546 186.99 123.115 186.99ZM130.743 140.562C127.86 140.562 124.465 141.511 120.633 143.372C114.099 146.548 110.048 151.804 108.624 158.994C107.201 166.185 107.858 172.609 110.595 178.157C112.53 182.172 115.632 184.653 119.757 185.566C123.881 186.479 128.626 185.639 133.882 183.084C138.007 181.15 141.62 178.266 144.431 174.726C147.205 171.222 147.935 168.046 146.621 165.345C146.329 164.688 145.854 164.177 145.234 163.849C144.394 163.447 143.372 163.557 142.131 164.141C140.963 164.725 139.613 166.038 138.043 168.192C136.218 170.637 133.809 172.609 131.035 173.886C127.677 175.528 124.538 175.894 121.764 174.981L120.961 174.726L130.561 163.849C134.904 159.031 137.532 155.417 138.627 152.753C139.722 150.271 139.649 147.424 138.445 144.978C137.167 142.314 134.904 140.854 131.765 140.598C131.437 140.562 131.072 140.562 130.743 140.562ZM117.348 165.272C117.129 165.272 116.946 165.236 116.727 165.199C116.362 165.09 115.523 164.615 115.924 163.082C117.859 155.892 122.494 149.322 127.203 147.095C129.612 145.964 131.948 145.891 134.174 146.913C135.05 147.314 136.401 148.373 135.452 150.818C134.247 153.848 130.05 157.79 126.509 160.454C125.378 161.33 120.012 165.272 117.348 165.272ZM130.926 147.278C129.794 147.278 128.663 147.57 127.641 148.044C123.188 150.125 118.808 156.439 116.946 163.338C116.837 163.812 116.837 164.068 117.019 164.104C119.319 164.871 132.203 155.892 134.357 150.38C135.014 148.738 134.32 148.154 133.663 147.862C132.86 147.497 131.911 147.278 130.926 147.278Z" fill="#1D1E1B"/>
<path d="M93.9874 187.063C93.9144 187.063 93.8414 187.063 93.7684 187.063C92.7829 186.953 92.0529 186.041 92.1624 185.055C95.0094 160.454 90.0454 132.203 90.0089 131.948C89.8629 130.962 90.5564 130.013 91.5419 129.867C92.4909 129.721 93.4034 130.342 93.5859 131.291C93.6224 131.583 98.6959 160.308 95.7759 185.493C95.7029 186.369 94.8999 187.063 93.9874 187.063Z" fill="white"/>
<path d="M58.0351 216.81C57.8526 216.81 57.6701 216.773 57.5241 216.737C56.5751 216.445 56.0276 215.423 56.3196 214.474C60.9186 199.326 58.1081 170.199 58.0716 169.907C57.9621 168.885 58.6921 168.009 59.7141 167.9C60.7361 167.79 61.6121 168.52 61.7216 169.542C61.8311 170.783 64.6051 199.655 59.8236 215.496C59.5681 216.299 58.8381 216.81 58.0351 216.81Z" fill="white"/>
<path d="M135.05 156.037C134.867 156.037 134.685 155.964 134.502 155.855C134.101 155.563 133.991 154.979 134.32 154.577C136.692 151.329 137.495 148.591 136.729 146.511C135.743 143.773 132.312 142.861 132.276 142.861C131.801 142.751 131.473 142.24 131.619 141.766C131.765 141.291 132.239 140.963 132.714 141.109C132.896 141.146 137.094 142.241 138.408 145.891C139.393 148.592 138.517 151.876 135.78 155.672C135.634 155.891 135.342 156.037 135.05 156.037Z" fill="white"/>
<path d="M156.038 144.175C155.636 144.175 155.271 143.92 155.162 143.518L146.037 112.128C145.891 111.654 146.183 111.143 146.657 110.997C147.132 110.851 147.643 111.142 147.789 111.617L156.914 143.007C157.06 143.481 156.768 143.993 156.293 144.139C156.22 144.175 156.111 144.175 156.038 144.175Z" fill="white"/>
<path d="M166.257 137.605C166.221 137.605 166.148 137.605 166.111 137.605C165.637 137.532 165.308 137.057 165.381 136.546C167.243 125.706 170.747 118.661 175.82 115.595C179.799 113.186 183.23 114.245 183.376 114.318C183.85 114.464 184.106 114.975 183.96 115.486C183.814 115.96 183.303 116.216 182.828 116.07C182.719 116.033 179.981 115.23 176.733 117.201C173.557 119.099 169.36 124.1 167.17 136.875C167.097 137.313 166.695 137.605 166.257 137.605Z" fill="white"/>
<path d="M234.513 120.815C234.038 120.815 233.637 120.45 233.6 119.939C232.542 99.061 219.584 97.455 219.438 97.455C218.927 97.4185 218.562 96.944 218.635 96.433C218.708 95.922 219.146 95.557 219.657 95.63C219.803 95.63 223.453 96.068 227.249 99.3165C230.68 102.273 234.878 108.222 235.462 119.866C235.498 120.377 235.097 120.778 234.586 120.815H234.513Z" fill="white"/>
<path d="M288.532 91.98C288.167 91.98 287.839 91.761 287.693 91.396C281.232 75.482 277.29 72.4525 275.903 71.8685C275.684 71.759 275.429 71.7225 275.173 71.759C274.772 72.051 274.188 71.9415 273.896 71.54C273.604 71.1385 273.713 70.5545 274.115 70.2625C274.224 70.153 274.954 69.715 276.122 70.0435C279.699 71.029 284.262 78.183 289.372 90.739C289.554 91.2135 289.335 91.7245 288.861 91.9435C288.751 91.9435 288.642 91.98 288.532 91.98Z" fill="white"/>
<path d="M266.998 95.995C266.596 95.995 266.231 95.703 266.122 95.338C262.91 83.6215 259.369 80.4825 256.924 79.8985C254.369 79.278 252.434 81.395 252.361 81.468C252.033 81.833 251.449 81.8695 251.084 81.541C250.719 81.2125 250.682 80.6285 251.011 80.2635C251.12 80.154 253.712 77.2705 257.362 78.11C261.596 79.0955 265.136 84.753 267.91 94.8635C268.056 95.338 267.764 95.849 267.253 95.995C267.144 95.995 267.071 95.995 266.998 95.995Z" fill="white"/>
<path d="M320.287 62.78C320.214 62.78 320.141 62.78 320.068 62.7435C319.594 62.634 319.302 62.123 319.411 61.6485C320.178 58.5095 319.849 56.137 318.499 54.604C315.98 51.83 310.651 52.56 310.578 52.56C310.067 52.633 309.629 52.268 309.556 51.757C309.483 51.2825 309.848 50.808 310.323 50.735C310.578 50.6985 316.674 49.859 319.849 53.363C321.674 55.3705 322.112 58.2905 321.2 62.0865C321.054 62.488 320.689 62.78 320.287 62.78Z" fill="white"/>
<path d="M120.085 203.378L257.069 141.182C259.624 140.014 262.654 141.145 263.822 143.7C264.99 146.255 263.858 149.285 261.303 150.453L124.319 212.649C121.764 213.817 118.734 212.686 117.566 210.131C116.398 207.539 117.53 204.546 120.085 203.378Z" fill="#13283E"/>
<path d="M122.202 213.634C119.099 213.634 116.581 211.116 116.544 208.014C116.544 205.787 117.822 203.779 119.866 202.867L256.814 140.671C259.661 139.393 262.982 140.635 264.26 143.482C265.537 146.329 264.296 149.65 261.449 150.928L124.538 213.124C123.808 213.452 123.005 213.634 122.202 213.634ZM259.186 141.255C258.529 141.255 257.909 141.401 257.325 141.657L120.34 203.853C118.041 204.875 117.055 207.576 118.077 209.875C119.099 212.175 121.8 213.16 124.1 212.138L261.048 149.942C263.347 148.92 264.369 146.219 263.311 143.919C262.581 142.313 260.975 141.255 259.186 141.255Z" fill="#1D1E1B"/>
<path d="M209.145 167.9C208.123 167.9 207.32 167.097 207.32 166.075C207.32 165.345 207.758 164.688 208.415 164.396L256.96 143.591C257.873 143.19 258.968 143.628 259.369 144.54C259.771 145.453 259.333 146.548 258.42 146.949L209.875 167.754C209.62 167.864 209.401 167.9 209.145 167.9Z" fill="white"/>
<path d="M51.5745 242.981C48.7275 242.981 45.917 242.47 43.2525 241.448C27.9225 235.717 19.71 216.08 19.3815 215.241C19.2355 214.876 19.418 214.438 19.783 214.292C20.148 214.146 20.586 214.328 20.732 214.693C20.805 214.876 29.0175 234.586 43.7635 240.061C50.078 242.397 56.6845 241.849 63.51 238.382C63.875 238.236 64.313 238.418 64.459 238.783C64.605 239.112 64.459 239.513 64.167 239.696C59.933 241.886 55.699 242.981 51.5745 242.981Z" fill="#1D1E1B"/>
<path d="M164.25 94.17C163.921 94.17 163.629 93.951 163.52 93.6225C157.826 69.4595 164.323 48.837 170.82 35.77C177.828 21.6445 186.296 13.067 186.369 12.994C186.624 12.702 187.099 12.6655 187.391 12.921C187.683 13.1765 187.719 13.651 187.464 13.943C187.427 13.9795 187.427 14.016 187.391 14.016C187.318 14.089 178.996 22.5205 172.097 36.4635C165.746 49.275 159.359 69.569 164.98 93.2575C165.089 93.659 164.834 94.0605 164.432 94.1335C164.359 94.17 164.323 94.17 164.25 94.17Z" fill="#1D1E1B"/>
<path d="M174.47 89.79C174.068 89.79 173.776 89.498 173.74 89.0965C172.28 61.758 189.763 39.201 189.946 38.9455C190.201 38.617 190.639 38.5805 190.968 38.836C191.296 39.0915 191.333 39.5295 191.077 39.858C190.895 40.077 173.74 62.2325 175.163 88.987C175.2 89.3885 174.871 89.717 174.47 89.7535V89.79Z" fill="#1D1E1B"/>
<path d="M348.392 349.305C348.1 349.305 347.845 349.05 347.845 348.758V137.058C347.845 136.766 348.1 136.51 348.392 136.51C348.684 136.51 348.94 136.766 348.94 137.058V348.758C348.94 349.05 348.684 349.305 348.392 349.305Z" fill="#1D1E1B"/>
<path d="M337.808 156.585C337.516 156.585 337.26 156.33 337.26 156.038V114.428C337.26 114.136 337.516 113.88 337.808 113.88C338.1 113.88 338.355 114.136 338.355 114.428V156.038C338.355 156.33 338.1 156.585 337.808 156.585Z" fill="#1D1E1B"/>
</svg>
