<svg width="430" height="438" viewBox="0 0 430 438" fill="none" xmlns="http://www.w3.org/2000/svg">
<path d="M-117.443 511.894V130.431C-117.443 111.64 -102.179 96.3766 -83.3882 96.3766H115.424C134.215 96.3766 149.479 111.64 149.479 130.431V511.894H-117.443Z" fill="#9F57A3"/>
<path d="M-118.405 512.856H150.441V130.431C150.441 111.127 134.792 95.4146 115.424 95.4146H-83.3883C-102.692 95.4146 -118.405 111.127 -118.405 130.431V512.856ZM148.517 510.932H-116.417V130.431C-116.417 112.153 -101.602 97.4027 -83.3242 97.3385H115.424C133.702 97.3385 148.517 112.153 148.517 130.431V510.932Z" fill="#1D1E1B"/>
<path d="M-107.695 511.894C-107.887 510.483 -108.015 509.008 -108.015 507.597V144.156C-108.015 126.711 -93.8418 112.538 -76.3976 112.538H-40.6114C-40.6114 112.666 -40.6114 112.795 -40.6114 112.859C-40.6114 121.966 -33.2361 129.405 -24.0651 129.405H54.7544C63.8613 129.405 71.3007 122.03 71.3007 112.859C71.3007 112.73 71.3007 112.602 71.3007 112.538H108.434C125.878 112.538 140.051 126.711 140.051 144.156V507.597C140.051 509.008 139.923 510.483 139.731 511.894H-107.695Z" fill="#86A5F3"/>
<path d="M-108.528 512.856H140.565L140.693 512.023C140.885 510.548 141.013 509.072 141.013 507.597V144.156C141.013 126.198 126.455 111.64 108.434 111.576H70.2747V112.859C70.2747 121.453 63.2842 128.379 54.7545 128.443H-24.065C-32.6588 128.443 -39.5851 121.453 -39.6493 112.859V111.576H-76.4616C-94.4189 111.576 -108.977 126.134 -109.041 144.156V507.597C-109.041 509.072 -108.913 510.548 -108.721 512.023L-108.528 512.856ZM138.897 510.932H-106.797C-106.925 509.842 -106.989 508.688 -106.989 507.597V144.156C-106.989 127.225 -93.2645 113.564 -76.3334 113.5H-41.5091C-41.1885 122.928 -33.4284 130.367 -24.065 130.367H54.8187C64.2462 130.367 71.9422 122.928 72.2628 113.5H108.434C125.365 113.5 139.025 127.225 139.089 144.156V507.597C139.089 508.688 139.025 509.842 138.897 510.932Z" fill="#1D1E1B"/>
<path d="M3.51203 511.189H-107.053C-107.246 509.778 -107.374 508.367 -107.374 506.892V374.521C-98.7801 366.12 -75.115 348.483 -24.7065 343.738C42.3125 337.388 67.0678 378.369 54.6902 413.001C54.7543 413.001 26.7282 471.17 3.51203 511.189Z" fill="#0D0BCC"/>
<path d="M-107.887 512.151H4.08936L4.34587 511.702C27.3055 472.068 55.3316 414.027 55.5882 413.45L55.6523 413.322C61.6166 396.647 59.0513 379.331 48.6618 365.992C34.5525 347.842 8.51454 339.633 -24.7705 342.776C-76.2052 347.65 -100.127 366.12 -108.015 373.816L-108.336 374.072V506.956C-108.336 508.431 -108.208 509.906 -108.015 511.317L-107.887 512.151ZM2.93494 510.227H-106.219C-106.348 509.137 -106.412 508.046 -106.412 506.892V374.906C-98.3952 367.146 -74.8584 349.445 -24.6423 344.635C7.93731 341.557 33.3981 349.51 47.0585 367.082C57.0632 379.909 59.5003 396.519 53.7924 412.552C52.8946 414.54 25.5739 471.17 2.93494 510.227Z" fill="#1D1E1B"/>
<path d="M139.346 281.08C120.555 251.707 35.0015 203.222 -1.93909 210.726C-38.8797 218.229 -81.5923 269.856 -81.5923 269.856C-81.5923 269.856 -51.7063 293.457 -59.8512 308.785C-67.8678 323.856 -74.6018 336.683 -79.989 356.885C-79.989 356.885 12.555 439.103 36.4766 449.557C36.4766 449.557 92.2723 425.571 107.472 367.21C107.472 367.21 132.804 416.657 154.93 423.006C177.056 429.355 234.968 403.125 222.655 385.167L234.968 376.958L221.949 341.749L211.111 343.994C211.111 343.994 211.111 327.512 199.503 329.757C187.895 332.001 166.923 338.735 166.923 338.735C166.923 338.735 167.629 325.267 139.346 281.08Z" fill="#F15F7B"/>
<path d="M36.4767 450.519C36.6049 450.519 36.7332 450.519 36.8615 450.455C36.9897 450.391 51.099 444.234 66.8757 431.023C81.0491 419.158 99.4553 398.956 107.728 369.84C112.987 379.588 134.793 418.26 154.61 423.968C157.239 424.673 159.933 424.994 162.69 424.93C181.93 424.93 212.522 412.232 222.142 398.764C225.605 394.018 226.182 389.4 223.937 385.424L235.481 377.728C235.866 377.472 235.994 377.023 235.866 376.574L222.847 341.365C222.719 340.916 222.206 340.659 221.757 340.723L212.009 342.711C211.816 340.082 211.047 333.669 207.07 330.398C205.018 328.666 202.389 328.089 199.31 328.73C189.37 330.654 172.375 335.913 167.757 337.388C167.244 333.027 163.781 317.443 140.18 280.502C131.009 266.137 105.804 246.768 75.9826 231.184C43.852 214.317 14.6715 206.301 -2.13139 209.7C-39.0079 217.139 -81.9129 268.638 -82.3618 269.151C-82.6825 269.536 -82.6183 270.177 -82.2336 270.498C-81.9129 270.754 -53.053 293.778 -60.749 308.208C-68.6373 323.087 -75.4996 335.913 -80.9509 356.5C-81.0792 356.821 -80.9509 357.206 -80.6302 357.462C-76.8464 360.797 12.3627 439.873 36.0919 450.262C36.2201 450.455 36.3484 450.519 36.4767 450.519ZM107.472 366.248H107.344C106.959 366.312 106.638 366.569 106.51 366.954C98.7498 396.84 80.023 417.491 65.6572 429.483C51.5479 441.348 38.7854 447.441 36.4125 448.467C13.1964 437.885 -72.0364 362.657 -79.0269 356.5C-73.6397 336.491 -66.9058 323.792 -59.1457 309.17C-51.3856 294.548 -75.5637 273.64 -80.3737 269.664C-74.9865 263.315 -35.673 218.422 -1.87488 211.624C14.479 208.289 43.2107 216.241 74.9565 232.916C104.522 248.372 129.405 267.483 138.384 281.593C165.961 324.754 165.769 338.543 165.769 338.671C165.769 338.992 165.897 339.312 166.154 339.505C166.41 339.697 166.731 339.761 167.051 339.633C167.244 339.569 188.151 332.899 199.567 330.654C202.068 330.141 204.12 330.59 205.724 331.937C209.956 335.4 210.021 343.866 210.021 343.93C210.021 344.443 210.47 344.892 210.983 344.892C211.047 344.892 211.111 344.892 211.175 344.892L221.244 342.84L233.75 376.51L222.078 384.334C221.885 384.462 221.693 384.719 221.693 384.975C221.629 385.232 221.693 385.488 221.821 385.681C224.194 389.144 223.809 393.184 220.603 397.609C209.764 412.681 171.861 426.854 155.187 422.044C133.766 415.887 108.562 367.21 108.306 366.697C108.177 366.441 107.857 366.248 107.472 366.248Z" fill="#1D1D1B"/>
<path d="M200.721 199.438H200.849C201.106 199.438 225.797 197.13 255.683 182.122C273.127 173.4 289.096 161.92 302.949 148.196C320.201 131.073 334.246 110.358 344.571 86.5642C344.828 85.9229 344.571 85.1533 343.93 84.8967C343.289 84.6402 342.519 84.8967 342.263 85.5381C319.046 138.64 281.849 166.089 254.657 179.749C225.22 194.564 200.913 196.809 200.657 196.873C199.951 196.873 199.374 197.514 199.438 198.22C199.438 198.925 200.016 199.502 200.721 199.438Z" fill="#1D1D1B"/>
<path d="M118.887 179.878C118.887 179.878 130.624 196.167 140.5 185.201C150.377 174.234 171.284 150.569 189.305 164.165C207.327 177.761 207.648 182.507 221.051 173.849C234.455 165.191 283.645 193.025 254.272 226.567C206.108 281.529 96.4409 216.241 96.4409 216.241L101.443 200.272L118.887 179.878Z" fill="#0C1927"/>
<path d="M199.695 249.526C203.03 249.526 206.237 249.398 209.379 249.077C228.491 247.282 243.819 239.906 254.978 227.144C266.842 213.548 267.484 198.605 256.709 186.163C246.64 174.555 228.427 167.949 220.538 173.015C210.277 179.685 208.481 178.21 198.412 170.065C196.039 168.141 193.282 165.897 189.947 163.396C171.412 149.415 150.313 172.887 140.18 184.175L139.795 184.624C137.614 187.061 135.113 188.215 132.42 188.087C125.75 187.702 119.721 179.493 119.657 179.429L118.952 178.467L100.545 199.951L95.2865 216.818L95.9278 217.203C96.1844 217.396 123.826 233.685 157.047 243.049C172.567 247.282 186.868 249.526 199.695 249.526ZM227.465 173.208C235.481 173.208 247.41 178.339 255.234 187.381C261.199 194.244 268.83 208.353 253.567 225.861C229.004 253.887 187.83 249.59 157.56 240.996C127.417 232.467 101.956 218.229 97.5953 215.728L102.277 200.721L118.823 181.353C120.747 183.726 126.135 189.562 132.291 189.882C135.562 190.075 138.576 188.664 141.142 185.778L141.526 185.329C151.275 174.491 171.605 151.916 188.664 164.806C191.999 167.372 194.693 169.552 197.066 171.476C207.263 179.749 210.02 181.994 221.436 174.555C223.36 173.593 225.412 173.144 227.465 173.208Z" fill="black"/>
<path d="M216.69 247.089C165.576 206.621 107.087 209.251 107.087 209.251C104.714 212.201 103.047 215.664 102.213 219.384C119.593 228.811 173.401 254.977 216.69 247.089Z" fill="#162332"/>
<path d="M80.7283 152.557C70.3503 152.557 61.9373 144.144 61.9373 133.766C61.9373 123.388 70.3503 114.975 80.7283 114.975C91.1063 114.975 99.5193 123.388 99.5193 133.766C99.5193 144.144 91.1063 152.557 80.7283 152.557Z" fill="#0C1927"/>
<path d="M82.0751 115.039C71.7496 114.27 62.771 122.03 62.0014 132.355C61.2318 142.681 68.9919 151.659 79.3173 152.429C89.6428 153.198 98.6214 145.438 99.391 135.113C99.8399 128.7 97.018 122.543 91.8874 118.695C89.0655 116.578 85.6665 115.36 82.0751 115.039ZM82.2033 113.628C93.2983 114.462 101.636 124.146 100.866 135.241C100.032 146.336 90.3482 154.673 79.2532 153.904C68.1582 153.07 59.8209 143.386 60.5905 132.291C60.847 128.443 62.258 124.787 64.5667 121.709C68.6071 116.194 75.277 113.115 82.2033 113.628Z" fill="black"/>
<path d="M122.158 200.272C122.158 200.272 136.973 191.422 133.51 178.916C130.047 166.41 126.904 166.859 125.493 160.189C124.082 153.519 113.949 145.182 103.175 146.336C103.175 146.336 92.144 134.536 80.087 135.498C68.03 136.46 63.0276 141.206 58.1535 149.607C53.2794 158.008 49.3031 161.472 45.7116 167.244C42.1202 173.015 35.1938 189.947 57.3839 207.198C79.5739 224.45 122.158 200.272 122.158 200.272Z" fill="#0C1927"/>
<path d="M78.0987 214.381C84.961 214.253 91.8232 213.163 98.3648 211.175C106.766 208.673 114.911 205.339 122.607 201.17C123.248 200.785 137.999 191.742 134.408 178.723C132.484 171.669 130.56 168.654 129.084 166.217C127.802 164.358 126.904 162.241 126.455 160.061C124.916 152.621 114.462 144.54 103.56 145.438C101.571 143.45 91.3743 133.702 80.0227 134.6C67.5809 135.562 62.2579 140.692 57.3838 149.222C55.1391 153.07 52.6379 156.726 49.8161 160.125C48.0845 162.305 46.417 164.55 44.942 166.859C41.7994 171.925 33.3339 189.818 56.8707 208.096C62.322 212.201 69.5049 214.381 78.0987 214.381ZM121.709 199.438C120.811 199.951 79.3814 223.039 58.0892 206.429C35.8351 189.113 43.6593 172.438 46.6094 167.757C48.0845 165.512 49.6878 163.267 51.3553 161.215C54.1771 157.688 56.7424 153.968 59.0512 150.12C63.7971 141.975 68.5429 137.358 80.2151 136.46C91.6308 135.562 102.405 146.913 102.533 147.042L102.854 147.362L103.367 147.298C113.949 146.144 123.377 154.289 124.595 160.381C125.108 162.818 126.07 165.127 127.481 167.179C128.956 169.488 130.688 172.374 132.612 179.172C135.818 190.716 122.094 199.182 121.709 199.438Z" fill="black"/>
<path d="M78.8044 179.814C70.4671 178.467 63.8614 169.039 63.6049 168.654C63.3483 168.334 63.4125 167.885 63.7331 167.628C64.0538 167.372 64.5027 167.436 64.7593 167.757L64.8234 167.821C64.8875 167.885 71.365 177.12 79.0609 178.403C79.4457 178.467 79.7023 178.852 79.6381 179.236C79.5099 179.557 79.1892 179.814 78.8044 179.814Z" fill="black"/>
<path d="M86.3722 233.814C86.3722 233.814 95.0301 243.562 82.8448 248.885C70.6596 254.208 64.118 244.011 64.118 244.011C64.118 244.011 25.061 248.372 45.2629 220.089L86.3722 233.814Z" fill="white"/>
<path d="M76.1108 251.386C78.5478 251.386 80.9849 250.809 83.2937 249.783C87.2058 248.115 89.5787 245.742 90.22 242.792C91.3103 237.918 87.334 233.429 87.1416 233.236L86.9492 233.044L86.6927 232.98L44.9421 218.999L44.5573 219.576C38.7853 227.657 37.182 234.07 39.8114 238.495C44.429 246.384 60.4623 245.358 63.7331 245.037C64.9516 246.576 69.1844 251.386 76.1108 251.386ZM85.859 234.711C86.5003 235.545 89.0656 239.008 88.296 242.407C87.783 244.716 85.859 246.576 82.5241 248.051C71.2366 252.925 65.2723 243.947 65.0158 243.562L64.6951 243.049L64.1179 243.113C63.9255 243.113 45.9041 245.037 41.4789 237.533C39.3625 233.878 40.7734 228.426 45.7117 221.244L85.859 234.711Z" fill="#1D1D1B"/>
<path d="M79.0609 174.426C77.1369 174.298 75.2771 173.849 73.5455 173.208C73.1607 173.08 73.0324 172.631 73.1607 172.31C73.2889 171.989 73.6737 171.797 73.9944 171.925C89.4505 177.377 97.2105 162.113 97.5312 161.407C97.7236 161.023 98.1084 160.894 98.4932 161.087C98.8139 161.279 99.0063 161.664 98.8139 162.049C98.7497 162.177 92.0799 175.388 79.0609 174.426Z" fill="white"/>
<path d="M80.4076 174.811C92.7852 174.811 99.0702 162.305 99.1344 162.177C99.3909 161.664 99.1985 161.023 98.7496 160.766C98.3006 160.51 97.5952 160.702 97.3386 161.151C97.3386 161.151 97.2745 161.215 97.2745 161.279C96.9539 161.92 89.322 176.992 74.1225 171.605C73.6094 171.412 73.0322 171.733 72.8398 172.246C72.6474 172.759 72.9681 173.336 73.4812 173.529C75.2769 174.17 77.2009 174.619 79.1249 174.747C79.5097 174.747 79.9586 174.811 80.4076 174.811ZM98.1724 161.343C98.2365 161.343 98.3007 161.343 98.3648 161.407C98.5572 161.472 98.6213 161.728 98.5572 161.92C98.4931 162.049 91.9515 175.132 79.1249 174.17C77.265 174.042 75.4052 173.657 73.6736 173.015C73.4812 172.951 73.3529 172.695 73.417 172.502C73.4812 172.374 73.5453 172.31 73.6094 172.246C73.6736 172.182 73.8018 172.182 73.9301 172.246C89.6427 177.825 97.531 162.241 97.8517 161.6C97.8517 161.407 97.98 161.343 98.1724 161.343Z" fill="white"/>
<path d="M68.7355 127.673C68.6073 127.673 68.479 127.609 68.4149 127.545C68.0942 127.353 67.9659 126.904 68.2225 126.583C70.8519 122.479 74.0586 120.106 77.7141 119.529C83.7426 118.567 88.8091 122.607 89.0015 122.735C89.3222 122.992 89.3222 123.441 89.0657 123.761C88.8092 124.082 88.4244 124.082 88.1037 123.89C88.0396 123.825 83.2937 120.106 77.9065 120.939C74.6357 121.517 71.7498 123.633 69.3768 127.417C69.2486 127.545 68.9921 127.673 68.7355 127.673Z" fill="white"/>
<path d="M68.7353 127.994C69.0559 127.994 69.4407 127.802 69.6331 127.545C71.9419 123.89 74.7637 121.773 77.9704 121.26C83.1652 120.426 87.8469 124.082 87.911 124.082C88.3599 124.403 89.0013 124.274 89.3219 123.825C89.5785 123.377 89.5143 122.863 89.1937 122.479C89.0013 122.286 83.7424 118.182 77.6497 119.208C73.8659 119.849 70.5951 122.286 67.9015 126.455C67.5809 126.904 67.7091 127.545 68.2222 127.866C68.3505 127.93 68.5428 127.994 68.6711 127.994H68.7353ZM79.5737 120.491C78.9965 120.491 78.4193 120.555 77.8422 120.619C74.4431 121.196 71.493 123.377 69.0559 127.225C68.9918 127.353 68.8635 127.417 68.6711 127.417C68.4787 127.417 68.3504 127.289 68.3504 127.096C68.3504 126.968 68.3505 126.904 68.4146 126.776C70.9799 122.735 74.1224 120.426 77.7139 119.849C83.55 118.887 88.5524 122.863 88.7448 122.992C88.9372 123.12 88.9371 123.377 88.8089 123.569C88.6806 123.761 88.4241 123.761 88.2317 123.633C88.2317 123.569 84.3196 120.491 79.5737 120.491Z" fill="white"/>
<path d="M82.973 223.103L85.5383 233.365C85.5383 233.365 63.22 252.733 49.1107 220.41C49.1107 220.41 57.9611 214.638 65.9777 194.372C65.9777 194.372 56.9991 191.229 59.5002 183.149C62.0014 175.068 68.7995 174.491 72.4551 177.184C72.4551 177.184 86.4361 189.754 106.061 159.74C106.061 159.74 121.517 168.462 122.8 185.714C124.082 202.966 118.31 222.077 104.714 226.118C91.1178 230.158 82.973 223.103 82.973 223.103Z" fill="#FFCDB2"/>
<path d="M105.997 159.74C95.3505 176.094 86.3077 179.814 80.3433 179.814C77.4574 179.878 74.6997 178.98 72.3909 177.184C71.1082 176.222 69.5049 175.709 67.9016 175.709C64.6308 175.709 61.1035 177.761 59.436 183.084C56.9348 191.165 65.9134 194.308 65.9134 194.308C57.8968 214.574 49.0464 220.346 49.0464 220.346C55.4597 235.096 63.6046 239.073 70.531 239.073C78.8683 239.073 85.474 233.301 85.474 233.301L82.9087 223.039C82.9087 223.039 87.8469 227.336 96.4408 227.336C99.1985 227.336 101.956 226.887 104.65 226.118C118.31 222.077 124.018 203.03 122.735 185.714C121.453 168.398 106.061 159.74 105.997 159.74ZM105.419 157.175L106.959 158.073C107.6 158.457 123.312 167.5 124.723 185.586C125.429 194.885 124.146 204.12 121.132 211.624C117.669 220.282 112.153 225.925 105.227 227.978C102.405 228.811 99.455 229.26 96.5049 229.26C92.8493 229.26 89.2578 228.555 85.987 227.08L87.4621 232.916L87.7828 234.07L86.8849 234.84C86.5643 235.096 79.6379 241.061 70.6593 241.061C66.2341 241.061 62.0013 239.586 58.5381 236.828C54.2412 233.493 50.4574 228.234 47.379 221.179L46.7377 219.704L48.0844 218.807C48.1486 218.742 56.1011 213.291 63.5405 195.398C59.949 193.474 55.6521 189.177 57.7044 182.571C59.3719 177.12 63.2198 173.785 67.9657 173.785C70.0179 173.785 72.0061 174.426 73.6094 175.645L73.6735 175.709L73.7377 175.773C75.6616 177.184 77.9704 177.954 80.4075 177.89C85.6664 177.89 94.132 174.555 104.457 158.65L105.419 157.175Z" fill="#1D1D1B"/>
<path d="M83.1012 224.578C83.037 224.578 82.9729 224.578 82.9088 224.514C75.5335 221.436 70.5952 213.034 70.4028 212.714C70.2104 212.393 70.2745 211.944 70.5952 211.752C70.9159 211.559 71.3648 211.624 71.5572 211.944C71.5572 211.944 71.5572 212.008 71.6214 212.008C71.6855 212.072 76.4955 220.346 83.4218 223.232C83.8066 223.36 83.9349 223.809 83.8066 224.194C83.6784 224.386 83.3577 224.578 83.1012 224.578Z" fill="black"/>
<path d="M66.4265 190.524C66.17 190.524 65.9135 190.331 65.8493 190.075C64.3743 186.804 64.246 184.175 65.5287 182.379C67.3244 179.749 71.1724 179.878 71.3007 179.878C71.6855 179.878 72.0061 180.198 72.0061 180.583C72.0061 180.968 71.6855 181.289 71.3007 181.289C71.2365 181.289 68.094 181.225 66.7472 183.149C65.7852 184.559 65.9776 186.676 67.1961 189.498C67.3244 189.882 67.1961 190.267 66.8113 190.46C66.6831 190.524 66.5548 190.588 66.4265 190.524Z" fill="black"/>
<path d="M103.431 184.944C93.7472 184.944 82.1391 178.274 79.3172 181.096C76.4954 183.918 77.2008 188.728 81.9467 190.845C86.6925 192.961 91.759 193.923 102.084 195.27C112.41 196.616 122.671 197.194 122.671 191.486C122.671 185.778 117.669 184.88 103.431 184.944Z" fill="#FFB49F"/>
<path d="M115.424 181.225C115.232 181.225 115.039 181.096 114.911 180.904C114.911 180.84 112.346 177.505 108.883 177.505C108.498 177.569 108.113 177.248 108.113 176.863C108.049 176.479 108.369 176.094 108.754 176.094C108.818 176.094 108.818 176.094 108.883 176.094C113.051 176.094 115.937 179.942 116.065 180.07C116.322 180.391 116.194 180.84 115.873 181.096C115.745 181.16 115.552 181.225 115.424 181.225Z" fill="black"/>
<path d="M103.175 202.26C102.854 202.196 102.598 201.939 102.534 201.619L100.481 186.163C100.417 185.778 100.738 185.393 101.123 185.393C101.507 185.329 101.828 185.586 101.892 185.97L103.945 201.426C104.009 201.811 103.752 202.196 103.367 202.196L103.175 202.26Z" fill="black"/>
<path d="M62.1938 196.681C60.4937 196.681 59.1155 195.302 59.1155 193.602C59.1155 191.902 60.4937 190.524 62.1938 190.524C63.894 190.524 65.2722 191.902 65.2722 193.602C65.2722 195.302 63.894 196.681 62.1938 196.681Z" fill="#F15F7B"/>
<path d="M62.4503 190.524C60.7829 190.396 59.3078 191.678 59.1795 193.346C59.1154 194.372 59.5643 195.398 60.3981 196.039C60.847 196.424 61.4242 196.616 62.0014 196.616C63.6689 196.745 65.1439 195.462 65.2722 193.795C65.3363 192.768 64.8874 191.742 64.0537 191.101C63.6047 190.78 63.0275 190.588 62.4503 190.524ZM62.5145 189.113C65.0156 189.305 66.8755 191.422 66.6831 193.923C66.4907 196.424 64.3743 198.284 61.8731 198.092C59.3719 197.899 57.5121 195.783 57.7045 193.282C57.7686 192.448 58.0893 191.614 58.6024 190.909C59.5644 189.69 61.0394 189.049 62.5145 189.113Z" fill="black"/>
<path d="M97.7877 175.645C97.5953 175.645 97.4029 175.517 97.2746 175.388C96.8257 174.875 95.4148 173.464 94.3887 173.785C94.0039 173.913 93.619 173.657 93.4908 173.272C93.3625 172.887 93.619 172.502 94.0038 172.374C96.1202 171.797 98.1725 174.234 98.3649 174.491C98.6214 174.811 98.5573 175.26 98.2366 175.517C98.1725 175.645 97.9801 175.709 97.7877 175.645Z" fill="black"/>
<path d="M235.481 217.78C240.676 217.78 254.144 217.203 271.396 212.457C300.32 204.377 326.229 188.023 345.854 165.255C346.239 164.678 346.111 163.909 345.598 163.46C345.085 163.075 344.379 163.139 343.93 163.588C324.626 185.906 299.229 202.068 270.754 209.956C249.27 215.92 233.365 215.215 233.237 215.215C232.531 215.151 231.954 215.728 231.89 216.434C231.826 217.139 232.403 217.716 233.108 217.78C233.301 217.716 234.07 217.78 235.481 217.78Z" fill="#1D1D1B"/>
<path d="M-1.55427 335.144C-3.57318 335.144 -5.20982 333.507 -5.20982 331.488C-5.20982 329.469 -3.57318 327.833 -1.55427 327.833C0.464636 327.833 2.10132 329.469 2.10132 331.488C2.10132 333.507 0.464636 335.144 -1.55427 335.144Z" fill="white"/>
<path d="M89.3862 329.757C87.3673 329.757 85.7306 328.12 85.7306 326.101C85.7306 324.082 87.3673 322.445 89.3862 322.445C91.4051 322.445 93.0417 324.082 93.0417 326.101C93.0417 328.12 91.4051 329.757 89.3862 329.757Z" fill="white"/>
<path d="M70.5314 395.108C68.5125 395.108 66.8758 393.471 66.8758 391.453C66.8758 389.434 68.5125 387.797 70.5314 387.797C72.5503 387.797 74.187 389.434 74.187 391.453C74.187 393.471 72.5503 395.108 70.5314 395.108Z" fill="white"/>
<path d="M47.6359 360.733C45.617 360.733 43.9803 359.096 43.9803 357.077C43.9803 355.058 45.617 353.422 47.6359 353.422C49.6548 353.422 51.2915 355.058 51.2915 357.077C51.2915 359.096 49.6548 360.733 47.6359 360.733Z" fill="white"/>
<path d="M25.3815 420.056C23.3626 420.056 21.726 418.419 21.726 416.4C21.726 414.381 23.3626 412.745 25.3815 412.745C27.4004 412.745 29.0371 414.381 29.0371 416.4C29.0371 418.419 27.4004 420.056 25.3815 420.056Z" fill="white"/>
<path d="M9.21994 275.179C7.20103 275.179 5.56435 273.543 5.56435 271.524C5.56435 269.505 7.20103 267.868 9.21994 267.868C11.2388 267.868 12.8755 269.505 12.8755 271.524C12.8755 273.543 11.2388 275.179 9.21994 275.179Z" fill="white"/>
<path d="M32.821 310.901C30.8021 310.901 29.1654 309.265 29.1654 307.246C29.1654 305.227 30.8021 303.59 32.821 303.59C34.8399 303.59 36.4766 305.227 36.4766 307.246C36.4766 309.265 34.8399 310.901 32.821 310.901Z" fill="white"/>
<path d="M102.213 281.913C100.194 281.913 98.5573 280.277 98.5573 278.258C98.5573 276.239 100.194 274.602 102.213 274.602C104.232 274.602 105.868 276.239 105.868 278.258C105.868 280.277 104.232 281.913 102.213 281.913Z" fill="white"/>
<path d="M143.963 387.027C141.944 387.027 140.308 385.391 140.308 383.372C140.308 381.353 141.944 379.716 143.963 379.716C145.982 379.716 147.619 381.353 147.619 383.372C147.619 385.391 145.982 387.027 143.963 387.027Z" fill="white"/>
<path d="M187.125 360.733C185.106 360.733 183.469 359.096 183.469 357.077C183.469 355.058 185.106 353.422 187.125 353.422C189.144 353.422 190.781 355.058 190.781 357.077C190.781 359.096 189.144 360.733 187.125 360.733Z" fill="white"/>
<path d="M198.605 390.426C196.586 390.426 194.949 388.79 194.949 386.771C194.949 384.752 196.586 383.115 198.605 383.115C200.624 383.115 202.26 384.752 202.26 386.771C202.26 388.79 200.624 390.426 198.605 390.426Z" fill="white"/>
<path d="M5.82097 236.058C3.80207 236.058 2.16542 234.422 2.16542 232.403C2.16542 230.384 3.80207 228.747 5.82097 228.747C7.83988 228.747 9.47656 230.384 9.47656 232.403C9.47656 234.422 7.83988 236.058 5.82097 236.058Z" fill="white"/>
<path d="M233.365 376.445L221.244 342.776L210.469 344.828C210.469 344.828 203.735 366.377 221.949 384.59L233.365 376.445Z" fill="#13283E"/>
<path d="M222.783 341.749C222.783 341.749 236.572 284.799 259.467 310.517L287.108 301.025C287.108 301.025 300.897 310.388 282.042 324.818C282.042 324.818 286.339 334.823 281.4 343.545C281.4 343.545 288.84 353.165 274.987 363.426C259.98 374.521 234.455 375.548 234.455 375.548L222.783 341.749Z" fill="#FFCDB2"/>
<path d="M233.75 376.51H234.455C235.481 376.445 260.429 375.355 275.564 364.196C280.695 360.412 283.645 356.244 284.286 351.818C284.671 348.932 284.094 346.046 282.555 343.545C286.595 335.849 284.094 327.64 283.196 325.139C289.802 319.944 293.073 314.749 292.944 309.747C292.752 303.783 287.878 300.384 287.685 300.255L287.301 299.999L259.788 309.426C254.913 304.103 249.975 302.051 245.101 303.27C230.415 306.989 222.206 340.146 221.885 341.557L221.821 341.814L221.885 342.07L233.75 376.51ZM286.98 302.051C288.006 302.885 290.956 305.643 291.085 309.747C291.213 314.236 288.006 319.046 281.529 323.985L280.951 324.434L281.272 325.139C281.336 325.267 285.313 334.823 280.695 343.032L280.374 343.609L280.759 344.122C282.234 346.303 282.811 348.932 282.427 351.498C281.849 355.41 279.22 359.13 274.474 362.593C261.263 372.341 239.393 374.201 235.161 374.457L223.873 341.621C224.707 338.415 232.723 308.272 245.678 305.001C249.911 303.911 254.336 305.963 258.89 311.03L259.339 311.543L286.98 302.051Z" fill="#1D1D1B"/>
<path d="M272.358 365.735C264.918 369.711 252.99 365.607 255.811 357.911C258.184 351.498 262.225 350.151 262.225 350.151C262.225 350.151 248.051 350.151 252.092 338.03C256.132 325.909 281.08 324.562 281.08 324.562" fill="#FFCDB2"/>
<path d="M265.816 368.236C268.253 368.236 270.626 367.723 272.807 366.569C273.256 366.312 273.384 365.671 273.127 365.222C272.871 364.837 272.358 364.645 271.909 364.837C267.227 367.339 261.07 366.312 258.184 363.811C256.517 362.464 255.94 360.156 256.709 358.232C258.89 352.331 262.481 351.049 262.481 351.049C262.994 350.856 263.251 350.343 263.059 349.83C262.93 349.445 262.545 349.189 262.161 349.189C262.097 349.189 255.876 349.125 253.374 345.597C252.092 343.802 251.964 341.365 252.99 338.286C256.773 326.935 280.888 325.46 281.08 325.46C281.593 325.46 282.042 324.947 281.978 324.434C281.914 323.92 281.465 323.472 280.952 323.536C279.926 323.6 255.298 325.075 251.13 337.645C249.911 341.301 250.104 344.379 251.771 346.688C253.631 349.253 256.902 350.343 259.275 350.728C257.222 352.524 255.683 354.897 254.849 357.462C253.759 360.156 254.529 363.298 256.838 365.158C259.082 367.21 262.417 368.236 265.816 368.236Z" fill="#1D1D1B"/>
<path d="M260.814 350.985C260.878 350.985 261.006 350.985 261.07 350.92L281.657 344.635C282.17 344.507 282.427 343.93 282.298 343.417C282.17 342.904 281.593 342.647 281.08 342.776L260.493 349.061C259.98 349.253 259.724 349.766 259.852 350.279C260.044 350.792 260.429 351.049 260.814 350.985Z" fill="#1D1D1B"/>
<path d="M259.467 310.517C259.467 310.517 273.641 321.868 268.253 330.654C262.866 339.441 240.612 321.868 240.612 321.868" fill="#FFCDB2"/>
<path d="M263.379 333.989C263.892 333.989 264.405 333.925 264.918 333.861C266.65 333.605 268.189 332.578 269.087 331.103C274.859 321.74 260.686 310.196 260.108 309.747C259.724 309.426 259.082 309.491 258.762 309.875C258.441 310.26 258.505 310.901 258.89 311.222C259.018 311.35 272.358 322.125 267.484 330.077C266.842 331.103 265.816 331.809 264.598 332.001C264.149 332.065 263.764 332.129 263.315 332.129C255.363 332.129 241.446 321.227 241.253 321.099C240.804 320.778 240.227 320.842 239.906 321.291C239.586 321.74 239.65 322.317 240.099 322.638C240.676 323.087 254.657 333.989 263.379 333.989Z" fill="#1D1D1B"/>
<path d="M41.6715 405.434H-88.5185C-96.0862 405.434 -102.243 411.59 -102.243 419.158V419.992C-102.243 427.559 -96.0862 433.716 -88.5185 433.716H41.6715C49.2392 433.716 55.396 427.559 55.396 419.992V419.158C55.4601 411.59 49.3033 405.434 41.6715 405.434Z" fill="#86A5F3"/>
<path d="M-88.5187 434.678H41.6713C49.8162 434.678 56.4219 428.137 56.4219 419.992V419.158C56.4219 411.013 49.8162 404.472 41.6713 404.472H-88.5187C-96.6636 404.472 -103.205 411.077 -103.205 419.158V419.992C-103.205 428.072 -96.6636 434.678 -88.5187 434.678ZM41.6713 406.396C48.7259 406.396 54.4979 412.103 54.4979 419.158V419.992C54.4979 427.046 48.7259 432.754 41.6713 432.754H-88.5187C-95.5733 432.754 -101.281 427.046 -101.281 419.992V419.158C-101.281 412.103 -95.5733 406.396 -88.5187 406.396H41.6713Z" fill="#1D1E1B"/>
<path d="M41.6715 367.018H-88.5185C-96.0862 367.018 -102.243 373.175 -102.243 380.742V381.576C-102.243 389.144 -96.0862 395.301 -88.5185 395.301H41.6715C49.2392 395.301 55.396 389.144 55.396 381.576V380.742C55.4601 373.175 49.3033 367.018 41.6715 367.018Z" fill="#86A5F3"/>
<path d="M-88.5187 396.263H41.6713C49.8162 396.263 56.4219 389.721 56.4219 381.576V380.742C56.4219 372.597 49.8162 366.056 41.6713 366.056H-88.5187C-96.6636 366.056 -103.205 372.662 -103.205 380.742V381.576C-103.205 389.657 -96.6636 396.263 -88.5187 396.263ZM41.6713 367.98C48.7259 367.98 54.4979 373.688 54.4979 380.742V381.576C54.4979 388.631 48.7259 394.339 41.6713 394.339H-88.5187C-95.5733 394.339 -101.281 388.631 -101.281 381.576V380.742C-101.281 373.688 -95.5733 367.98 -88.5187 367.98H41.6713Z" fill="#1D1E1B"/>
<path d="M-25.7967 109.78L60.4622 109.139C61.5525 109.139 62.3862 108.305 62.3862 107.215C62.3862 106.125 61.5525 105.291 60.4622 105.291L-25.7967 105.932C-26.8869 105.932 -27.7206 106.766 -27.7206 107.856C-27.7206 108.947 -26.8228 109.78 -25.7967 109.78Z" fill="white"/>
<path d="M104.971 376.445C105.355 376.445 105.676 376.253 105.868 375.868C112.923 360.156 116.963 323.472 117.092 321.868C117.156 321.355 116.771 320.842 116.258 320.778C115.745 320.714 115.232 321.099 115.168 321.612C115.103 321.996 110.999 359.578 104.073 374.97C103.88 375.483 104.073 376.061 104.586 376.253C104.65 376.445 104.842 376.51 104.971 376.445Z" fill="#1D1E1B"/>
<path d="M110.04 191.367C109.711 189.339 111.088 187.429 113.116 187.1C115.144 186.771 117.055 188.148 117.384 190.176C117.713 192.203 116.336 194.114 114.308 194.443C112.28 194.772 110.369 193.395 110.04 191.367Z" fill="#1D1D1B"/>
<path d="M89.1297 190.78C87.0755 190.78 85.41 189.115 85.41 187.061C85.41 185.006 87.0755 183.341 89.1297 183.341C91.1838 183.341 92.8494 185.006 92.8494 187.061C92.8494 189.115 91.1838 190.78 89.1297 190.78Z" fill="#1D1D1B"/>
<path d="M113.372 190.075C112.805 190.075 112.346 189.616 112.346 189.049C112.346 188.482 112.805 188.023 113.372 188.023C113.939 188.023 114.398 188.482 114.398 189.049C114.398 189.616 113.939 190.075 113.372 190.075Z" fill="white"/>
<path d="M111.705 192.063C111.351 192.063 111.063 191.776 111.063 191.422C111.063 191.068 111.351 190.78 111.705 190.78C112.059 190.78 112.346 191.068 112.346 191.422C112.346 191.776 112.059 192.063 111.705 192.063Z" fill="white"/>
<path d="M89.8352 186.74C89.2682 186.74 88.8091 186.281 88.8091 185.714C88.8091 185.147 89.2682 184.688 89.8352 184.688C90.4021 184.688 90.8613 185.147 90.8613 185.714C90.8613 186.281 90.4021 186.74 89.8352 186.74Z" fill="white"/>
<path d="M88.1678 188.664C87.8137 188.664 87.5264 188.377 87.5264 188.023C87.5264 187.669 87.8137 187.381 88.1678 187.381C88.5218 187.381 88.8091 187.669 88.8091 188.023C88.8091 188.377 88.5218 188.664 88.1678 188.664Z" fill="white"/>
<path d="M83.8709 214.061C84.3839 214.061 84.8329 213.612 84.8329 213.099C84.8329 212.714 84.6405 212.393 84.3198 212.265C82.5882 211.367 82.2034 208.417 82.2034 206.108C87.1417 210.982 95.9279 209.956 96.3768 209.892C96.8899 209.828 97.2747 209.315 97.2105 208.802C97.1464 208.289 96.6334 207.904 96.1203 207.968C95.992 207.968 85.9231 209.187 82.2034 203.03C81.9469 202.581 81.3697 202.453 80.9208 202.709C80.6642 202.837 80.4718 203.094 80.4718 203.415C80.4077 203.735 79.2533 211.816 83.4219 213.996C83.5502 214.061 83.6785 214.061 83.8709 214.061Z" fill="black"/>
<path d="M181.096 446.094C209.636 446.094 226.182 434.678 235.096 425.058C244.909 414.412 247.666 403.83 247.795 403.381C247.987 402.676 247.538 401.97 246.897 401.842C246.255 401.714 245.486 402.099 245.358 402.74C245.358 402.868 242.6 413.258 233.172 423.455C224.643 432.69 208.738 443.593 181.16 443.593H179.878C179.172 443.593 178.595 444.17 178.595 444.875C178.595 445.581 179.172 446.158 179.878 446.158L181.096 446.094Z" fill="#1D1D1B"/>
<path d="M153.519 334.887C153.648 334.887 153.84 334.887 153.968 334.823C154.994 334.567 155.636 333.54 155.379 332.514C148.325 303.141 133.766 284.928 122.8 274.859C110.871 263.892 100.674 259.916 100.289 259.723C99.327 259.339 98.1726 259.787 97.7878 260.749C97.403 261.711 97.8519 262.866 98.8139 263.251H98.8781C99.0705 263.315 108.947 267.227 120.298 277.745C130.816 287.493 144.797 305.001 151.595 333.348C151.852 334.246 152.622 334.887 153.519 334.887Z" fill="white"/>
<path d="M203.287 17.2364H156.213C150.056 17.2364 145.054 22.2388 145.054 28.3956V75.4692C145.054 81.626 150.056 86.6283 156.213 86.6283H203.287C209.443 86.6283 214.446 81.626 214.446 75.4692V28.3956C214.51 22.2388 209.507 17.2364 203.287 17.2364Z" fill="#86A5F3"/>
<path d="M156.277 87.5903H203.286C210.02 87.5903 215.472 82.139 215.472 75.4692V28.3956C215.472 21.6616 210.02 16.2744 203.286 16.2744H156.213C149.543 16.3385 144.092 21.7257 144.092 28.3956V75.4692C144.156 82.139 149.543 87.5903 156.277 87.5903ZM203.286 18.1984C208.93 18.1984 213.548 22.7518 213.548 28.3956V75.4692C213.548 81.1129 208.93 85.6663 203.286 85.6663H156.213C150.569 85.6663 146.016 81.0488 146.016 75.4692V28.3956C146.016 22.7518 150.633 18.1984 156.213 18.1984H203.286Z" fill="#1D1E1B"/>
<path d="M180.134 75.7899C166.746 75.7899 155.892 64.936 155.892 51.5476C155.892 38.1592 166.746 27.3053 180.134 27.3053C193.523 27.3053 204.377 38.1592 204.377 51.5476C204.377 64.936 193.523 75.7899 180.134 75.7899Z" fill="#F8A863"/>
<path d="M180.134 76.816C194.051 76.816 205.339 65.5286 205.339 51.6117C205.339 37.6948 194.051 26.4074 180.134 26.4074C166.217 26.4074 154.93 37.6948 154.93 51.6117C154.93 65.5286 166.217 76.816 180.134 76.816ZM180.134 28.2673C193.025 28.2673 203.415 38.7209 203.415 51.5476C203.415 64.3742 192.961 74.8278 180.134 74.8278C167.308 74.8278 156.854 64.4383 156.854 51.5476C156.854 38.7209 167.244 28.2673 180.134 28.2673Z" fill="black"/>
<path d="M178.659 27.3694C178.659 27.3694 204.761 52.1889 181.353 75.7898L178.659 27.3694Z" fill="#F8A863"/>
<path d="M181.994 76.4953C188.792 69.6972 192.127 62.0654 191.999 53.8564C191.743 38.721 179.75 27.1129 179.237 26.664L177.89 28.0749C178.018 28.2032 189.819 39.6188 190.011 53.9205C190.139 61.5523 186.933 68.6711 180.519 75.1485L181.994 76.4953Z" fill="black"/>
<path d="M179.237 62.5143C181.545 62.5143 183.918 62.3219 186.227 61.9371C192.64 60.911 198.797 58.9229 204.569 56.0369L203.671 54.3694C203.351 54.5618 172.118 70.7875 156.662 49.9442L155.123 51.0986C160.702 58.6022 168.975 62.5143 179.237 62.5143Z" fill="black"/>
<path d="M133.317 32.7566L135.241 32.6283C134.6 20.1865 137.486 11.4644 143.643 6.7186C153.134 -0.592561 167.5 3.89675 167.693 3.96088L168.27 2.10102C167.628 1.90863 152.814 -2.70895 142.488 5.17941C135.754 10.3742 132.676 19.6093 133.317 32.7566Z" fill="black"/>
<path d="M201.042 98.3647C214.959 98.3647 224.707 95.158 230.094 88.873C233.236 85.2815 234.776 80.4716 234.327 75.7257L232.403 76.0464C232.723 80.2792 231.377 84.5119 228.555 87.7186C223.552 93.5547 214.253 96.5048 200.978 96.5048L201.042 98.3647Z" fill="black"/>
<path d="M391.004 213.355H319.752C310.389 213.355 302.821 220.923 302.821 230.286V301.538C302.821 310.901 310.389 318.469 319.752 318.469H391.004C400.367 318.469 407.935 310.901 407.935 301.538V230.286C407.935 220.923 400.367 213.355 391.004 213.355Z" fill="#86A5F3"/>
<path d="M319.752 319.431H391.004C400.88 319.431 408.897 311.415 408.897 301.538V230.286C408.897 220.41 400.88 212.393 391.004 212.393H319.752C309.876 212.393 301.859 220.41 301.859 230.286V301.538C301.859 311.415 309.876 319.431 319.752 319.431ZM391.004 214.317C399.854 214.317 406.973 221.5 406.973 230.286V301.538C406.973 310.388 399.79 317.507 391.004 317.507H319.752C310.902 317.507 303.783 310.324 303.783 301.538V230.286C303.783 221.5 310.966 214.317 319.752 214.317H391.004Z" fill="#1D1E1B"/>
<path d="M392.158 334.695C407.101 334.695 417.811 330.911 424.032 323.407C432.562 313.146 429.484 299.871 429.355 299.293C429.227 298.588 428.586 298.139 427.88 298.267C427.175 298.396 426.726 299.037 426.854 299.742C426.854 299.806 426.854 299.871 426.918 299.871C426.983 300.063 429.804 312.505 422.044 321.74C415.631 329.436 403.83 332.899 387.092 332.001C386.386 331.937 385.809 332.514 385.745 333.22C385.681 333.925 386.258 334.502 386.964 334.567C388.759 334.695 390.491 334.695 392.158 334.695Z" fill="#1D1D1B"/>
<path d="M308.529 245.935H308.657C309.747 245.871 310.517 244.973 310.453 243.947C310.068 237.084 311.799 231.697 315.519 227.913C322.189 221.244 333.22 221.692 333.348 221.692C334.438 221.757 335.336 220.923 335.4 219.897C335.464 218.871 334.631 217.909 333.605 217.844C333.092 217.844 320.778 217.267 312.89 225.156C308.336 229.709 306.22 236.122 306.669 244.075C306.605 245.101 307.502 245.935 308.529 245.935Z" fill="white"/>
<path d="M356.291 250.859L345.656 283.274H337.089L351.618 244.172H357.07L356.291 250.859ZM365.126 283.274L354.465 250.859L353.605 244.172H359.111L373.72 283.274H365.126ZM364.643 268.718V275.029H343.991V268.718H364.643Z" fill="black"/>
</svg>
