<svg width="341" height="377" viewBox="0 0 341 377" fill="none" xmlns="http://www.w3.org/2000/svg">
<path d="M340.623 376.301C340.289 376.301 339.996 376.008 339.996 375.674V133.178C339.996 132.843 340.289 132.551 340.623 132.551C340.957 132.551 341.25 132.843 341.25 133.178V375.674C341.25 376.008 340.957 376.301 340.623 376.301Z" fill="#1D1E1B"/>
<path d="M289.364 242.51C264.78 271.902 237.395 295.274 206.623 311.412C157.748 337.042 97.3328 323.872 63.2997 280.431C27.9288 235.402 7.77652 181.301 0.710693 119.548C64.9303 110.893 108.161 105.751 156.661 52.9034C173.134 145.219 199.725 247.318 289.364 242.51Z" fill="#ABB8FF"/>
<path d="M153.609 325.084C118.154 325.084 84.6645 308.778 62.7981 280.891C45.1962 258.314 31.0228 233.27 20.8212 206.512C10.6196 180.046 3.67925 150.822 0.083618 119.673L0 119.046L3.21934 118.628C66.6028 110.099 108.496 104.455 156.201 52.5271L157.037 51.6073L157.246 52.8616C165.106 96.8453 175.893 146.808 196.129 183.893C218.623 225.117 249.102 244.099 289.323 241.967L290.786 241.883L289.824 242.928C264.53 273.198 236.601 296.445 206.874 311.998C190.443 320.61 172.172 325.084 153.609 325.084ZM1.37972 120.091C8.65459 182.68 29.643 236.531 63.8015 280.097C97.7509 323.412 157.706 336.373 206.331 310.911C235.555 295.608 263.024 272.822 287.985 243.263C267.205 244.099 248.642 239.124 232.796 228.462C218.372 218.762 205.703 203.962 195.042 184.478C174.932 147.602 164.145 98.0996 156.284 54.2831C134.376 77.9474 111.924 93.4587 85.8352 103.075C61.2511 112.106 34.4511 115.701 3.42839 119.882L1.37972 120.091Z" fill="#1D1E1B"/>
<path d="M80.7761 298.368C80.7761 298.368 125.721 311.287 148.299 284.111C148.299 284.111 167.949 328.847 199.515 314.841C199.515 314.841 138.682 346.073 80.7761 298.368Z" fill="#3E4EC4"/>
<path d="M152.48 325.502C142.738 325.502 132.996 324.206 123.589 321.656C108.203 317.433 93.6534 309.782 80.3579 298.828L78.0166 296.904L80.9433 297.741C88.8035 299.747 96.8727 300.751 104.984 300.793H106.071C118.739 300.625 136.299 297.532 147.797 283.693L148.424 282.898L148.842 283.818C148.968 284.069 159.671 308.109 177.565 315.05C184.631 317.767 191.906 317.517 199.223 314.255L199.766 315.384C199.599 315.468 184.171 323.286 161.887 325.084C158.751 325.377 155.615 325.502 152.48 325.502ZM83.3682 299.664C112.384 322.534 141.902 325.502 161.761 323.913C171.294 323.119 180.701 321.196 189.774 318.144C185.467 318.52 181.161 317.893 177.147 316.304C160.8 309.949 150.347 289.839 148.173 285.323C136.341 298.911 118.823 301.963 106.113 302.131C98.4197 302.131 90.8104 301.294 83.3682 299.664Z" fill="#1D1E1B"/>
<path d="M39.2174 158.055L39.1338 156.8C39.301 156.8 55.7322 155.588 76.2607 149.693C95.1587 144.257 121.457 133.68 139.477 113.945L140.397 114.782C122.168 134.767 95.6186 145.47 76.5534 150.905C55.9413 156.842 39.3847 158.055 39.2174 158.055Z" fill="#1D1E1B"/>
<path d="M59.2025 186.067C56.1504 186.109 53.0565 185.942 50.0044 185.649L50.1716 184.395C50.2971 184.395 64.0106 186.109 83.1594 182.555C108.371 177.914 131.7 166.124 150.431 148.606L151.309 149.525C132.411 167.211 108.789 179.127 83.3267 183.809C75.341 185.273 67.2718 186.067 59.2025 186.067Z" fill="#1D1E1B"/>
<path d="M73.9194 224.197C71.2436 224.197 69.6967 224.072 69.613 224.072L69.6967 222.818C78.7275 223.194 87.7166 222.483 96.5802 220.727C110.252 218.093 129.275 211.696 142.32 196.269L143.282 197.063C129.986 212.742 110.67 219.264 96.7893 221.94C89.3054 223.445 81.6124 224.197 73.9194 224.197Z" fill="#1D1E1B"/>
<path d="M57.1536 251.081C56.4847 251.081 55.8157 250.788 55.314 250.287C31.6497 225.368 16.0129 146.599 15.3858 143.254C15.1349 141.874 16.0129 140.578 17.3508 140.327C18.7306 140.076 20.0267 140.954 20.2775 142.292C20.4448 143.087 36.2906 222.985 58.9514 246.816C59.9131 247.82 59.8712 249.409 58.8678 250.37C58.4079 250.83 57.7808 251.081 57.1536 251.081Z" fill="white"/>
<path d="M29.1413 131.296C28.8905 131.296 28.6396 131.129 28.556 130.878C23.0371 114.071 20.3195 96.469 20.5285 78.7835C20.6958 64.7773 22.7444 50.8965 26.5909 37.4338C33.155 14.4385 42.7713 0.432293 42.8967 0.265054C43.1057 -0.0276134 43.482 -0.0694221 43.7747 0.0978164C44.0674 0.306865 44.1092 0.683151 43.9419 0.975818C43.8583 1.10125 34.2839 14.982 27.8034 37.8101C21.8246 58.8403 17.3092 91.9954 29.8103 130.46C29.8939 130.795 29.7267 131.129 29.3922 131.255C29.2668 131.255 29.1831 131.296 29.1413 131.296Z" fill="#1D1E1B"/>
<path d="M50.0461 124.607C49.837 124.607 49.6698 124.523 49.5444 124.356C36.876 108.176 37.545 87.6054 40.3462 73.1811C42.2277 63.6067 45.2798 54.3249 49.5026 45.5449C49.6698 45.2522 50.0461 45.1268 50.3387 45.2522C50.6314 45.4195 50.7568 45.7958 50.5896 46.0884C46.4504 54.7848 43.3983 63.9829 41.5587 73.4319C38.8411 87.6054 38.1721 107.799 50.5478 123.603C50.7568 123.896 50.715 124.272 50.4224 124.481C50.3387 124.565 50.1715 124.607 50.0461 124.607Z" fill="#1D1E1B"/>
<path d="M117.82 338.965C109.123 339.007 100.51 337.292 92.4829 333.948C83.7029 330.268 75.5082 324.582 68.1079 317.057C55.5232 304.263 49.5444 290.34 49.4608 290.215C49.3354 289.88 49.4608 289.546 49.7953 289.379C50.1297 289.253 50.4642 289.379 50.6315 289.713C50.6733 289.839 56.6102 303.594 69.0277 316.22C80.4835 327.844 99.925 340.888 127.728 337C128.063 336.958 128.397 337.209 128.439 337.543C128.481 337.878 128.23 338.212 127.896 338.254C124.551 338.714 121.164 338.965 117.82 338.965Z" fill="#1D1E1B"/>
<path d="M263.443 102.95C254.244 103.66 245.59 102.908 237.646 100.357C224.978 96.26 217.076 83.7171 218.79 70.5052C220.588 56.8335 226.483 44.2488 235.89 32.6257C248.224 42.2001 256.377 48.7642 273.644 48.1789C260.558 66.5751 247.513 88.358 263.443 102.95Z" fill="#ABB8FF"/>
<path d="M257.004 103.828C250.356 103.911 243.75 102.908 237.437 100.943C224.476 96.7617 216.407 83.9261 218.163 70.4216C219.919 57.0425 225.73 44.1652 235.388 32.2076L235.764 31.7477L236.726 32.5003C248.809 41.9074 256.795 48.0953 273.602 47.5518L274.856 47.5099L274.104 48.5552C259.93 68.4984 248.851 88.8179 263.819 102.49L264.864 103.451L263.442 103.577C261.31 103.744 259.136 103.828 257.004 103.828ZM236.015 33.4619C226.734 45.085 221.131 57.5861 219.417 70.5471C217.703 83.4244 225.437 95.7165 237.813 99.7302C245.046 102.072 253.157 102.95 261.979 102.406C248.098 88.358 258.593 68.4148 272.39 48.806C255.959 49.0569 247.555 42.4928 236.015 33.4619Z" fill="#1D1E1B"/>
<path d="M218.664 76.5258C218.664 76.5258 224.016 86.4347 232.503 85.7239C232.503 85.7239 228.113 96.6362 235.848 99.6884C235.848 99.7302 220.253 94.504 218.664 76.5258Z" fill="#3E4EC4"/>
<path d="M235.681 100.315C235.514 100.274 219.668 94.7966 218.079 76.6094L217.828 73.6409L219.25 76.2749C219.291 76.3586 224.518 85.8075 232.503 85.1386L233.507 85.055L233.13 86.0166C233.089 86.0584 230.873 91.7863 232.587 95.8419C233.256 97.3888 234.51 98.6013 236.099 99.1866L235.681 100.315ZM219.668 79.1598C221.424 88.8178 227.486 94.2113 231.709 96.8871C231.583 96.6781 231.5 96.469 231.416 96.26C229.869 92.7061 230.998 88.2325 231.625 86.3511C225.939 86.3929 221.758 82.0029 219.668 79.1598Z" fill="#1D1E1B"/>
<path d="M259.471 56.2899C247.137 56.2899 235.932 46.5065 235.472 46.0466L236.308 45.085C236.434 45.2104 248.14 55.4119 260.265 54.9938L260.307 56.2481C260.014 56.2899 259.763 56.2899 259.471 56.2899Z" fill="#1D1E1B"/>
<path d="M256.126 64.0247C240.865 63.3558 232.545 52.6107 232.461 52.5271L233.465 51.7745C233.548 51.8999 241.492 62.1433 256.167 62.7704L256.126 64.0247Z" fill="#1D1E1B"/>
<path d="M245.506 70.7143C236.392 70.7143 229.493 62.7286 229.2 62.3942L230.162 61.5998C230.246 61.6834 237.562 70.0871 246.593 69.46L246.677 70.7143C246.259 70.7143 245.882 70.7143 245.506 70.7143Z" fill="#1D1E1B"/>
<path d="M223.264 65.1118C222.636 65.1118 222.218 64.6101 222.218 64.0247C222.511 55.621 233.507 39.5661 233.967 38.8553C234.301 38.3536 234.928 38.2282 235.43 38.5627C235.932 38.8971 236.057 39.5243 235.723 40.026C235.723 40.026 235.723 40.0678 235.681 40.0678C235.556 40.2351 224.601 56.3318 224.309 64.1084C224.267 64.6519 223.807 65.1118 223.264 65.1118Z" fill="white"/>
<path d="M213.522 66.4914C213.187 66.4914 212.895 66.1988 212.895 65.8643C213.104 47.7607 219.877 34.967 225.521 27.3994C231.625 19.2047 237.604 15.3164 237.855 15.191C238.148 15.0238 238.524 15.1074 238.691 15.4419C238.858 15.7345 238.775 16.069 238.524 16.2781C238.44 16.3199 232.461 20.2082 226.483 28.2356C220.964 35.6359 214.358 48.1788 214.149 65.9061C214.149 66.1988 213.856 66.4914 213.522 66.4914Z" fill="#1D1E1B"/>
<path d="M259.052 207.683C255.749 199.07 254.035 190.583 254.202 182.221C254.537 168.925 264.32 157.762 277.49 155.671C291.12 153.497 304.876 155.588 318.673 161.316C312.987 175.866 309.015 185.565 314.492 201.955C293.127 194.596 268.501 188.241 259.052 207.683Z" fill="#ABB8FF"/>
<path d="M258.969 209.23L258.467 207.892C255.039 198.986 253.408 190.332 253.575 182.179C253.91 168.591 263.944 157.135 277.365 155.044C290.702 152.912 304.667 154.835 318.882 160.689L319.467 160.939L319.007 162.11C313.447 176.367 309.726 185.774 315.036 201.746L315.454 202.958L314.241 202.54C291.079 194.596 268.46 189.788 259.596 207.975L258.969 209.23ZM288.068 155.421C284.556 155.421 281.044 155.713 277.574 156.257C264.739 158.305 255.164 169.218 254.83 182.221C254.662 189.788 256.084 197.857 259.136 206.136C268.669 188.827 290.744 193.217 313.489 200.909C308.639 185.231 312.527 175.28 317.837 161.608C307.761 157.511 297.768 155.421 288.068 155.421Z" fill="#1D1E1B"/>
<path d="M271.679 157.218C271.679 157.218 263.693 165.162 266.787 173.106C266.787 173.106 255.08 172.019 254.328 180.297C254.328 180.297 254.871 163.866 271.679 157.218Z" fill="#3E4EC4"/>
<path d="M254.955 180.381L253.701 180.297C253.701 180.13 254.453 163.364 271.428 156.675L274.229 155.588L272.097 157.72C272.013 157.804 264.446 165.497 267.372 172.939L267.749 173.9L266.745 173.817C266.662 173.817 260.557 173.273 257.171 176.116C255.833 177.12 255.039 178.667 254.955 180.381ZM269.421 158.933C260.683 163.323 257.213 170.681 255.833 175.531C256 175.364 256.167 175.197 256.335 175.071C259.303 172.604 263.902 172.395 265.867 172.437C264.279 167.002 267.289 161.734 269.421 158.933Z" fill="#1D1E1B"/>
<path d="M302.911 191.377C298.897 179.378 305.378 165.246 305.628 164.661L306.757 165.204C306.674 165.329 300.193 179.461 304.082 191.001L302.911 191.377Z" fill="#1D1E1B"/>
<path d="M294.298 189.579C290.577 174.737 298.521 163.741 298.604 163.657L299.608 164.41C299.524 164.535 291.957 175.071 295.51 189.286L294.298 189.579Z" fill="#1D1E1B"/>
<path d="M285.225 182.388C281.797 173.315 287.943 163.699 288.194 163.281L289.239 163.95C289.197 164.033 283.177 173.441 286.396 181.928L285.225 182.388Z" fill="#1D1E1B"/>
<path d="M311.774 163.197C311.649 163.197 311.565 163.197 311.44 163.155C311.231 163.114 292.709 157.135 285.141 159.1C284.598 159.225 284.013 158.891 283.887 158.305C283.762 157.762 284.096 157.218 284.64 157.051C292.793 154.961 311.314 160.898 312.109 161.149C312.652 161.316 312.945 161.901 312.778 162.445C312.652 162.946 312.234 163.239 311.774 163.197Z" fill="white"/>
<path d="M243.625 168.089C243.583 168.089 243.499 168.089 243.457 168.047C243.123 167.963 242.956 167.587 243.039 167.253C243.123 166.918 245.464 159.267 253.325 152.578C260.558 146.432 273.937 140.076 296.848 144.634C297.183 144.717 297.392 145.052 297.308 145.386C297.225 145.721 296.932 145.888 296.598 145.846C278.87 142.292 264.195 144.926 254.161 153.456C246.593 159.894 244.252 167.504 244.21 167.587C244.168 167.88 243.917 168.089 243.625 168.089Z" fill="#1D1E1B"/>
<path d="M202.944 256.6L188.06 266.425C184.548 268.725 179.823 267.763 177.524 264.251L137.261 203.251L164.814 185.064L205.076 246.064C207.418 249.576 206.414 254.259 202.944 256.6Z" fill="#3E4EC4"/>
<path d="M183.879 268.265C181.119 268.265 178.527 266.885 176.98 264.586L136.383 203.042L164.981 184.144L205.578 245.688C208.087 249.492 207.041 254.593 203.278 257.102L188.394 266.927C187.056 267.805 185.468 268.307 183.879 268.265ZM138.139 203.418L178.067 263.917C180.2 267.136 184.506 268.014 187.725 265.882L202.61 256.056C205.829 253.924 206.707 249.618 204.575 246.398L164.646 185.9L138.139 203.418Z" fill="#1D1E1B"/>
<path d="M135.17 170.807L164.813 185.064L137.261 203.251L135.17 170.807Z" fill="white"/>
<path d="M136.717 204.338L134.46 169.761L166.11 184.938L136.717 204.338ZM135.881 171.852L137.846 202.122L163.559 185.147L135.881 171.852Z" fill="#1D1D1B"/>
<path d="M149.971 177.914L136.216 187.029L135.212 170.514L149.971 177.914Z" fill="#F8A863"/>
<path d="M135.212 170.514L150.013 177.914L136.216 187.029L135.212 170.514ZM135.212 169.26C134.962 169.26 134.711 169.343 134.543 169.469C134.167 169.72 133.958 170.138 134 170.598L135.003 187.112C135.045 187.572 135.296 187.949 135.672 188.158C135.84 188.241 136.049 188.283 136.216 188.283C136.467 188.283 136.718 188.199 136.927 188.074L150.724 178.959C151.309 178.583 151.476 177.789 151.058 177.203C150.933 177.036 150.766 176.869 150.557 176.785L135.756 169.385C135.589 169.301 135.421 169.26 135.212 169.26Z" fill="#1D1E1B"/>
<path d="M200.979 258.481C200.77 258.481 200.561 258.356 200.435 258.189L157.204 190.039C157.037 189.746 157.121 189.37 157.413 189.161C157.706 188.994 158.082 189.077 158.249 189.328L201.481 257.478C201.648 257.771 201.564 258.147 201.271 258.356C201.23 258.44 201.104 258.481 200.979 258.481Z" fill="#1D1E1B"/>
<path d="M189.941 265.756C189.732 265.756 189.523 265.631 189.398 265.464L145.916 197.481C145.748 197.188 145.832 196.812 146.125 196.603C146.417 196.436 146.794 196.519 147.003 196.812L190.485 264.795C190.652 265.087 190.568 265.464 190.276 265.673C190.192 265.756 190.067 265.756 189.941 265.756Z" fill="#1D1E1B"/>
<path d="M341.041 355.187C316.29 362.964 230.998 345.654 220.42 329.558C209.843 313.461 219.083 303.259 219.083 303.259L208.797 292.891L236.434 250.245L244.712 255.555C244.712 255.555 260.725 243.848 274.48 255.178C288.236 266.509 337.027 264.92 340.958 274.494" fill="#F15F7B"/>
<path d="M323.648 357.737C310.645 357.737 293.503 355.731 275.274 351.968C252.363 347.201 225.772 338.881 219.877 329.934C210.428 315.551 216.574 305.559 218.246 303.343L208.003 293.016L236.308 249.367L244.795 254.802C247.262 253.172 262.146 244.141 274.982 254.718C281.797 260.321 297.81 262.788 311.941 264.962C326.784 267.22 339.578 269.226 341.626 274.285L340.456 274.745C338.658 270.355 325.571 268.348 311.732 266.216C296.723 263.917 281.211 261.533 274.146 255.722C260.934 244.851 245.297 256.015 245.13 256.098L244.795 256.349L236.684 251.123L209.675 292.849L220.002 303.301L219.584 303.719C219.208 304.137 210.846 313.795 220.964 329.265C225.646 336.373 247.053 344.818 275.567 350.755C303.914 356.65 329.543 358.155 340.832 354.602L341.208 355.814C337.069 357.11 331.007 357.737 323.648 357.737Z" fill="#1D1D1B"/>
<path d="M244.628 257.102C244.628 257.102 255.289 279.804 219.96 303.678L210.093 293.225L236.433 252.335L244.628 257.102Z" fill="#430E15"/>
<path d="M298.772 285.323C301.219 285.323 303.203 283.339 303.203 280.891C303.203 278.444 301.219 276.459 298.772 276.459C296.324 276.459 294.34 278.444 294.34 280.891C294.34 283.339 296.324 285.323 298.772 285.323Z" fill="white"/>
<path d="M254.161 289.88C256.608 289.88 258.593 287.896 258.593 285.449C258.593 283.001 256.608 281.017 254.161 281.017C251.713 281.017 249.729 283.001 249.729 285.449C249.729 287.896 251.713 289.88 254.161 289.88Z" fill="white"/>
<path d="M243.541 336.707C245.988 336.707 247.973 334.723 247.973 332.275C247.973 329.828 245.988 327.844 243.541 327.844C241.093 327.844 239.109 329.828 239.109 332.275C239.109 334.723 241.093 336.707 243.541 336.707Z" fill="white"/>
<path d="M300.946 332.652C303.393 332.652 305.378 330.667 305.378 328.22C305.378 325.772 303.393 323.788 300.946 323.788C298.498 323.788 296.514 325.772 296.514 328.22C296.514 330.667 298.498 332.652 300.946 332.652Z" fill="white"/>
<path d="M267.707 317.684C270.154 317.684 272.139 315.7 272.139 313.252C272.139 310.804 270.154 308.82 267.707 308.82C265.259 308.82 263.275 310.804 263.275 313.252C263.275 315.7 265.259 317.684 267.707 317.684Z" fill="white"/>
<path d="M206.205 217.424C201.146 212.867 191.697 209.021 186.973 208.477C184.882 208.268 182.792 208.519 180.827 209.313C180.827 209.313 196.338 229.842 196.171 230.385L149.26 219.389C149.26 219.389 134.209 232.768 159.044 247.067C159.044 247.067 155.448 259.694 162.723 269.394C162.723 269.394 155.783 278.257 173.51 292.138C191.237 306.019 220.504 300.96 220.504 300.96L231.96 254.635C231.96 254.635 217.912 226.204 206.205 217.424Z" fill="#FFCDB2"/>
<path d="M207.878 302.674C197.718 302.674 183.503 300.918 173.008 292.723C157.079 280.264 160.424 271.568 161.72 269.352C155.532 260.655 157.455 250.119 158.082 247.402C149.344 242.259 144.578 236.615 143.951 230.636C143.24 223.654 148.466 218.929 148.675 218.72L149.01 218.428L194.415 229.131C191.823 225.41 184.84 216.003 180.2 209.857L179.531 208.979L180.534 208.561C182.625 207.724 184.84 207.432 187.056 207.683C192.199 208.268 201.69 212.282 206.707 216.797C218.414 225.619 232.127 253.13 232.671 254.3L232.796 254.593L221.131 301.671L220.588 301.754C216.407 302.381 212.142 302.716 207.878 302.674ZM149.511 220.309C148.466 221.396 145.08 225.326 145.623 230.553C146.208 236.071 150.849 241.423 159.462 246.357L160.047 246.691L159.88 247.318C159.838 247.444 156.494 259.652 163.434 268.892L163.81 269.394L163.392 269.895C163.141 270.23 157.288 278.341 174.054 291.469C189.983 303.928 215.821 300.793 219.877 300.207L231.124 254.76C229.66 251.834 216.574 226.204 205.745 218.093L205.703 218.051C200.979 213.787 191.781 209.857 186.931 209.313C185.342 209.146 183.753 209.271 182.248 209.731C183.544 211.445 186.429 215.292 189.272 219.138C197.258 229.884 197.174 230.093 196.965 230.636L196.714 231.347L149.511 220.309Z" fill="#212B42"/>
<path d="M185.175 257.478C186.429 257.562 187.642 257.562 188.896 257.52C189.356 257.394 189.607 256.934 189.481 256.474C189.398 256.14 189.105 255.931 188.77 255.889C188.603 255.889 173.343 256.809 159.796 246.231C159.378 246.022 158.877 246.189 158.667 246.607C158.5 246.9 158.542 247.276 158.793 247.527C166.402 253.381 175.559 256.851 185.175 257.478Z" fill="black"/>
<path d="M186.262 278.717C188.018 278.843 189.147 278.801 189.314 278.801C189.774 278.717 190.067 278.257 189.941 277.797C189.858 277.463 189.607 277.212 189.272 277.17C189.105 277.17 172.13 277.463 162.849 268.139C162.472 267.888 161.929 267.972 161.678 268.39C161.511 268.683 161.511 269.017 161.678 269.31C169.12 276.752 180.743 278.383 186.262 278.717Z" fill="black"/>
<path d="M196.254 297.573C203.237 297.991 207.752 296.11 207.919 296.026C208.379 295.943 208.672 295.483 208.588 295.023C208.505 294.563 208.045 294.27 207.585 294.354C207.459 294.396 207.376 294.438 207.25 294.479C207.041 294.563 188.854 301.963 169.12 282.104C168.744 281.853 168.2 281.937 167.949 282.313C167.74 282.606 167.74 282.982 167.949 283.233C178.694 294.02 188.938 296.904 195.669 297.448L196.254 297.573Z" fill="white"/>
<path d="M187.391 274.453C188.143 274.494 188.645 274.536 188.771 274.536C189.23 274.536 189.565 274.202 189.607 273.742C189.607 273.282 189.272 272.906 188.812 272.906C188.603 272.906 166.57 272.153 162.974 262.83C162.723 262.453 162.221 262.328 161.803 262.579C161.511 262.746 161.385 263.08 161.427 263.415C164.897 272.404 182.29 274.118 187.391 274.453Z" fill="white"/>
<path d="M185.091 252.335C185.551 252.294 185.885 251.875 185.844 251.416C185.802 251.081 185.593 250.83 185.3 250.705C185.007 250.663 157.957 245.353 151.351 232.81C151.225 232.35 150.765 232.099 150.305 232.267C149.846 232.392 149.595 232.852 149.762 233.312C149.804 233.396 149.846 233.521 149.929 233.605C156.911 246.9 183.879 252.126 185.049 252.377C185.007 252.294 185.049 252.335 185.091 252.335Z" fill="white"/>
<path d="M318.882 353.097H318.757C241.66 348.079 226.984 326.715 226.399 325.795C225.772 324.833 226.065 323.537 227.068 322.91C228.03 322.325 229.284 322.576 229.911 323.495C229.995 323.621 233.59 328.722 246.217 334.324C257.965 339.592 280.166 346.365 319.049 348.916C320.22 348.957 321.098 349.919 321.056 351.09C321.014 352.219 320.053 353.138 318.882 353.097Z" fill="white"/>
</svg>
