<svg width="430" height="516" viewBox="0 0 430 516" fill="none" xmlns="http://www.w3.org/2000/svg">
<mask id="mask0_10_1606" style="mask-type:alpha" maskUnits="userSpaceOnUse" x="-174" y="-112" width="772" height="628">
<ellipse cx="212" cy="202" rx="386" ry="314" fill="url(#paint0_linear_10_1606)"/>
</mask>
<g mask="url(#mask0_10_1606)">
<path d="M-117.443 589.894V208.431C-117.443 189.64 -102.179 174.377 -83.3882 174.377H115.424C134.215 174.377 149.479 189.64 149.479 208.431V589.894H-117.443Z" fill="#9F57A3"/>
<path d="M-118.405 590.856H150.441V208.431C150.441 189.127 134.792 173.415 115.424 173.415H-83.3883C-102.692 173.415 -118.405 189.127 -118.405 208.431V590.856ZM148.517 588.932H-116.417V208.431C-116.417 190.153 -101.602 175.403 -83.3242 175.339H115.424C133.702 175.339 148.517 190.153 148.517 208.431V588.932Z" fill="#1D1E1B"/>
<path d="M-107.695 589.894C-107.887 588.483 -108.015 587.008 -108.015 585.597V222.156C-108.015 204.711 -93.8418 190.538 -76.3976 190.538H-40.6114C-40.6114 190.666 -40.6114 190.795 -40.6114 190.859C-40.6114 199.966 -33.2361 207.405 -24.0651 207.405H54.7544C63.8613 207.405 71.3007 200.03 71.3007 190.859C71.3007 190.73 71.3007 190.602 71.3007 190.538H108.434C125.878 190.538 140.051 204.711 140.051 222.156V585.597C140.051 587.008 139.923 588.483 139.731 589.894H-107.695Z" fill="#86A5F3"/>
<path d="M-108.528 590.856H140.565L140.693 590.023C140.885 588.548 141.013 587.072 141.013 585.597V222.156C141.013 204.198 126.455 189.64 108.434 189.576H70.2747V190.859C70.2747 199.453 63.2842 206.379 54.7545 206.443H-24.065C-32.6588 206.443 -39.5851 199.453 -39.6493 190.859V189.576H-76.4616C-94.4189 189.576 -108.977 204.134 -109.041 222.156V585.597C-109.041 587.072 -108.913 588.548 -108.721 590.023L-108.528 590.856ZM138.897 588.932H-106.797C-106.925 587.842 -106.989 586.688 -106.989 585.597V222.156C-106.989 205.225 -93.2645 191.564 -76.3334 191.5H-41.5091C-41.1885 200.928 -33.4284 208.367 -24.065 208.367H54.8187C64.2462 208.367 71.9422 200.928 72.2628 191.5H108.434C125.365 191.5 139.025 205.225 139.089 222.156V585.597C139.089 586.688 139.025 587.842 138.897 588.932Z" fill="#1D1E1B"/>
<path d="M3.51203 589.189H-107.053C-107.246 587.778 -107.374 586.367 -107.374 584.892V452.521C-98.7801 444.12 -75.115 426.483 -24.7065 421.738C42.3125 415.388 67.0678 456.369 54.6902 491.001C54.7543 491.001 26.7282 549.17 3.51203 589.189Z" fill="#0D0BCC"/>
<path d="M-107.887 590.151H4.08936L4.34587 589.702C27.3055 550.068 55.3316 492.027 55.5882 491.45L55.6523 491.322C61.6166 474.647 59.0513 457.331 48.6618 443.992C34.5525 425.842 8.51454 417.633 -24.7705 420.776C-76.2052 425.65 -100.127 444.12 -108.015 451.816L-108.336 452.072V584.956C-108.336 586.431 -108.208 587.906 -108.015 589.317L-107.887 590.151ZM2.93494 588.227H-106.219C-106.348 587.137 -106.412 586.046 -106.412 584.892V452.906C-98.3952 445.146 -74.8584 427.445 -24.6423 422.635C7.93731 419.557 33.3981 427.51 47.0585 445.082C57.0632 457.909 59.5003 474.519 53.7924 490.552C52.8946 492.54 25.5739 549.17 2.93494 588.227Z" fill="#1D1E1B"/>
<path d="M139.346 359.08C120.555 329.707 35.0015 281.222 -1.93909 288.726C-38.8797 296.229 -81.5923 347.856 -81.5923 347.856C-81.5923 347.856 -51.7063 371.457 -59.8512 386.785C-67.8678 401.856 -74.6018 414.683 -79.989 434.885C-79.989 434.885 12.555 517.103 36.4766 527.557C36.4766 527.557 92.2723 503.571 107.472 445.21C107.472 445.21 132.804 494.657 154.93 501.006C177.056 507.355 234.968 481.125 222.655 463.167L234.968 454.958L221.949 419.749L211.111 421.994C211.111 421.994 211.111 405.512 199.503 407.757C187.895 410.001 166.923 416.735 166.923 416.735C166.923 416.735 167.629 403.267 139.346 359.08Z" fill="#F15F7B"/>
<path d="M36.4767 528.519C36.6049 528.519 36.7332 528.519 36.8615 528.455C36.9897 528.391 51.099 522.234 66.8757 509.023C81.0491 497.158 99.4553 476.956 107.728 447.84C112.987 457.588 134.793 496.26 154.61 501.968C157.239 502.673 159.933 502.994 162.69 502.93C181.93 502.93 212.522 490.232 222.142 476.764C225.605 472.018 226.182 467.4 223.937 463.424L235.481 455.728C235.866 455.472 235.994 455.023 235.866 454.574L222.847 419.365C222.719 418.916 222.206 418.659 221.757 418.723L212.009 420.711C211.816 418.082 211.047 411.669 207.07 408.398C205.018 406.666 202.389 406.089 199.31 406.73C189.37 408.654 172.375 413.913 167.757 415.388C167.244 411.027 163.781 395.443 140.18 358.502C131.009 344.137 105.804 324.768 75.9826 309.184C43.852 292.317 14.6715 284.301 -2.13139 287.7C-39.0079 295.139 -81.9129 346.638 -82.3618 347.151C-82.6825 347.536 -82.6183 348.177 -82.2336 348.498C-81.9129 348.754 -53.053 371.778 -60.749 386.208C-68.6373 401.087 -75.4996 413.913 -80.9509 434.5C-81.0792 434.821 -80.9509 435.206 -80.6302 435.462C-76.8464 438.797 12.3627 517.873 36.0919 528.262C36.2201 528.455 36.3484 528.519 36.4767 528.519ZM107.472 444.248H107.344C106.959 444.312 106.638 444.569 106.51 444.954C98.7498 474.84 80.023 495.491 65.6572 507.483C51.5479 519.348 38.7854 525.441 36.4125 526.467C13.1964 515.885 -72.0364 440.657 -79.0269 434.5C-73.6397 414.491 -66.9058 401.792 -59.1457 387.17C-51.3856 372.548 -75.5637 351.64 -80.3737 347.664C-74.9865 341.315 -35.673 296.422 -1.87488 289.624C14.479 286.289 43.2107 294.241 74.9565 310.916C104.522 326.372 129.405 345.483 138.384 359.593C165.961 402.754 165.769 416.543 165.769 416.671C165.769 416.992 165.897 417.312 166.154 417.505C166.41 417.697 166.731 417.761 167.051 417.633C167.244 417.569 188.151 410.899 199.567 408.654C202.068 408.141 204.12 408.59 205.724 409.937C209.956 413.4 210.021 421.866 210.021 421.93C210.021 422.443 210.47 422.892 210.983 422.892C211.047 422.892 211.111 422.892 211.175 422.892L221.244 420.84L233.75 454.51L222.078 462.334C221.885 462.462 221.693 462.719 221.693 462.975C221.629 463.232 221.693 463.488 221.821 463.681C224.194 467.144 223.809 471.184 220.603 475.609C209.764 490.681 171.861 504.854 155.187 500.044C133.766 493.887 108.562 445.21 108.306 444.697C108.177 444.441 107.857 444.248 107.472 444.248Z" fill="#1D1D1B"/>
<path d="M200.721 277.438H200.849C201.106 277.438 225.797 275.13 255.683 260.122C273.127 251.4 289.096 239.92 302.949 226.196C320.201 209.073 334.246 188.358 344.571 164.564C344.828 163.923 344.571 163.153 343.93 162.897C343.289 162.64 342.519 162.897 342.263 163.538C319.046 216.64 281.849 244.089 254.657 257.749C225.22 272.564 200.913 274.809 200.657 274.873C199.951 274.873 199.374 275.514 199.438 276.22C199.438 276.925 200.016 277.502 200.721 277.438Z" fill="#1D1D1B"/>
<path d="M118.887 257.878C118.887 257.878 130.624 274.167 140.5 263.201C150.377 252.234 171.284 228.569 189.305 242.165C207.327 255.761 207.648 260.507 221.051 251.849C234.455 243.191 283.645 271.025 254.272 304.567C206.108 359.529 96.4409 294.241 96.4409 294.241L101.443 278.272L118.887 257.878Z" fill="#0C1927"/>
<path d="M199.695 327.526C203.03 327.526 206.237 327.398 209.379 327.077C228.491 325.282 243.819 317.906 254.978 305.144C266.842 291.548 267.484 276.605 256.709 264.163C246.64 252.555 228.427 245.949 220.538 251.015C210.277 257.685 208.481 256.21 198.412 248.065C196.039 246.141 193.282 243.897 189.947 241.396C171.412 227.415 150.313 250.887 140.18 262.175L139.795 262.624C137.614 265.061 135.113 266.215 132.42 266.087C125.75 265.702 119.721 257.493 119.657 257.429L118.952 256.467L100.545 277.951L95.2865 294.818L95.9278 295.203C96.1844 295.396 123.826 311.685 157.047 321.049C172.567 325.282 186.868 327.526 199.695 327.526ZM227.465 251.208C235.481 251.208 247.41 256.339 255.234 265.381C261.199 272.244 268.83 286.353 253.567 303.861C229.004 331.887 187.83 327.59 157.56 318.996C127.417 310.467 101.956 296.229 97.5953 293.728L102.277 278.721L118.823 259.353C120.747 261.726 126.135 267.562 132.291 267.882C135.562 268.075 138.576 266.664 141.142 263.778L141.526 263.329C151.275 252.491 171.605 229.916 188.664 242.806C191.999 245.372 194.693 247.552 197.066 249.476C207.263 257.749 210.02 259.994 221.436 252.555C223.36 251.593 225.412 251.144 227.465 251.208Z" fill="black"/>
<path d="M216.69 325.089C165.576 284.621 107.087 287.251 107.087 287.251C104.714 290.201 103.047 293.664 102.213 297.384C119.593 306.811 173.401 332.977 216.69 325.089Z" fill="#162332"/>
<path d="M80.7283 230.557C70.3503 230.557 61.9373 222.144 61.9373 211.766C61.9373 201.388 70.3503 192.975 80.7283 192.975C91.1063 192.975 99.5193 201.388 99.5193 211.766C99.5193 222.144 91.1063 230.557 80.7283 230.557Z" fill="#0C1927"/>
<path d="M82.0751 193.039C71.7496 192.27 62.771 200.03 62.0014 210.355C61.2318 220.681 68.9919 229.659 79.3173 230.429C89.6428 231.198 98.6214 223.438 99.391 213.113C99.8399 206.7 97.018 200.543 91.8874 196.695C89.0655 194.578 85.6665 193.36 82.0751 193.039ZM82.2033 191.628C93.2983 192.462 101.636 202.146 100.866 213.241C100.032 224.336 90.3482 232.673 79.2532 231.904C68.1582 231.07 59.8209 221.386 60.5905 210.291C60.847 206.443 62.258 202.787 64.5667 199.709C68.6071 194.194 75.277 191.115 82.2033 191.628Z" fill="black"/>
<path d="M122.158 278.272C122.158 278.272 136.973 269.422 133.51 256.916C130.047 244.41 126.904 244.859 125.493 238.189C124.082 231.519 113.949 223.182 103.175 224.336C103.175 224.336 92.144 212.536 80.087 213.498C68.03 214.46 63.0276 219.206 58.1535 227.607C53.2794 236.008 49.3031 239.472 45.7116 245.244C42.1202 251.015 35.1938 267.947 57.3839 285.198C79.5739 302.45 122.158 278.272 122.158 278.272Z" fill="#0C1927"/>
<path d="M78.0987 292.381C84.961 292.253 91.8232 291.163 98.3648 289.175C106.766 286.673 114.911 283.339 122.607 279.17C123.248 278.785 137.999 269.742 134.408 256.723C132.484 249.669 130.56 246.654 129.084 244.217C127.802 242.358 126.904 240.241 126.455 238.061C124.916 230.621 114.462 222.54 103.56 223.438C101.571 221.45 91.3743 211.702 80.0227 212.6C67.5809 213.562 62.2579 218.692 57.3838 227.222C55.1391 231.07 52.6379 234.726 49.8161 238.125C48.0845 240.305 46.417 242.55 44.942 244.859C41.7994 249.925 33.3339 267.818 56.8707 286.096C62.322 290.201 69.5049 292.381 78.0987 292.381ZM121.709 277.438C120.811 277.951 79.3814 301.039 58.0892 284.429C35.8351 267.113 43.6593 250.438 46.6094 245.757C48.0845 243.512 49.6878 241.267 51.3553 239.215C54.1771 235.688 56.7424 231.968 59.0512 228.12C63.7971 219.975 68.5429 215.358 80.2151 214.46C91.6308 213.562 102.405 224.913 102.533 225.042L102.854 225.362L103.367 225.298C113.949 224.144 123.377 232.289 124.595 238.381C125.108 240.818 126.07 243.127 127.481 245.179C128.956 247.488 130.688 250.374 132.612 257.172C135.818 268.716 122.094 277.182 121.709 277.438Z" fill="black"/>
<path d="M78.8044 257.814C70.4671 256.467 63.8614 247.039 63.6049 246.654C63.3483 246.334 63.4125 245.885 63.7331 245.628C64.0538 245.372 64.5027 245.436 64.7593 245.757L64.8234 245.821C64.8875 245.885 71.365 255.12 79.0609 256.403C79.4457 256.467 79.7023 256.852 79.6381 257.236C79.5099 257.557 79.1892 257.814 78.8044 257.814Z" fill="black"/>
<path d="M86.3722 311.814C86.3722 311.814 95.0301 321.562 82.8448 326.885C70.6596 332.208 64.118 322.011 64.118 322.011C64.118 322.011 25.061 326.372 45.2629 298.089L86.3722 311.814Z" fill="white"/>
<path d="M76.1108 329.386C78.5478 329.386 80.9849 328.809 83.2937 327.783C87.2058 326.115 89.5787 323.742 90.22 320.792C91.3103 315.918 87.334 311.429 87.1416 311.236L86.9492 311.044L86.6927 310.98L44.9421 296.999L44.5573 297.576C38.7853 305.657 37.182 312.07 39.8114 316.495C44.429 324.384 60.4623 323.358 63.7331 323.037C64.9516 324.576 69.1844 329.386 76.1108 329.386ZM85.859 312.711C86.5003 313.545 89.0656 317.008 88.296 320.407C87.783 322.716 85.859 324.576 82.5241 326.051C71.2366 330.925 65.2723 321.947 65.0158 321.562L64.6951 321.049L64.1179 321.113C63.9255 321.113 45.9041 323.037 41.4789 315.533C39.3625 311.878 40.7734 306.426 45.7117 299.244L85.859 312.711Z" fill="#1D1D1B"/>
<path d="M79.0609 252.426C77.1369 252.298 75.2771 251.849 73.5455 251.208C73.1607 251.08 73.0324 250.631 73.1607 250.31C73.2889 249.989 73.6737 249.797 73.9944 249.925C89.4505 255.377 97.2105 240.113 97.5312 239.407C97.7236 239.023 98.1084 238.894 98.4932 239.087C98.8139 239.279 99.0063 239.664 98.8139 240.049C98.7497 240.177 92.0799 253.388 79.0609 252.426Z" fill="white"/>
<path d="M80.4076 252.811C92.7852 252.811 99.0702 240.305 99.1344 240.177C99.3909 239.664 99.1985 239.023 98.7496 238.766C98.3006 238.51 97.5952 238.702 97.3386 239.151C97.3386 239.151 97.2745 239.215 97.2745 239.279C96.9539 239.92 89.322 254.992 74.1225 249.605C73.6094 249.412 73.0322 249.733 72.8398 250.246C72.6474 250.759 72.9681 251.336 73.4812 251.529C75.2769 252.17 77.2009 252.619 79.1249 252.747C79.5097 252.747 79.9586 252.811 80.4076 252.811ZM98.1724 239.343C98.2365 239.343 98.3007 239.343 98.3648 239.407C98.5572 239.472 98.6213 239.728 98.5572 239.92C98.4931 240.049 91.9515 253.132 79.1249 252.17C77.265 252.042 75.4052 251.657 73.6736 251.015C73.4812 250.951 73.3529 250.695 73.417 250.502C73.4812 250.374 73.5453 250.31 73.6094 250.246C73.6736 250.182 73.8018 250.182 73.9301 250.246C89.6427 255.825 97.531 240.241 97.8517 239.6C97.8517 239.407 97.98 239.343 98.1724 239.343Z" fill="white"/>
<path d="M68.7355 205.673C68.6073 205.673 68.479 205.609 68.4149 205.545C68.0942 205.353 67.9659 204.904 68.2225 204.583C70.8519 200.479 74.0586 198.106 77.7141 197.529C83.7426 196.567 88.8091 200.607 89.0015 200.735C89.3222 200.992 89.3222 201.441 89.0657 201.761C88.8092 202.082 88.4244 202.082 88.1037 201.89C88.0396 201.825 83.2937 198.106 77.9065 198.939C74.6357 199.517 71.7498 201.633 69.3768 205.417C69.2486 205.545 68.9921 205.673 68.7355 205.673Z" fill="white"/>
<path d="M68.7353 205.994C69.0559 205.994 69.4407 205.802 69.6331 205.545C71.9419 201.89 74.7637 199.773 77.9704 199.26C83.1652 198.426 87.8469 202.082 87.911 202.082C88.3599 202.403 89.0013 202.274 89.3219 201.825C89.5785 201.377 89.5143 200.863 89.1937 200.479C89.0013 200.286 83.7424 196.182 77.6497 197.208C73.8659 197.849 70.5951 200.286 67.9015 204.455C67.5809 204.904 67.7091 205.545 68.2222 205.866C68.3505 205.93 68.5428 205.994 68.6711 205.994H68.7353ZM79.5737 198.491C78.9965 198.491 78.4193 198.555 77.8422 198.619C74.4431 199.196 71.493 201.377 69.0559 205.225C68.9918 205.353 68.8635 205.417 68.6711 205.417C68.4787 205.417 68.3504 205.289 68.3504 205.096C68.3504 204.968 68.3505 204.904 68.4146 204.776C70.9799 200.735 74.1224 198.426 77.7139 197.849C83.55 196.887 88.5524 200.863 88.7448 200.992C88.9372 201.12 88.9371 201.377 88.8089 201.569C88.6806 201.761 88.4241 201.761 88.2317 201.633C88.2317 201.569 84.3196 198.491 79.5737 198.491Z" fill="white"/>
<path d="M82.973 301.103L85.5383 311.365C85.5383 311.365 63.22 330.733 49.1107 298.41C49.1107 298.41 57.9611 292.638 65.9777 272.372C65.9777 272.372 56.9991 269.229 59.5002 261.149C62.0014 253.068 68.7995 252.491 72.4551 255.184C72.4551 255.184 86.4361 267.754 106.061 237.74C106.061 237.74 121.517 246.462 122.8 263.714C124.082 280.966 118.31 300.077 104.714 304.118C91.1178 308.158 82.973 301.103 82.973 301.103Z" fill="#FFCDB2"/>
<path d="M105.997 237.74C95.3505 254.094 86.3077 257.814 80.3433 257.814C77.4574 257.878 74.6997 256.98 72.3909 255.184C71.1082 254.222 69.5049 253.709 67.9016 253.709C64.6308 253.709 61.1035 255.761 59.436 261.084C56.9348 269.165 65.9134 272.308 65.9134 272.308C57.8968 292.574 49.0464 298.346 49.0464 298.346C55.4597 313.096 63.6046 317.073 70.531 317.073C78.8683 317.073 85.474 311.301 85.474 311.301L82.9087 301.039C82.9087 301.039 87.8469 305.336 96.4408 305.336C99.1985 305.336 101.956 304.887 104.65 304.118C118.31 300.077 124.018 281.03 122.735 263.714C121.453 246.398 106.061 237.74 105.997 237.74ZM105.419 235.175L106.959 236.073C107.6 236.457 123.312 245.5 124.723 263.586C125.429 272.885 124.146 282.12 121.132 289.624C117.669 298.282 112.153 303.925 105.227 305.978C102.405 306.811 99.455 307.26 96.5049 307.26C92.8493 307.26 89.2578 306.555 85.987 305.08L87.4621 310.916L87.7828 312.07L86.8849 312.84C86.5643 313.096 79.6379 319.061 70.6593 319.061C66.2341 319.061 62.0013 317.586 58.5381 314.828C54.2412 311.493 50.4574 306.234 47.379 299.179L46.7377 297.704L48.0844 296.807C48.1486 296.742 56.1011 291.291 63.5405 273.398C59.949 271.474 55.6521 267.177 57.7044 260.571C59.3719 255.12 63.2198 251.785 67.9657 251.785C70.0179 251.785 72.0061 252.426 73.6094 253.645L73.6735 253.709L73.7377 253.773C75.6616 255.184 77.9704 255.954 80.4075 255.89C85.6664 255.89 94.132 252.555 104.457 236.65L105.419 235.175Z" fill="#1D1D1B"/>
<path d="M83.1012 302.578C83.037 302.578 82.9729 302.578 82.9088 302.514C75.5335 299.436 70.5952 291.034 70.4028 290.714C70.2104 290.393 70.2745 289.944 70.5952 289.752C70.9159 289.559 71.3648 289.624 71.5572 289.944C71.5572 289.944 71.5572 290.008 71.6214 290.008C71.6855 290.072 76.4955 298.346 83.4218 301.232C83.8066 301.36 83.9349 301.809 83.8066 302.194C83.6784 302.386 83.3577 302.578 83.1012 302.578Z" fill="black"/>
<path d="M66.4265 268.524C66.17 268.524 65.9135 268.331 65.8493 268.075C64.3743 264.804 64.246 262.175 65.5287 260.379C67.3244 257.749 71.1724 257.878 71.3007 257.878C71.6855 257.878 72.0061 258.198 72.0061 258.583C72.0061 258.968 71.6855 259.289 71.3007 259.289C71.2365 259.289 68.094 259.225 66.7472 261.149C65.7852 262.559 65.9776 264.676 67.1961 267.498C67.3244 267.882 67.1961 268.267 66.8113 268.46C66.6831 268.524 66.5548 268.588 66.4265 268.524Z" fill="black"/>
<path d="M103.431 262.944C93.7472 262.944 82.1391 256.274 79.3172 259.096C76.4954 261.918 77.2008 266.728 81.9467 268.845C86.6925 270.961 91.759 271.923 102.084 273.27C112.41 274.616 122.671 275.194 122.671 269.486C122.671 263.778 117.669 262.88 103.431 262.944Z" fill="#FFB49F"/>
<path d="M115.424 259.225C115.232 259.225 115.039 259.096 114.911 258.904C114.911 258.84 112.346 255.505 108.883 255.505C108.498 255.569 108.113 255.248 108.113 254.863C108.049 254.479 108.369 254.094 108.754 254.094C108.818 254.094 108.818 254.094 108.883 254.094C113.051 254.094 115.937 257.942 116.065 258.07C116.322 258.391 116.194 258.84 115.873 259.096C115.745 259.16 115.552 259.225 115.424 259.225Z" fill="black"/>
<path d="M103.175 280.26C102.854 280.196 102.598 279.939 102.534 279.619L100.481 264.163C100.417 263.778 100.738 263.393 101.123 263.393C101.507 263.329 101.828 263.586 101.892 263.97L103.945 279.426C104.009 279.811 103.752 280.196 103.367 280.196L103.175 280.26Z" fill="black"/>
<path d="M62.1938 274.681C60.4937 274.681 59.1155 273.302 59.1155 271.602C59.1155 269.902 60.4937 268.524 62.1938 268.524C63.894 268.524 65.2722 269.902 65.2722 271.602C65.2722 273.302 63.894 274.681 62.1938 274.681Z" fill="#F15F7B"/>
<path d="M62.4503 268.524C60.7829 268.396 59.3078 269.678 59.1795 271.346C59.1154 272.372 59.5643 273.398 60.3981 274.039C60.847 274.424 61.4242 274.616 62.0014 274.616C63.6689 274.745 65.1439 273.462 65.2722 271.795C65.3363 270.768 64.8874 269.742 64.0537 269.101C63.6047 268.78 63.0275 268.588 62.4503 268.524ZM62.5145 267.113C65.0156 267.305 66.8755 269.422 66.6831 271.923C66.4907 274.424 64.3743 276.284 61.8731 276.092C59.3719 275.899 57.5121 273.783 57.7045 271.282C57.7686 270.448 58.0893 269.614 58.6024 268.909C59.5644 267.69 61.0394 267.049 62.5145 267.113Z" fill="black"/>
<path d="M97.7877 253.645C97.5953 253.645 97.4029 253.517 97.2746 253.388C96.8257 252.875 95.4148 251.464 94.3887 251.785C94.0039 251.913 93.619 251.657 93.4908 251.272C93.3625 250.887 93.619 250.502 94.0038 250.374C96.1202 249.797 98.1725 252.234 98.3649 252.491C98.6214 252.811 98.5573 253.26 98.2366 253.517C98.1725 253.645 97.9801 253.709 97.7877 253.645Z" fill="black"/>
<path d="M235.481 295.78C240.676 295.78 254.144 295.203 271.396 290.457C300.32 282.377 326.229 266.023 345.854 243.255C346.239 242.678 346.111 241.909 345.598 241.46C345.085 241.075 344.379 241.139 343.93 241.588C324.626 263.906 299.229 280.068 270.754 287.956C249.27 293.92 233.365 293.215 233.237 293.215C232.531 293.151 231.954 293.728 231.89 294.434C231.826 295.139 232.403 295.716 233.108 295.78C233.301 295.716 234.07 295.78 235.481 295.78Z" fill="#1D1D1B"/>
<path d="M-1.55427 413.144C-3.57318 413.144 -5.20982 411.507 -5.20982 409.488C-5.20982 407.469 -3.57318 405.833 -1.55427 405.833C0.464636 405.833 2.10132 407.469 2.10132 409.488C2.10132 411.507 0.464636 413.144 -1.55427 413.144Z" fill="white"/>
<path d="M89.3862 407.757C87.3673 407.757 85.7306 406.12 85.7306 404.101C85.7306 402.082 87.3673 400.445 89.3862 400.445C91.4051 400.445 93.0417 402.082 93.0417 404.101C93.0417 406.12 91.4051 407.757 89.3862 407.757Z" fill="white"/>
<path d="M70.5314 473.108C68.5125 473.108 66.8758 471.471 66.8758 469.453C66.8758 467.434 68.5125 465.797 70.5314 465.797C72.5503 465.797 74.187 467.434 74.187 469.453C74.187 471.471 72.5503 473.108 70.5314 473.108Z" fill="white"/>
<path d="M47.6359 438.733C45.617 438.733 43.9803 437.096 43.9803 435.077C43.9803 433.058 45.617 431.422 47.6359 431.422C49.6548 431.422 51.2915 433.058 51.2915 435.077C51.2915 437.096 49.6548 438.733 47.6359 438.733Z" fill="white"/>
<path d="M25.3815 498.056C23.3626 498.056 21.726 496.419 21.726 494.4C21.726 492.381 23.3626 490.745 25.3815 490.745C27.4004 490.745 29.0371 492.381 29.0371 494.4C29.0371 496.419 27.4004 498.056 25.3815 498.056Z" fill="white"/>
<path d="M9.21994 353.179C7.20103 353.179 5.56435 351.543 5.56435 349.524C5.56435 347.505 7.20103 345.868 9.21994 345.868C11.2388 345.868 12.8755 347.505 12.8755 349.524C12.8755 351.543 11.2388 353.179 9.21994 353.179Z" fill="white"/>
<path d="M32.821 388.901C30.8021 388.901 29.1654 387.265 29.1654 385.246C29.1654 383.227 30.8021 381.59 32.821 381.59C34.8399 381.59 36.4766 383.227 36.4766 385.246C36.4766 387.265 34.8399 388.901 32.821 388.901Z" fill="white"/>
<path d="M102.213 359.913C100.194 359.913 98.5573 358.277 98.5573 356.258C98.5573 354.239 100.194 352.602 102.213 352.602C104.232 352.602 105.868 354.239 105.868 356.258C105.868 358.277 104.232 359.913 102.213 359.913Z" fill="white"/>
<path d="M143.963 465.027C141.944 465.027 140.308 463.391 140.308 461.372C140.308 459.353 141.944 457.716 143.963 457.716C145.982 457.716 147.619 459.353 147.619 461.372C147.619 463.391 145.982 465.027 143.963 465.027Z" fill="white"/>
<path d="M187.125 438.733C185.106 438.733 183.469 437.096 183.469 435.077C183.469 433.058 185.106 431.422 187.125 431.422C189.144 431.422 190.781 433.058 190.781 435.077C190.781 437.096 189.144 438.733 187.125 438.733Z" fill="white"/>
<path d="M198.605 468.426C196.586 468.426 194.949 466.79 194.949 464.771C194.949 462.752 196.586 461.115 198.605 461.115C200.624 461.115 202.26 462.752 202.26 464.771C202.26 466.79 200.624 468.426 198.605 468.426Z" fill="white"/>
<path d="M5.82097 314.058C3.80207 314.058 2.16542 312.422 2.16542 310.403C2.16542 308.384 3.80207 306.747 5.82097 306.747C7.83988 306.747 9.47656 308.384 9.47656 310.403C9.47656 312.422 7.83988 314.058 5.82097 314.058Z" fill="white"/>
<path d="M233.365 454.445L221.244 420.776L210.469 422.828C210.469 422.828 203.735 444.377 221.949 462.59L233.365 454.445Z" fill="#13283E"/>
<path d="M222.783 419.749C222.783 419.749 236.572 362.799 259.467 388.517L287.108 379.025C287.108 379.025 300.897 388.388 282.042 402.818C282.042 402.818 286.339 412.823 281.4 421.545C281.4 421.545 288.84 431.165 274.987 441.426C259.98 452.521 234.455 453.548 234.455 453.548L222.783 419.749Z" fill="#FFCDB2"/>
<path d="M233.75 454.51H234.455C235.481 454.445 260.429 453.355 275.564 442.196C280.695 438.412 283.645 434.244 284.286 429.818C284.671 426.932 284.094 424.046 282.555 421.545C286.595 413.849 284.094 405.64 283.196 403.139C289.802 397.944 293.073 392.749 292.944 387.747C292.752 381.783 287.878 378.384 287.685 378.255L287.301 377.999L259.788 387.426C254.913 382.103 249.975 380.051 245.101 381.27C230.415 384.989 222.206 418.146 221.885 419.557L221.821 419.814L221.885 420.07L233.75 454.51ZM286.98 380.051C288.006 380.885 290.956 383.643 291.085 387.747C291.213 392.236 288.006 397.046 281.529 401.985L280.951 402.434L281.272 403.139C281.336 403.267 285.313 412.823 280.695 421.032L280.374 421.609L280.759 422.122C282.234 424.303 282.811 426.932 282.427 429.498C281.849 433.41 279.22 437.13 274.474 440.593C261.263 450.341 239.393 452.201 235.161 452.457L223.873 419.621C224.707 416.415 232.723 386.272 245.678 383.001C249.911 381.911 254.336 383.963 258.89 389.03L259.339 389.543L286.98 380.051Z" fill="#1D1D1B"/>
<path d="M272.358 443.735C264.918 447.711 252.99 443.607 255.811 435.911C258.184 429.498 262.225 428.151 262.225 428.151C262.225 428.151 248.051 428.151 252.092 416.03C256.132 403.909 281.08 402.562 281.08 402.562" fill="#FFCDB2"/>
<path d="M265.816 446.236C268.253 446.236 270.626 445.723 272.807 444.569C273.256 444.312 273.384 443.671 273.127 443.222C272.871 442.837 272.358 442.645 271.909 442.837C267.227 445.339 261.07 444.312 258.184 441.811C256.517 440.464 255.94 438.156 256.709 436.232C258.89 430.331 262.481 429.049 262.481 429.049C262.994 428.856 263.251 428.343 263.059 427.83C262.93 427.445 262.545 427.189 262.161 427.189C262.097 427.189 255.876 427.125 253.374 423.597C252.092 421.802 251.964 419.365 252.99 416.286C256.773 404.935 280.888 403.46 281.08 403.46C281.593 403.46 282.042 402.947 281.978 402.434C281.914 401.92 281.465 401.472 280.952 401.536C279.926 401.6 255.298 403.075 251.13 415.645C249.911 419.301 250.104 422.379 251.771 424.688C253.631 427.253 256.902 428.343 259.275 428.728C257.222 430.524 255.683 432.897 254.849 435.462C253.759 438.156 254.529 441.298 256.838 443.158C259.082 445.21 262.417 446.236 265.816 446.236Z" fill="#1D1D1B"/>
<path d="M260.814 428.985C260.878 428.985 261.006 428.985 261.07 428.92L281.657 422.635C282.17 422.507 282.427 421.93 282.298 421.417C282.17 420.904 281.593 420.647 281.08 420.776L260.493 427.061C259.98 427.253 259.724 427.766 259.852 428.279C260.044 428.792 260.429 429.049 260.814 428.985Z" fill="#1D1D1B"/>
<path d="M259.467 388.517C259.467 388.517 273.641 399.868 268.253 408.654C262.866 417.441 240.612 399.868 240.612 399.868" fill="#FFCDB2"/>
<path d="M263.379 411.989C263.892 411.989 264.405 411.925 264.918 411.861C266.65 411.605 268.189 410.578 269.087 409.103C274.859 399.74 260.686 388.196 260.108 387.747C259.724 387.426 259.082 387.491 258.762 387.875C258.441 388.26 258.505 388.901 258.89 389.222C259.018 389.35 272.358 400.125 267.484 408.077C266.842 409.103 265.816 409.809 264.598 410.001C264.149 410.065 263.764 410.129 263.315 410.129C255.363 410.129 241.446 399.227 241.253 399.099C240.804 398.778 240.227 398.842 239.906 399.291C239.586 399.74 239.65 400.317 240.099 400.638C240.676 401.087 254.657 411.989 263.379 411.989Z" fill="#1D1D1B"/>
<path d="M41.6715 483.434H-88.5185C-96.0862 483.434 -102.243 489.59 -102.243 497.158V497.992C-102.243 505.559 -96.0862 511.716 -88.5185 511.716H41.6715C49.2392 511.716 55.396 505.559 55.396 497.992V497.158C55.4601 489.59 49.3033 483.434 41.6715 483.434Z" fill="#86A5F3"/>
<path d="M-88.5187 512.678H41.6713C49.8162 512.678 56.4219 506.137 56.4219 497.992V497.158C56.4219 489.013 49.8162 482.472 41.6713 482.472H-88.5187C-96.6636 482.472 -103.205 489.077 -103.205 497.158V497.992C-103.205 506.072 -96.6636 512.678 -88.5187 512.678ZM41.6713 484.396C48.7259 484.396 54.4979 490.103 54.4979 497.158V497.992C54.4979 505.046 48.7259 510.754 41.6713 510.754H-88.5187C-95.5733 510.754 -101.281 505.046 -101.281 497.992V497.158C-101.281 490.103 -95.5733 484.396 -88.5187 484.396H41.6713Z" fill="#1D1E1B"/>
<path d="M41.6715 445.018H-88.5185C-96.0862 445.018 -102.243 451.175 -102.243 458.742V459.576C-102.243 467.144 -96.0862 473.301 -88.5185 473.301H41.6715C49.2392 473.301 55.396 467.144 55.396 459.576V458.742C55.4601 451.175 49.3033 445.018 41.6715 445.018Z" fill="#86A5F3"/>
<path d="M-88.5187 474.263H41.6713C49.8162 474.263 56.4219 467.721 56.4219 459.576V458.742C56.4219 450.597 49.8162 444.056 41.6713 444.056H-88.5187C-96.6636 444.056 -103.205 450.662 -103.205 458.742V459.576C-103.205 467.657 -96.6636 474.263 -88.5187 474.263ZM41.6713 445.98C48.7259 445.98 54.4979 451.688 54.4979 458.742V459.576C54.4979 466.631 48.7259 472.339 41.6713 472.339H-88.5187C-95.5733 472.339 -101.281 466.631 -101.281 459.576V458.742C-101.281 451.688 -95.5733 445.98 -88.5187 445.98H41.6713Z" fill="#1D1E1B"/>
<path d="M-25.7967 187.78L60.4622 187.139C61.5525 187.139 62.3862 186.305 62.3862 185.215C62.3862 184.125 61.5525 183.291 60.4622 183.291L-25.7967 183.932C-26.8869 183.932 -27.7206 184.766 -27.7206 185.856C-27.7206 186.947 -26.8228 187.78 -25.7967 187.78Z" fill="white"/>
<path d="M104.971 454.445C105.355 454.445 105.676 454.253 105.868 453.868C112.923 438.156 116.963 401.472 117.092 399.868C117.156 399.355 116.771 398.842 116.258 398.778C115.745 398.714 115.232 399.099 115.168 399.612C115.103 399.996 110.999 437.578 104.073 452.97C103.88 453.483 104.073 454.061 104.586 454.253C104.65 454.445 104.842 454.51 104.971 454.445Z" fill="#1D1E1B"/>
<path d="M110.04 269.367C109.711 267.339 111.088 265.429 113.116 265.1C115.144 264.771 117.055 266.148 117.384 268.176C117.713 270.203 116.336 272.114 114.308 272.443C112.28 272.772 110.369 271.395 110.04 269.367Z" fill="#1D1D1B"/>
<path d="M89.1297 268.78C87.0755 268.78 85.41 267.115 85.41 265.061C85.41 263.006 87.0755 261.341 89.1297 261.341C91.1838 261.341 92.8494 263.006 92.8494 265.061C92.8494 267.115 91.1838 268.78 89.1297 268.78Z" fill="#1D1D1B"/>
<path d="M113.372 268.075C112.805 268.075 112.346 267.616 112.346 267.049C112.346 266.482 112.805 266.023 113.372 266.023C113.939 266.023 114.398 266.482 114.398 267.049C114.398 267.616 113.939 268.075 113.372 268.075Z" fill="white"/>
<path d="M111.705 270.063C111.351 270.063 111.063 269.776 111.063 269.422C111.063 269.068 111.351 268.78 111.705 268.78C112.059 268.78 112.346 269.068 112.346 269.422C112.346 269.776 112.059 270.063 111.705 270.063Z" fill="white"/>
<path d="M89.8352 264.74C89.2682 264.74 88.8091 264.281 88.8091 263.714C88.8091 263.147 89.2682 262.688 89.8352 262.688C90.4021 262.688 90.8613 263.147 90.8613 263.714C90.8613 264.281 90.4021 264.74 89.8352 264.74Z" fill="white"/>
<path d="M88.1678 266.664C87.8137 266.664 87.5264 266.377 87.5264 266.023C87.5264 265.669 87.8137 265.381 88.1678 265.381C88.5218 265.381 88.8091 265.669 88.8091 266.023C88.8091 266.377 88.5218 266.664 88.1678 266.664Z" fill="white"/>
<path d="M83.8709 292.061C84.3839 292.061 84.8329 291.612 84.8329 291.099C84.8329 290.714 84.6405 290.393 84.3198 290.265C82.5882 289.367 82.2034 286.417 82.2034 284.108C87.1417 288.982 95.9279 287.956 96.3768 287.892C96.8899 287.828 97.2747 287.315 97.2105 286.802C97.1464 286.289 96.6334 285.904 96.1203 285.968C95.992 285.968 85.9231 287.187 82.2034 281.03C81.9469 280.581 81.3697 280.453 80.9208 280.709C80.6642 280.837 80.4718 281.094 80.4718 281.415C80.4077 281.735 79.2533 289.816 83.4219 291.996C83.5502 292.061 83.6785 292.061 83.8709 292.061Z" fill="black"/>
<path d="M181.096 524.094C209.636 524.094 226.182 512.678 235.096 503.058C244.909 492.412 247.666 481.83 247.795 481.381C247.987 480.676 247.538 479.97 246.897 479.842C246.255 479.714 245.486 480.099 245.358 480.74C245.358 480.868 242.6 491.258 233.172 501.455C224.643 510.69 208.738 521.593 181.16 521.593H179.878C179.172 521.593 178.595 522.17 178.595 522.875C178.595 523.581 179.172 524.158 179.878 524.158L181.096 524.094Z" fill="#1D1D1B"/>
<path d="M153.519 412.887C153.648 412.887 153.84 412.887 153.968 412.823C154.994 412.567 155.636 411.54 155.379 410.514C148.325 381.141 133.766 362.928 122.8 352.859C110.871 341.892 100.674 337.916 100.289 337.723C99.327 337.339 98.1726 337.787 97.7878 338.749C97.403 339.711 97.8519 340.866 98.8139 341.251H98.8781C99.0705 341.315 108.947 345.227 120.298 355.745C130.816 365.493 144.797 383.001 151.595 411.348C151.852 412.246 152.622 412.887 153.519 412.887Z" fill="white"/>
<path d="M203.287 95.2364H156.213C150.056 95.2364 145.054 100.239 145.054 106.396V153.469C145.054 159.626 150.056 164.628 156.213 164.628H203.287C209.443 164.628 214.446 159.626 214.446 153.469V106.396C214.51 100.239 209.507 95.2364 203.287 95.2364Z" fill="#86A5F3"/>
<path d="M156.277 165.59H203.286C210.02 165.59 215.472 160.139 215.472 153.469V106.396C215.472 99.6616 210.02 94.2744 203.286 94.2744H156.213C149.543 94.3385 144.092 99.7257 144.092 106.396V153.469C144.156 160.139 149.543 165.59 156.277 165.59ZM203.286 96.1984C208.93 96.1984 213.548 100.752 213.548 106.396V153.469C213.548 159.113 208.93 163.666 203.286 163.666H156.213C150.569 163.666 146.016 159.049 146.016 153.469V106.396C146.016 100.752 150.633 96.1984 156.213 96.1984H203.286Z" fill="#1D1E1B"/>
<path d="M180.134 153.79C166.746 153.79 155.892 142.936 155.892 129.548C155.892 116.159 166.746 105.305 180.134 105.305C193.523 105.305 204.377 116.159 204.377 129.548C204.377 142.936 193.523 153.79 180.134 153.79Z" fill="#F8A863"/>
<path d="M180.134 154.816C194.051 154.816 205.339 143.529 205.339 129.612C205.339 115.695 194.051 104.407 180.134 104.407C166.217 104.407 154.93 115.695 154.93 129.612C154.93 143.529 166.217 154.816 180.134 154.816ZM180.134 106.267C193.025 106.267 203.415 116.721 203.415 129.548C203.415 142.374 192.961 152.828 180.134 152.828C167.308 152.828 156.854 142.438 156.854 129.548C156.854 116.721 167.244 106.267 180.134 106.267Z" fill="black"/>
<path d="M178.659 105.369C178.659 105.369 204.761 130.189 181.353 153.79L178.659 105.369Z" fill="#F8A863"/>
<path d="M181.994 154.495C188.792 147.697 192.127 140.065 191.999 131.856C191.743 116.721 179.75 105.113 179.237 104.664L177.89 106.075C178.018 106.203 189.819 117.619 190.011 131.921C190.139 139.552 186.933 146.671 180.519 153.149L181.994 154.495Z" fill="black"/>
<path d="M179.237 140.514C181.545 140.514 183.918 140.322 186.227 139.937C192.64 138.911 198.797 136.923 204.569 134.037L203.671 132.369C203.351 132.562 172.118 148.787 156.662 127.944L155.123 129.099C160.702 136.602 168.975 140.514 179.237 140.514Z" fill="black"/>
<path d="M133.317 110.757L135.241 110.628C134.6 98.1865 137.486 89.4644 143.643 84.7186C153.134 77.4074 167.5 81.8967 167.693 81.9609L168.27 80.101C167.628 79.9086 152.814 75.291 142.488 83.1794C135.754 88.3742 132.676 97.6093 133.317 110.757Z" fill="black"/>
<path d="M201.042 176.365C214.959 176.365 224.707 173.158 230.094 166.873C233.236 163.282 234.776 158.472 234.327 153.726L232.403 154.046C232.723 158.279 231.377 162.512 228.555 165.719C223.552 171.555 214.253 174.505 200.978 174.505L201.042 176.365Z" fill="black"/>
<path d="M391.004 291.355H319.752C310.389 291.355 302.821 298.923 302.821 308.286V379.538C302.821 388.901 310.389 396.469 319.752 396.469H391.004C400.367 396.469 407.935 388.901 407.935 379.538V308.286C407.935 298.923 400.367 291.355 391.004 291.355Z" fill="#86A5F3"/>
<path d="M319.752 397.431H391.004C400.88 397.431 408.897 389.415 408.897 379.538V308.286C408.897 298.41 400.88 290.393 391.004 290.393H319.752C309.876 290.393 301.859 298.41 301.859 308.286V379.538C301.859 389.415 309.876 397.431 319.752 397.431ZM391.004 292.317C399.854 292.317 406.973 299.5 406.973 308.286V379.538C406.973 388.388 399.79 395.507 391.004 395.507H319.752C310.902 395.507 303.783 388.324 303.783 379.538V308.286C303.783 299.5 310.966 292.317 319.752 292.317H391.004Z" fill="#1D1E1B"/>
<path d="M392.158 412.695C407.101 412.695 417.811 408.911 424.032 401.407C432.562 391.146 429.484 377.871 429.355 377.293C429.227 376.588 428.586 376.139 427.88 376.267C427.175 376.396 426.726 377.037 426.854 377.742C426.854 377.806 426.854 377.871 426.918 377.871C426.983 378.063 429.804 390.505 422.044 399.74C415.631 407.436 403.83 410.899 387.092 410.001C386.386 409.937 385.809 410.514 385.745 411.22C385.681 411.925 386.258 412.502 386.964 412.567C388.759 412.695 390.491 412.695 392.158 412.695Z" fill="#1D1D1B"/>
<path d="M308.529 323.935H308.657C309.747 323.871 310.517 322.973 310.453 321.947C310.068 315.084 311.799 309.697 315.519 305.913C322.189 299.244 333.22 299.692 333.348 299.692C334.438 299.757 335.336 298.923 335.4 297.897C335.464 296.871 334.631 295.909 333.605 295.844C333.092 295.844 320.778 295.267 312.89 303.156C308.336 307.709 306.22 314.122 306.669 322.075C306.605 323.101 307.502 323.935 308.529 323.935Z" fill="white"/>
<path d="M356.291 328.859L345.656 361.274H337.089L351.618 322.172H357.07L356.291 328.859ZM365.126 361.274L354.465 328.859L353.605 322.172H359.111L373.72 361.274H365.126ZM364.643 346.718V353.029H343.991V346.718H364.643Z" fill="black"/>
</g>
<defs>
<linearGradient id="paint0_linear_10_1606" x1="6.49998" y1="20.5" x2="433.5" y2="619.5" gradientUnits="userSpaceOnUse">
<stop stop-color="#7E57A3"/>
<stop offset="0.968778" stop-color="#66ADDB"/>
</linearGradient>
</defs>
</svg>
